<svg xmlns="http://www.w3.org/2000/svg" xmlns:xlink="http://www.w3.org/1999/xlink" width="30.437" height="30.203" viewBox="0 0 30.437 30.203">
  <defs>
    <clipPath id="clip-path">
      <rect id="Rectangle_18" data-name="Rectangle 18" width="30.437" height="30.203" fill="none"/>
    </clipPath>
  </defs>
  <g id="Group_43" data-name="Group 43" transform="translate(333 77)">
    <g id="Group_15" data-name="Group 15" transform="translate(-333 -77)" clip-path="url(#clip-path)">
      <path id="Path_175" data-name="Path 175" d="M30.437,15.1a1.108,1.108,0,0,0-1.111-1.112,12.822,12.822,0,0,1-9.086-3.776,12.836,12.836,0,0,1-3.788-9.1A1.115,1.115,0,0,0,15.341,0h-.235a1.108,1.108,0,0,0-1.112,1.111,12.844,12.844,0,0,1-3.787,9.1,12.831,12.831,0,0,1-9.1,3.776,1.111,1.111,0,0,0,0,2.222,12.85,12.85,0,0,1,9.1,3.788,12.849,12.849,0,0,1,3.787,9.1,1.107,1.107,0,0,0,1.112,1.11h.235a1.115,1.115,0,0,0,1.111-1.11A12.933,12.933,0,0,1,29.326,16.206a1.1,1.1,0,0,0,1.111-1.11m-3.973-2.948a1.614,1.614,0,0,1-.3.045.379.379,0,0,1,0-.758,1.533,1.533,0,0,1,.3.045.349.349,0,0,1,0,.668m-1.885-.593a1.555,1.555,0,0,1-1.77-.69.192.192,0,0,1,.262-.26,5.318,5.318,0,0,0,.789.423,7.075,7.075,0,0,1,.753.275c.121.054.064.212-.033.251m-6.054,2.137a.16.16,0,1,1,.222.221c-.248.189-.412.025-.222-.221m1.1,1.091c-.292.008-.29-.44,0-.453a.244.244,0,0,0,.181-.067c.22-.2.548.132.324.325a.745.745,0,0,1-.506.195M9,15.061c.028.023.056.046.085.068.314.243-.186.737-.472.364a.5.5,0,0,1-.124-.44c.051-.268.436-.233.507,0v.005l0,0m2.615.645a.161.161,0,0,1,.157.157c.018.172-.013.347-.005.522a.282.282,0,0,1-.563,0c.011-.277.064-.662.411-.68m1.376,1.1c.138-.141.439,0,.354.207a.651.651,0,0,0-.051.285.242.242,0,0,1-.484,0,.662.662,0,0,1,.18-.492m1.938,1.529a.861.861,0,0,1-.187.177.789.789,0,0,0-.132.131l-.018.031a.244.244,0,0,1-.4.231.44.44,0,0,1,.034-.617,1.474,1.474,0,0,1,.3-.271.609.609,0,0,1,.361-.068.133.133,0,0,1,.127.167,1.352,1.352,0,0,1-.079.218m1,.468a.2.2,0,0,1,.194.194c-.035.512-.585.806-.837,1.21a.319.319,0,0,1-.141.119.2.2,0,0,1-.281-.041.293.293,0,0,1-.1-.3,1.712,1.712,0,0,1,.415-.7,1.177,1.177,0,0,1,.752-.484m4.12,5.613c-.013-.005-.024-.015-.036-.02a.355.355,0,0,1,0-.61l.036-.021c.708-.378.708,1.03,0,.65m-1.3.982c.049.616-.531,1.281-.688,1.869a4.514,4.514,0,0,0,.021,1.657.19.19,0,0,1-.189.19c-1.488-.07-.366-3.627.6-3.914a.207.207,0,0,1,.258.2M9.2,8.47a.374.374,0,0,1-.44.192c-.338-.119-.56-.429-.294-.759a.628.628,0,0,1,.766-.042.346.346,0,0,1,0,.591c-.01.006-.023.011-.032.018M10.74,7.14a.166.166,0,0,1-.2-.2c.284-.847.965-1.458,1.2-2.372a17.006,17.006,0,0,0,.385-2.937.272.272,0,0,1,.544,0c.1,1.519-.132,4.949-1.927,5.514m7.921,11.288h0a15.125,15.125,0,0,0-3.443,5.3,14.969,14.969,0,0,0-3.444-5.3A15.249,15.249,0,0,0,6.785,15.1a15.041,15.041,0,0,0,4.989-3.321,14.973,14.973,0,0,0,3.444-5.3,15.129,15.129,0,0,0,3.443,5.3,15.085,15.085,0,0,0,5,3.321,15.294,15.294,0,0,0-5,3.332" transform="translate(0 0)" fill="#281a15" fill-rule="evenodd"/>
      <path id="Path_176" data-name="Path 176" d="M23.384,14.833a15.2,15.2,0,0,1-8.442-8.62,15.189,15.189,0,0,1-8.432,8.62,15.265,15.265,0,0,1,8.432,8.63,15.125,15.125,0,0,1,3.443-5.3,15.31,15.31,0,0,1,5-3.332m-4.912-1.182c-.248.189-.411.025-.222-.222a.161.161,0,1,1,.222.222m.88.869c-.291.008-.29-.44,0-.453A.248.248,0,0,0,19.533,14c.221-.2.548.131.324.325a.744.744,0,0,1-.506.194m-10.636.271,0,.007c.028.023.056.046.085.068.314.243-.186.737-.471.364-.439-.573.262-.837.381-.439m2.619.654c.243-.014.142.437.152.679a.282.282,0,0,1-.563,0c.011-.276.064-.661.411-.679m1.376,1.1c.139-.142.439,0,.354.206a.669.669,0,0,0-.051.285.242.242,0,0,1-.484,0,.661.661,0,0,1,.18-.491m1.89,1.143c.22,0,.1.3.048.386l-.337.34a.244.244,0,0,1-.4.231.442.442,0,0,1,.034-.618.7.7,0,0,1,.659-.339m-.121,2.038c.1-.41.679-1.151,1.166-1.184a.2.2,0,0,1,.194.193c-.035.512-.585.807-.837,1.211a.285.285,0,0,1-.523-.22" transform="translate(0.275 0.263)" fill="#ecc228" fill-rule="evenodd"/>
    </g>
  </g>
</svg>
