<svg xmlns="http://www.w3.org/2000/svg" xmlns:xlink="http://www.w3.org/1999/xlink" width="170.495" height="231.141" viewBox="0 0 170.495 231.141">
  <defs>
    <clipPath id="clip-path">
      <rect id="Rectangle_9" data-name="Rectangle 9" width="155.469" height="220.834" fill="none"/>
    </clipPath>
  </defs>
  <g id="boy" transform="matrix(0.998, -0.07, 0.07, 0.998, 0, 10.845)">
    <g id="Group_5" data-name="Group 5" clip-path="url(#clip-path)">
      <path id="Path_49" data-name="Path 49" d="M95.269,95.8c-.192,3.445,1.229,6.325,3.194,6.438s3.721-2.577,3.926-6.009c.206-3.447-1.229-6.326-3.193-6.44s-3.721,2.578-3.927,6.01M60.086,129.812a.263.263,0,0,0-.367.073c-.173.259.025.5.284.555a.319.319,0,1,0,.082-.628m1.884,1.911c-.669,0-.971.7-.992,1.27a.338.338,0,0,0,.675.013.929.929,0,0,1,.126-.49,4.514,4.514,0,0,0,.358-.565.178.178,0,0,0-.167-.228m2.192,1.586c-.713.034-1,.963-1.136,1.532-.087.348.435.617.6.264.118-.254.238-.513.373-.762a1.885,1.885,0,0,0,.37-.818.212.212,0,0,0-.206-.216M11.451,111.865a.5.5,0,0,0-.016,1,.5.5,0,0,0,.016-1M8.4,110.8a.239.239,0,0,0,.238-.393c-.776-.882-1.872-1.493-2.725-2.312a8.061,8.061,0,0,1-2.381-3.835c-.057-.246-.411-.145-.373.1a7.729,7.729,0,0,0,1.684,3.737A7.675,7.675,0,0,0,8.4,110.8M32.091,5.111a.442.442,0,0,0,.015-.883.442.442,0,0,0-.015.883m-3.772,7.026c.792-2.083,2.5-3.51,3.43-5.478.068-.148-.082-.38-.249-.259a11.509,11.509,0,0,0-3.793,5.557c-.128.394.47.56.612.179M3.711,63.261a.453.453,0,0,0,.015-.906.453.453,0,0,0-.015.906m.772-4.718c-.4-4.1,1.333-7.59,1.919-11.532.029-.193-.291-.282-.373-.106-1.6,3.439-3.1,7.917-1.976,11.69.067.226.456.2.43-.052M131.79,15.261a.415.415,0,0,0,.374-.406.449.449,0,1,0-.867-.01c.07.224.227.444.493.416M120.74,6.6a23.508,23.508,0,0,1,4.206,2.323A46.488,46.488,0,0,1,128.72,12.5a.28.28,0,0,0,.444-.33c-1.244-3.03-5.464-4.862-8.346-5.83-.168-.057-.229.191-.077.255m19.118,95.62c-.506.119-1.115.35-1.129.964a.249.249,0,0,0,.123.224c.268.124.494-.241.652-.4a1.679,1.679,0,0,1,.551-.3c.283-.116.083-.551-.2-.485m1.249-1.916c-.121-.046-.193-.144-.355-.164a1.686,1.686,0,0,0-.679.044c-.336.09-.865.279-.795.72.061.391.609.186.815.087a4.458,4.458,0,0,1,.54-.186c.088-.029.177-.059.264-.095s.135-.118.2-.143a.138.138,0,0,0,.005-.264M154.53,89.494a.69.69,0,0,0-.109.964.508.508,0,1,0,.808-.6l0,0a.418.418,0,0,0-.7-.36M152.131,78c-.133-.1-.292.11-.179.225a9.5,9.5,0,0,1,2.414,3.935,29.66,29.66,0,0,1,.53,4.3c.032.2.33.186.379.006.781-2.839-.889-6.722-3.143-8.467m-36.212,70.472a.456.456,0,0,0-.441.272.33.33,0,0,1-.02.043.447.447,0,0,0-.035.169.478.478,0,0,0,.029.169.427.427,0,0,0,.021.042.44.44,0,0,0,.428.286l.267.005a.491.491,0,0,0,.018-.981Zm10.268-6.715c-1.014,1.034-2,2.108-3.057,3.1a12.539,12.539,0,0,1-4.01,2.251c-.195.082-.085.356.094.368,3.233.226,5.45-3.359,7.175-5.555.092-.118-.1-.264-.2-.161M95.815,220.371a.457.457,0,0,0,.014-.914,1.126,1.126,0,0,0-.487.1.445.445,0,0,0-.23.385.377.377,0,0,0,0,.066.4.4,0,0,0,.513.379.718.718,0,0,0,.152-.047c-.158.066-.039.028.034.032m8.722-9.326a18.659,18.659,0,0,0-2.945,3.486c-.948,1.381-2.136,2.537-3.109,3.876-.161.219.129.444.334.348,2.791-1.311,4.05-5.214,6-7.418a.2.2,0,0,0-.284-.292M37.625,178.473l.118.01c.531.038.545-.846.014-.824-.04,0-.078,0-.119,0a.405.405,0,0,0-.013.81m-2.7-12.489a17.485,17.485,0,0,0,2.38,9.171c.094.164.407.115.384-.1-.365-3.135-2.083-5.818-2.1-9.065a.334.334,0,0,0-.667-.01m45.5,46.1a1.889,1.889,0,0,0,1.234-.364.17.17,0,0,0,0-.235c-.367-.354-.794-.1-1.226-.091a.345.345,0,0,0-.011.69m-.407,2.068a2.205,2.205,0,0,0,.694.051c.282-.03.672-.209.653-.546a.177.177,0,0,0-.126-.171,1.321,1.321,0,0,0-.657.123,3.413,3.413,0,0,1-.556.142.209.209,0,0,0-.008.4m-1.571,2.562c2.037.216,4.543.114,6.294-1.088.14-.1.124-.393-.092-.369-1.017.114-1.97.5-2.97.713-1.078.225-2.175.332-3.256.554-.114.025-.078.181.024.191M83.4,194.53a1.408,1.408,0,0,0,1.96-.773,2.632,2.632,0,0,0,.091-2.432,1.585,1.585,0,0,0-1.017-.75c-.527-.129-1.437-.1-1.738.426a.361.361,0,0,0,.2.522.831.831,0,0,0,.1.03,2.005,2.005,0,0,0,.4,2.976m.07-2.969h0a3.226,3.226,0,0,1,.636-.072.663.663,0,0,1,.493.259,1.587,1.587,0,0,1,.037,1.394,1.551,1.551,0,0,1-.33.533.41.41,0,0,1-.331.14,1.211,1.211,0,0,1-.6-.546,1.966,1.966,0,0,1,.1-1.709m.161-9.233a1.744,1.744,0,0,0,2.673.872c1.69-1.317-.89-4.843-2.364-2.945a.33.33,0,0,0-.044.258,2.357,2.357,0,0,0-.265,1.815M84.71,180.8h0a.249.249,0,0,0,.107-.224.612.612,0,0,1,.594.095,1.691,1.691,0,0,1,.624,1.61c-.168.725-1.245.585-1.58.078a1.085,1.085,0,0,1,.254-1.56m-26.57-9.506a.153.153,0,0,0-.005.306.153.153,0,0,0,.005-.306m1-3.114a2.058,2.058,0,0,0-.71.712c-.2.287.217.581.458.367a3.164,3.164,0,0,1,.561-.527c.36-.192.052-.738-.308-.551m.174-2.281a2.036,2.036,0,0,1-.666.372c-.236.087-.484.13-.59.378a.161.161,0,0,0,.072.186c.243.153.557-.005.794-.1a2.394,2.394,0,0,0,.746-.461c.243-.228-.11-.589-.355-.369m1.771-3.3c-.961.225-1.9.5-2.846.782a13.2,13.2,0,0,0-2.784.861.216.216,0,0,0,.046.393c1.855.355,4.152-.8,5.723-1.694a.187.187,0,0,0-.138-.342m32.193,14.356a.347.347,0,0,0,.321-.584l.011-.067a.3.3,0,0,0-.068-.268.28.28,0,0,0-.435.047c-.225.272-.265.784.171.872m1.919,1.92a1.511,1.511,0,0,1,.14-.6,1.334,1.334,0,0,0,.244-.665.166.166,0,0,0-.2-.162c-.528.15-.715.935-.731,1.412a.275.275,0,0,0,.55.01m1.706,2c.291-.669.473-1.388.712-2.079a6.973,6.973,0,0,0,.576-2.093.225.225,0,0,0-.378-.164,4.751,4.751,0,0,0-.851,1.743,10.546,10.546,0,0,0-.612,2.509c-.027.345.434.353.552.085m12.882-12.82c.008-.051.014-.1.024-.152a.132.132,0,1,0-.258,0c.006.049.013.1.02.153.01.1.2.109.214,0m2.088,1.3a2.351,2.351,0,0,1,.118-.356,1.545,1.545,0,0,1,.289-.375c.3-.3-.158-.782-.464-.478a1.546,1.546,0,0,0-.581,1.112.328.328,0,0,0,.638.1m.507,1.287a.2.2,0,0,1-.252-.2c-.005-.38.322-.665.526-.962.23-.331.469-.655.7-.987.083-.123.307-.043.249.11a10,10,0,0,1-.479,1.163c-.174.336-.345.77-.743.873m.645,5.2c1.572-1.954,1.847-4.617,2.792-6.878.064-.15-.177-.252-.254-.115a62.8,62.8,0,0,0-2.893,6.778c-.086.193.224.379.355.215M82.908,158.548c-.411-.029-.423.651-.01.638.239-.01.492,0,.645-.212a.186.186,0,0,0,0-.195c-.147-.215-.4-.216-.638-.231m.662-1.748a.335.335,0,0,0-.01.669c.259.006.98.1.986-.317s-.717-.35-.976-.351M82.1,155a8.417,8.417,0,0,0,1.878.1,2.37,2.37,0,0,0,1.5-.34.191.191,0,0,0-.033-.3,3.017,3.017,0,0,0-1.457-.1,14.571,14.571,0,0,0-1.881.1.28.28,0,0,0-.01.537M24.323,109.508a.22.22,0,0,0-.008.44.22.22,0,0,0,.008-.44m-.379-3.261c-.651-.181-.954.57-.974,1.082a.282.282,0,0,0,.564.009.855.855,0,0,1,.131-.5c.1-.138.262-.233.365-.37a.153.153,0,0,0-.086-.225m-.677-1.527a3.634,3.634,0,0,1,.393-1.034c.177-.3.44-.536.59-.853a.154.154,0,0,0-.168-.226c-.846.138-1.226,1.222-1.392,1.944-.086.377.49.547.576.169M24.6,94.782c-1.9,1-4.037,4.67-3.065,6.794.129.286.538.085.484-.195-.5-2.583,1.84-4.235,2.92-6.249a.253.253,0,0,0-.339-.35m3.941-63.621c.25-.177.3-.527.432-.789.1-.209-.206-.4-.312-.19a2.05,2.05,0,0,0-.284.88c0,.076.091.152.164.1m-1.665-.554c-.14.269-.493.613-.425.933a.131.131,0,0,0,.159.094c.284-.11.5-.537.646-.8s-.25-.485-.38-.231m-4.508,2.251c-.149.073-.348-.092-.239-.248a24.182,24.182,0,0,1,2.41-2.892c.456-.474,1.522-1.847,2.315-1.464a.3.3,0,0,1,.1.406,5.9,5.9,0,0,1-.868.675,16.8,16.8,0,0,0-1.28,1.283,8.923,8.923,0,0,1-2.438,2.24m98.416-13.681A1.991,1.991,0,0,0,121,18.7a.117.117,0,1,0-.23-.035c-.015.182-.147.3-.114.492a.069.069,0,0,0,.124.018m1.074,1.25c0-.052.005-.1.009-.157s-.1-.07-.1,0,0,.106.005.158a.045.045,0,0,0,.09,0m1.527.756a.564.564,0,0,1,.161-.09.324.324,0,0,0,.322-.315.32.32,0,0,0-.312-.325.744.744,0,0,0-.527.25c-.211.245.047.672.356.479m18.31,20.3.006-.018c.011-.04.014-.106.024-.149a1.331,1.331,0,0,1,.123-.316c.121-.225.294-.413.407-.642.064-.128,0-.336-.177-.321a1.132,1.132,0,0,0-.875.65.887.887,0,0,0-.03.957.281.281,0,0,0,.522-.161M143.05,43.7a.412.412,0,0,1-.791-.231c.115-.6.465-1.586,1.086-1.843a.27.27,0,0,1,.4.234,2.543,2.543,0,0,1-.316.923c-.128.306-.258.609-.374.918M132.274,82.385c0-.321.043-.631.07-.949a.146.146,0,0,0-.245-.106,1.408,1.408,0,0,0-.324,1.048.25.25,0,0,0,.5.008m1.83,2.566c.015-.624.15-1.279.115-1.9a.146.146,0,0,0-.269-.077,3.928,3.928,0,0,0-.292,1.969.223.223,0,0,0,.446.008m1.772,4.237c.575-2.317,1.459-4.961,1.481-7.351,0-.235-.365-.379-.474-.137a22.949,22.949,0,0,0-1.661,7.389.335.335,0,0,0,.653.1M93.932,58.774l.011-.753a.953.953,0,0,0-.159-.669.216.216,0,0,0-.3-.006.956.956,0,0,0-.181.665l-.014.752a.324.324,0,0,0,.647.011m2.476-.116c-.011-.233-.027-.46-.058-.689a.2.2,0,0,0-.387-.006c-.039.228-.064.455-.082.685-.028.34.543.349.527.01m2.227,1.067a13.431,13.431,0,0,1,.545-2.223,5.707,5.707,0,0,0,.6-1.957.262.262,0,0,0-.44-.191,4.814,4.814,0,0,0-.916,1.926,6,6,0,0,0-.383,2.355c.024.315.531.446.59.09M70.622,55.131c-.134-.139-.125-.372-.276-.512a.167.167,0,0,0-.231,0,.714.714,0,0,0,.016.991c.277.337.8-.153.49-.475m-1.534,1.484c0-.391-.092-1.182-.569-1.269a.16.16,0,0,0-.178.07c-.214.363.107.8.116,1.189a.316.316,0,0,0,.631.01m-3.285.1c.217.348.774.039.556-.312A24.636,24.636,0,0,0,64.683,53.4c-.131-.155-.353.006-.32.179A9.564,9.564,0,0,0,65.8,56.72M50.091,62.634c-.021-.228-.169-.709-.474-.65a.238.238,0,0,0-.177.222c0,.158.1.272.109.418.034.344.575.356.542.009m1.714-.163c.325.134.489-.353.234-.533a1.794,1.794,0,0,1-.358-.374,2.6,2.6,0,0,1-.262-.42.173.173,0,0,0-.3-.005c-.316.592.148,1.112.681,1.332m2.1-1.112c.1.336-.4.449-.518.134-.605-1.586-1.649-3.588-1.471-5.324.023-.212.327-.337.437-.111a15.678,15.678,0,0,1,.768,2.652q.377,1.327.784,2.649M21.269,81.953a.984.984,0,0,0-.554-.926c-.092-.039-.188.07-.163.158a2.96,2.96,0,0,1,.145.76c.008.367.579.378.571.009m-1.062,2.2a3.612,3.612,0,0,0-.549-2.015.149.149,0,0,0-.249.061,3.506,3.506,0,0,0,.38,2c.077.2.44.21.417-.048m-1.45,1.66c-.1-.4-.212-.78-.346-1.164a3.513,3.513,0,0,0-.471-1.16.217.217,0,0,0-.361.088,3.183,3.183,0,0,0,.767,2.4.225.225,0,0,0,.412-.163m-3.941-5.478a41.024,41.024,0,0,1,1.408,4.476c.349,1.151,1.173,2.53,1.134,3.731a.131.131,0,0,1-.2.109c-1.019-.733-1.35-2.51-1.694-3.644a19.234,19.234,0,0,1-.964-4.593.169.169,0,0,1,.313-.078m.46,20.7a1.666,1.666,0,0,0-.327.015.293.293,0,0,0-.009.561,1.743,1.743,0,0,0,.325.025.3.3,0,0,0,.011-.6m.34,2.679a2.038,2.038,0,0,0,.249.01.319.319,0,0,0,.009-.638,2.313,2.313,0,0,0-.248,0,.314.314,0,0,0-.01.627m.622.866a2.94,2.94,0,0,0-.771-.08.325.325,0,0,0-.011.648,3.12,3.12,0,0,0,.774-.053.269.269,0,0,0,.009-.516m104.892,62.245c-.029.161-13.465,55.937-43.432,53.955C47.785,218.8,38.525,165.9,38.5,165.756a1.345,1.345,0,0,1,.967-1.534l26.584-7.49a1.377,1.377,0,0,1,.6-.019c1.278-.5,4.189-1.609,6.143-2.159a9.108,9.108,0,0,0-1.716-1.617,1.338,1.338,0,0,1-.244-.2c-20.247-2.008-32.757-10.5-40.659-20.573a66.557,66.557,0,0,1-11.187-22.8,9.615,9.615,0,0,1-1.973.174c-4.4-.075-8.165-3.142-11.045-7.3a37.379,37.379,0,0,1-5.5-13.308A22.437,22.437,0,0,1,0,84.389c.123-7.463,6.3-7.907,9.506-7.639A83.594,83.594,0,0,1,8.76,57.7c1.058-13.372,5.627-25.555,14.294-32.2l-8.619-1.02a1.344,1.344,0,0,1-.238-2.618l14.953-4.937L37.664,4.1a1.339,1.339,0,0,1,2.452.768h.014L40,12.837c1.5-1.16,3.041-2.226,4.607-3.223C58.929.586,76.359-1.817,92.985,1.29A75.93,75.93,0,0,1,136.5,26.025a68.356,68.356,0,0,1,5.324,7.108l10.627-.645a1.342,1.342,0,0,1,1.418,1.263,1.288,1.288,0,0,1-.187.78l-7.032,12.841,3.023,8.577a1.309,1.309,0,0,1-.306,1.384l-6.648,6.772a125.013,125.013,0,0,1-.187,14.731c3.181-.135,9.7.5,9.574,8.1a23.85,23.85,0,0,1-.355,3.482,39.807,39.807,0,0,1-5.145,13.6c-2.686,4.306-6.2,7.467-10.162,7.4v.014c-.1,0-.2-.011-.308-.016-3.078,14.407-10.527,36.063-42.317,40.824a1.369,1.369,0,0,1-.225.21,15.8,15.8,0,0,0-2.544,2.259c2.321.617,6.811,2.351,7.752,2.717l21.493,7.811a1.336,1.336,0,0,1,.837,1.589M93.767,158.4h0c1.4.507,2.81,1.047,3.6,1.347l.317,1.2c2.218,8.336,4.1,15.345.723,24.5a91.285,91.285,0,0,0-6.771-7.563,59.389,59.389,0,0,0-6.345-5.341,15.081,15.081,0,0,0,6.229-2.284,8.452,8.452,0,0,0,4.143-6.8,7.693,7.693,0,0,0-1.892-5.065m55.645-71.51h0a20.546,20.546,0,0,1-.321,3.094,36.791,36.791,0,0,1-4.764,12.61c-2.18,3.492-4.857,6.069-7.644,6.139q.226-1.164.425-2.232c.181-.986.35-1.895.516-2.726a.9.9,0,0,0,.044-.094c.447-1.308.858-2.639,1.247-3.985a6.807,6.807,0,0,1,1.221-1.16,3.984,3.984,0,0,1,2.923-.774.671.671,0,1,0,.185-1.33,5.209,5.209,0,0,0-3.677.875c.791-3.055,1.435-6.2,1.935-9.407a4.06,4.06,0,0,1,.731-1.091c.767-.767,1.945-.277,4.026,1.834a.666.666,0,0,0,.944-.94c-2.388-2.434-4.019-3.107-5.341-2.3.038-.278.08-.552.112-.83.125-1,.233-2.013.33-3.027,2.193-.154,7.2.082,7.108,5.348M11.437,57.906h0c1.111-14.045,6.2-26.623,15.99-32.077l.1-.052a1.344,1.344,0,0,0,.513-1.824,1.313,1.313,0,0,0-1.011-.69l-6.265-.738,9.673-3.193a1.313,1.313,0,0,0,.723-.58l6.2-9.34-.106,6.277a1.345,1.345,0,0,0,2.3.968,56.28,56.28,0,0,1,6.479-4.769C59.759,3.239,76.5.946,92.5,3.937a73.287,73.287,0,0,1,41.968,23.832,63.761,63.761,0,0,1,5.52,7.475,1.359,1.359,0,0,0,1.242.628l8.952-.552L144,46.6a1.383,1.383,0,0,0-.061,1.172l2.932,8.28-6.483,6.586a1.416,1.416,0,0,0-.392,1.017,119.662,119.662,0,0,1-.268,16.575.689.689,0,0,0-.005.072c-.118,1.321-.248,2.637-.411,3.94a99.579,99.579,0,0,1-2.736,13.884,61.545,61.545,0,0,0-9.4-20.472C122.961,71.966,117.6,67.645,111,65.81a30.119,30.119,0,0,0-.329-14.244,46.654,46.654,0,0,0-7.352-14.713,1.34,1.34,0,0,0-1.867-.327,1.326,1.326,0,0,0-.523,1.46,42.975,42.975,0,0,1,2.029,14.031,24.559,24.559,0,0,1-2.977,10.5c-5.89-.758-11.663-1.1-17.436-1.437s-11.521-.677-17.462-1.45a47.181,47.181,0,0,1-4.163-11.265A69.108,69.108,0,0,1,59.227,35.05a1.345,1.345,0,0,0-2.634-.34,54.653,54.653,0,0,0-2.529,15.032,39.678,39.678,0,0,0,1.857,12.95l-7.207,3.194a79.3,79.3,0,0,0-5.656-12.179,69.783,69.783,0,0,1-5.909-13.126,1.338,1.338,0,0,0-1.67-.9,1.355,1.355,0,0,0-.966,1.385A84.649,84.649,0,0,0,36.33,56.384,85.643,85.643,0,0,1,38.1,70.491,39.6,39.6,0,0,0,23.9,82.471a35.986,35.986,0,0,0-6.1,13.276c-5.07-10.97-7.381-24.993-6.371-37.842m5.621,48.943h0c-3.408-.057-6.462-2.628-8.869-6.13A34.172,34.172,0,0,1,3.1,88.428a19.5,19.5,0,0,1-.4-3.994c.09-5.389,5.254-5.21,7.278-4.934q.491,2.635,1.146,5.2c-1.687-1.758-3.53-2.232-5.737-.68a.665.665,0,0,0-.163.926.68.68,0,0,0,.939.164c1.883-1.33,3.482-.4,4.995,1.768A19.137,19.137,0,0,1,12.2,88.547q.9,2.918,2.029,5.662a6.015,6.015,0,0,0-1.807-.843,2.99,2.99,0,0,0-2,.183,3.2,3.2,0,0,0-1.242,1.11.674.674,0,0,0,1.1.774,1.9,1.9,0,0,1,.725-.675,1.7,1.7,0,0,1,1.106-.077,4.21,4.21,0,0,1,1.456.7,10.867,10.867,0,0,1,1.974,1.839q.493,1.048,1.017,2.055c.449,2.179.988,4.717,1.708,7.487a7.3,7.3,0,0,1-1.213.087M32.288,130.5h0c-7.879-10.018-10.967-21.737-12.682-29.758a1.292,1.292,0,0,0,.2-.588,33.008,33.008,0,0,1,6.265-16.115A37.1,37.1,0,0,1,39.981,72.557,1.375,1.375,0,0,0,40.8,71.33,84.236,84.236,0,0,0,38.979,55.9c-.382-2.08-.765-4.161-1.079-6.28.886,1.8,1.839,3.587,2.793,5.353A70.2,70.2,0,0,1,46.6,68.1a.8.8,0,0,0,.049.163,1.359,1.359,0,0,0,1.782.69l9.69-4.3a1.357,1.357,0,0,0,.728-1.685,36.725,36.725,0,0,1-2.109-13.184,44.183,44.183,0,0,1,.547-6.162c.265,1.823.6,3.607,1.016,5.353a49.188,49.188,0,0,0,4.735,12.539,1.34,1.34,0,0,0,1,.677c6.208.858,12.278,1.2,18.348,1.56,5.976.355,11.95.712,18.132,1.556V65.3a1.338,1.338,0,0,0,1.346-.651,27.239,27.239,0,0,0,3.765-12.493,35.555,35.555,0,0,0-.367-7.025,35.383,35.383,0,0,1,2.8,7.12,27.793,27.793,0,0,1,.018,14.211l-.014.042A1.334,1.334,0,0,0,109.1,68.1c6.507,1.456,11.786,5.585,15.91,11.152,4.91,6.636,8.191,15.286,10,23.921-.178.87-.359,1.811-.543,2.831-2.75,14.6-8.342,44.329-53.77,44.511-25.167.1-39.725-8.962-48.405-20.007m40.928,29.663h0a7.844,7.844,0,0,1,2.083-1.845,11.467,11.467,0,0,1,1.2,4.339,1.343,1.343,0,0,0,2.683-.131A14.6,14.6,0,0,0,77.23,156.2a20.373,20.373,0,0,0-2.209-3.152c1.835.1,3.723.148,5.681.14q4.463-.019,8.445-.387a18.2,18.2,0,0,0-1.977,2.578c-.028.039-.051.077-.075.118-.057.092-.116.179-.173.272a15.808,15.808,0,0,0-2.23,6.848,1.343,1.343,0,1,0,2.677.22,13.155,13.155,0,0,1,1.45-4.948,8.951,8.951,0,0,1,2.867,2.2,5.059,5.059,0,0,1,1.279,3.322,5.843,5.843,0,0,1-2.946,4.613,14.387,14.387,0,0,1-15.1-.253,5.852,5.852,0,0,1-2.778-4.708,4.84,4.84,0,0,1,1.072-2.9m.148,9.8a8.457,8.457,0,0,1-3.913-6.936,7.552,7.552,0,0,1,1.638-4.5,9.71,9.71,0,0,1,.8-.906c-1.542.535-3.362,1.239-4.287,1.6-.329,1.112-.669,2.156-.981,3.176-2.362,7.422-4.452,13.975-1.711,22.481a92.7,92.7,0,0,1,7.007-7.318,60.288,60.288,0,0,1,6.738-5.278,14.7,14.7,0,0,1-5.289-2.322m-31.978-3.486h0l23.178-6.524c-.172.545-.344,1.092-.517,1.635-2.7,8.509-5.063,15.932-.887,26.4a1.355,1.355,0,0,0,1.753.757,1.553,1.553,0,0,0,.532-.383,105.138,105.138,0,0,1,8.269-8.818,64.225,64.225,0,0,1,8-6.087c-.437,4.639-.48,9.319-.986,13.962-.527,4.875-1.972,9.885-1.984,14.778a.272.272,0,0,0,.531.083c1.426-4.349,1.505-9.4,2.022-13.925a100.158,100.158,0,0,0,1.043-14.643,63.109,63.109,0,0,1,7.434,6.1,103.186,103.186,0,0,1,7.97,9.091,1.536,1.536,0,0,0,.518.4,1.354,1.354,0,0,0,1.778-.7c4.75-10.828,2.855-18.563.411-27.72l17.78,6.457c-2.084,7.832-15.048,52.436-40.362,50.759-25.283-1.676-34.936-43.951-36.478-51.627M107.708,114a5.038,5.038,0,0,0,.725,4.968,13.473,13.473,0,0,0,11.4,5.5,4.495,4.495,0,0,0,3.615-7.509,12.447,12.447,0,0,0-5.009-4.18,12.636,12.636,0,0,0-6.39-1.32,5.051,5.051,0,0,0-4.34,2.542m1.217.574a3.737,3.737,0,0,0,.626,3.646,10.991,10.991,0,0,0,4.438,3.686l.081.04a10.986,10.986,0,0,0,5.638,1.173,3.186,3.186,0,0,0,2.623-5.425,11.062,11.062,0,0,0-4.435-3.686c-.029-.014-.054-.027-.082-.043a11.278,11.278,0,0,0-5.64-1.172,3.8,3.8,0,0,0-3.248,1.78M46.9,110.366a12.613,12.613,0,0,0-6.43,1.1,12.441,12.441,0,0,0-5.148,4.009,4.5,4.5,0,0,0,3.363,7.628,12.513,12.513,0,0,0,6.431-1.12,12.408,12.408,0,0,0,5.145-4,4.5,4.5,0,0,0-3.362-7.626m2.27,6.84a3.185,3.185,0,0,0-2.427-5.509,11.275,11.275,0,0,0-5.688.983l-.082.038a11.183,11.183,0,0,0-4.558,3.533,3.186,3.186,0,0,0,2.439,5.512,11,11,0,0,0,5.675-.982l.082-.04a10.965,10.965,0,0,0,4.558-3.534m42.14-37.958a.668.668,0,0,0,.934-.131A8.96,8.96,0,0,1,95.8,76.239a13.959,13.959,0,0,1,12.673,1.155,3.574,3.574,0,0,1,1.138,1.232.675.675,0,0,0,.828.389.666.666,0,0,0,.432-.841,10.1,10.1,0,0,0-5.6-6.546,10.289,10.289,0,0,0-5.308-.723,11.576,11.576,0,0,0-4.946,1.763,8.193,8.193,0,0,0-3.969,5.982.659.659,0,0,0,.273.6M95.747,73.8a8,8,0,0,0-2.412,2.343,11.005,11.005,0,0,1,1.9-1.127,14.33,14.33,0,0,1,7.736-1,15.53,15.53,0,0,1,5.147,1.6,7.958,7.958,0,0,0-3.391-2.752,8.915,8.915,0,0,0-4.623-.616A10.124,10.124,0,0,0,95.747,73.8M45.971,78.49a.682.682,0,0,0,.945-.133,8.84,8.84,0,0,1,3.538-2.878,13.962,13.962,0,0,1,12.669,1.155,3.6,3.6,0,0,1,1.139,1.232.675.675,0,0,0,.828.391.666.666,0,0,0,.432-.842,10.1,10.1,0,0,0-5.6-6.546,10.277,10.277,0,0,0-5.308-.722,11.555,11.555,0,0,0-4.934,1.762A8.21,8.21,0,0,0,45.7,77.892a.655.655,0,0,0,.273.6M50.4,73.041a8.011,8.011,0,0,0-2.41,2.343,11.062,11.062,0,0,1,1.906-1.127,14.343,14.343,0,0,1,7.736-1,15.552,15.552,0,0,1,5.145,1.6A8,8,0,0,0,59.4,72.1a9,9,0,0,0-4.637-.617A10.234,10.234,0,0,0,50.4,73.041m25.88,41.872a6.56,6.56,0,0,0,2.707.731,6.479,6.479,0,0,0,2.771-.423,5.484,5.484,0,0,0,3.567-5.425,1.34,1.34,0,1,0-2.681,0,2.949,2.949,0,0,1-1.855,2.934,4.02,4.02,0,0,1-1.647.241,4.068,4.068,0,0,1-1.609-.432,2.878,2.878,0,0,1-1.512-3.042A1.348,1.348,0,0,0,74.845,108a1.329,1.329,0,0,0-1.489,1.175,5.434,5.434,0,0,0,2.922,5.734M80.4,147.124a26.181,26.181,0,0,1-10.8-2.053c-8.775-3.7-15.891-12.378-16.471-26.008a1.352,1.352,0,0,1,1.289-1.405c.04,0,.095,0,.134,0l49.01.094a1.34,1.34,0,0,1,1.337,1.313c.24,13.031-5.829,21.538-13.9,25.513a25.324,25.324,0,0,1-10.6,2.543m-24.49-26.774h0l46.3.075c-.134,8.041-2.946,14.057-7.121,18.055a12.668,12.668,0,0,0-5.824-6.874,18.593,18.593,0,0,0-8.822-2.438,18.067,18.067,0,0,0-9.1,2.016,14.087,14.087,0,0,0-6.716,7.685c-4.664-4.007-8.054-10.175-8.716-18.518M66.88,140.57a23.022,23.022,0,0,0,3.761,2.026,23.591,23.591,0,0,0,9.708,1.848,22.537,22.537,0,0,0,9.471-2.28,21.288,21.288,0,0,0,3.056-1.836,1.425,1.425,0,0,1-.139-.337,9.877,9.877,0,0,0-4.814-6.062,16.042,16.042,0,0,0-7.551-2.08,15.53,15.53,0,0,0-7.762,1.7,11.426,11.426,0,0,0-5.665,6.871,1.235,1.235,0,0,1-.066.15M55.7,101.527c1.965.114,3.721-2.578,3.927-6.01s-1.229-6.325-3.194-6.438-3.72,2.577-3.926,6.01,1.227,6.325,3.193,6.438" transform="translate(0 0.001)" fill="#281a15" fill-rule="evenodd"/>
      <path id="Path_50" data-name="Path 50" d="M0,6.523C1.541,14.2,11.193,56.474,36.477,58.15,61.79,59.828,74.754,15.224,76.84,7.393L59.059.935c2.446,9.157,4.34,16.892-.411,27.72a1.355,1.355,0,0,1-2.3.3C50.659,21.89,47.8,18.7,40.947,13.763A99.812,99.812,0,0,1,39.9,28.407c-.516,4.527-.6,9.575-2.022,13.923a.272.272,0,0,1-.531-.082c.013-4.894,1.459-9.9,1.986-14.779.5-4.642.547-9.323.985-13.961-7.246,4.824-10.2,7.882-16.264,14.905a1.354,1.354,0,0,1-2.284-.375c-4.177-10.47-1.816-17.895.886-26.4.174-.542.346-1.089.517-1.634ZM39.053,51.435c.432,0,.861-.263,1.226.091.272.262-.5.59-1.237.6a.346.346,0,0,1,.011-.691m-.411,2.357a5.189,5.189,0,0,1,1.213-.265c.238.04.183.64-.527.718a2.171,2.171,0,0,1-.694-.052.209.209,0,0,1,.008-.4m-1.6,2.772c1.082-.221,2.178-.327,3.256-.554,1-.21,1.953-.6,2.97-.712.216-.025.234.27.092.369-1.751,1.2-4.257,1.3-6.294,1.087-.1-.01-.138-.166-.024-.191M43.972,33.8a1.409,1.409,0,0,1-1.962.774,2,2,0,0,1-.4-2.975c-.856-.216-.078-1.349,1.435-.98,1.4.343,1.539,2.031.928,3.181m.943-10.556a1.745,1.745,0,0,1-2.673-.871,2.354,2.354,0,0,1,.264-1.816.331.331,0,0,1,.045-.258c1.474-1.9,4.053,1.629,2.364,2.945M16.749,11.641a.152.152,0,0,1,0-.3.152.152,0,0,1,0,.3m1.316-2.869A3.127,3.127,0,0,0,17.5,9.3c-.241.215-.657-.081-.459-.368a2.044,2.044,0,0,1,.71-.71c.36-.188.669.359.31.55m.22-2.463c-.274.258-1.173.8-1.538.567a.163.163,0,0,1-.073-.186c.171-.4.731-.282,1.256-.75.245-.22.6.142.355.368m1.553-3.322c-1.57.9-3.868,2.05-5.723,1.695a.217.217,0,0,1-.045-.394,13.134,13.134,0,0,1,2.786-.859c.947-.282,1.886-.557,2.845-.782a.186.186,0,0,1,.138.341M68.4,8.1c0,.016-.182.267-.234-.155a.132.132,0,1,1,.258,0c-.01.051-.015.1-.024.152m2.088,1.3c-.2.581-1.3.019-.057-1.21.306-.3.766.173.464.479a1.242,1.242,0,0,0-.407.731M71,10.688a.2.2,0,0,1-.252-.2c-.005-.38.322-.665.526-.962.23-.332.469-.655.7-.987.083-.123.307-.043.249.109-.2.532-.629,1.883-1.222,2.037m.289,4.982a63.156,63.156,0,0,1,2.893-6.778c.078-.135.319-.035.254.115-.945,2.262-1.22,4.924-2.792,6.88-.13.164-.44-.021-.355-.216" transform="translate(41.386 159.954)" fill="#76b47e" fill-rule="evenodd"/>
      <path id="Path_51" data-name="Path 51" d="M56.414,65.866a2.879,2.879,0,0,0,1.512,3.042c1.912,1.01,5.114.374,5.111-2.744a1.34,1.34,0,0,1,2.681.005c.009,5.236-5.362,7.036-9.045,5.116a5.432,5.432,0,0,1-2.922-5.734,1.326,1.326,0,0,1,1.489-1.174,1.347,1.347,0,0,1,1.174,1.489M34.95,74.035l49.008.094A1.341,1.341,0,0,1,85.3,75.442c.24,13.031-5.829,21.538-13.9,25.513a25.324,25.324,0,0,1-10.6,2.542A26.177,26.177,0,0,1,50,101.446c-8.775-3.7-15.891-12.378-16.471-26.008a1.344,1.344,0,0,1,1.423-1.4M12.682,86.877c8.681,11.044,23.238,20.113,48.405,20.008,45.428-.182,51.019-29.916,53.77-44.513q.277-1.528.542-2.83c-1.8-8.636-5.086-17.285-10-23.922-4.124-5.565-9.4-9.694-15.911-11.15a1.332,1.332,0,0,1-1.011-1.634,27.793,27.793,0,0,0-.018-14.211,35.384,35.384,0,0,0-2.8-7.12c1.033,7.084.207,13.264-3.4,19.517a1.338,1.338,0,0,1-1.346.651v.013c-12.445-1.7-24.184-1.418-36.482-3.117a1.341,1.341,0,0,1-1-.676A52.645,52.645,0,0,1,37.685,0a38.747,38.747,0,0,0,1.562,19.346,1.358,1.358,0,0,1-.728,1.685l-9.69,4.3A1.346,1.346,0,0,1,27,24.473a70.149,70.149,0,0,0-5.911-13.126C20.133,9.58,19.18,7.8,18.293,5.993c1.053,7.086,2.959,14.356,2.9,21.71a1.372,1.372,0,0,1-.816,1.226A37.1,37.1,0,0,0,6.469,40.418,33.008,33.008,0,0,0,.2,56.532a1.3,1.3,0,0,1-.2.588c1.715,8.02,4.8,19.739,12.682,29.756m66.174-28.26c-1.964-.114-3.385-2.993-3.193-6.44.206-3.432,1.962-6.122,3.926-6.009s3.4,2.993,3.194,6.438-1.962,6.125-3.927,6.01M15.722,71.854A13.425,13.425,0,0,1,27.3,66.739c4.312.537,5.9,4.048,3.362,7.626A13.484,13.484,0,0,1,19.084,79.48c-4.307-.55-5.9-4.029-3.362-7.626M72.642,35.49a.674.674,0,0,1-1.206-.464,8.191,8.191,0,0,1,3.969-5.982,11.57,11.57,0,0,1,4.946-1.763c4.938-.571,9.194,1.978,10.911,7.269A.67.67,0,0,1,90,35a3.6,3.6,0,0,0-1.138-1.231,12.954,12.954,0,0,0-5.679-2.049c-3.832-.5-8.123.416-10.544,3.77m-45.332-.758a.682.682,0,0,1-.945.133.654.654,0,0,1-.273-.6C26.461,30,30.823,27,35.005,26.521c4.936-.57,9.195,1.978,10.91,7.269a.669.669,0,0,1-1.259.45,3.6,3.6,0,0,0-1.139-1.231,12.9,12.9,0,0,0-5.678-2.048,12.982,12.982,0,0,0-6.993.892,8.826,8.826,0,0,0-3.536,2.878m12.712,17.16c-.206,3.432-1.962,6.124-3.927,6.01s-3.385-2.994-3.194-6.438c.207-3.433,1.963-6.125,3.927-6.01s3.4,2.993,3.194,6.438M4.717,65.882a.219.219,0,0,1-.008.439.219.219,0,0,1,.008-.439M3.363,63.7c.02-.511.324-1.263.973-1.081a.153.153,0,0,1,.087.225c-.2.268-.484.273-.5.866a.282.282,0,0,1-.564-.01m1.28-4.5c-.268.568-.7.656-.983,1.888-.087.378-.662.207-.576-.169.49-2.165,1.763-2.147,1.56-1.719m.69-7.7c-1.081,2.012-3.424,3.665-2.92,6.249.054.279-.355.479-.484.195-.972-2.123,1.168-5.79,3.064-6.795a.254.254,0,0,1,.34.351M88.828,75.34a4.5,4.5,0,0,1,3.614-7.51,13.422,13.422,0,0,1,11.4,5.5c2.414,3.682.708,7.106-3.615,7.51a13.47,13.47,0,0,1-11.4-5.5" transform="translate(19.606 43.627)" fill="#e5b496" fill-rule="evenodd"/>
      <path id="Path_52" data-name="Path 52" d="M53.875,56.936c11.842,1.541,23.08,1.365,34.9,2.888a24.571,24.571,0,0,0,2.978-10.5,42.985,42.985,0,0,0-2.03-14.031,1.344,1.344,0,0,1,2.391-1.131,46.643,46.643,0,0,1,7.351,14.712,30.125,30.125,0,0,1,.329,14.246c14.069,3.9,21.948,18.827,25.58,32.315a99.853,99.853,0,0,0,3.152-17.9,119.641,119.641,0,0,0,.268-16.574,1.408,1.408,0,0,1,.392-1.017l6.483-6.588-2.932-8.28a1.376,1.376,0,0,1,.061-1.17l6.182-11.28-8.954.551a1.356,1.356,0,0,1-1.241-.627C118.244,15.9,100.4,4.825,81.293,1.245,65.3-1.744,48.555.549,34.832,9.2a56.58,56.58,0,0,0-6.479,4.769A1.345,1.345,0,0,1,26.05,13l.106-6.277L19.95,16.061a1.3,1.3,0,0,1-.722.58L9.554,19.835l6.265.738a1.351,1.351,0,0,1,.4,2.566C6.431,28.592,1.344,41.171.232,55.216-.777,68.064,1.535,82.087,6.6,93.056,9.123,81.917,17.08,72.69,26.9,67.8a85.644,85.644,0,0,0-1.772-14.107A84.621,84.621,0,0,1,23.31,38.372a1.349,1.349,0,0,1,2.635-.48C28.526,46.717,34.492,54.2,37.51,63.2L44.717,60c-2.977-9.2-2.144-18.568.671-27.983a1.347,1.347,0,0,1,2.634.34c.317,8.609,1.867,17.063,5.853,24.577M17.769,27.683c-.13.26-.181.612-.432.789-.072.052-.162-.023-.163-.1a2.051,2.051,0,0,1,.284-.878c.106-.21.415-.02.311.19m112.2,11.274A.887.887,0,0,1,130,38c.48-.856,1.259-.744,1.052-.327-.112.229-.286.416-.408.641l-.153.483a.28.28,0,0,1-.521.161m1.084,1.825c.363-1.882,1.48-2.169,1.48-1.608a2.5,2.5,0,0,1-.316.923c-.126.306-.258.608-.373.918a.413.413,0,0,1-.791-.233M82.093,55.32c.014-.766.359-.816.487-.659.238.3.154.958.147,1.422a.323.323,0,0,1-.646-.01Zm2.582.638c.019-.231.043-.458.083-.686a.2.2,0,0,1,.385.006c.033.23.047.458.058.689.018.34-.554.33-.527-.009m2.165.987a5.973,5.973,0,0,1,.383-2.355,4.812,4.812,0,0,1,.916-1.927.262.262,0,0,1,.44.191,5.714,5.714,0,0,1-.6,1.958,13.29,13.29,0,0,0-.545,2.222c-.059.358-.566.225-.59-.088m-27.929-5.02c.27-.234.393.4.507.517.31.321-.215.813-.49.475a.714.714,0,0,1-.016-.992m-1.775.8c.12-.2.743-.033.747,1.2a.316.316,0,0,1-.631-.009c-.009-.388-.331-.828-.116-1.191m-1.982.993c.217.35-.339.66-.557.312a9.581,9.581,0,0,1-1.438-3.145c-.033-.172.188-.334.32-.178a24.543,24.543,0,0,1,1.676,3.011M42.7,58.669c.1.336-.4.447-.518.134-.605-1.587-1.648-3.59-1.47-5.325.021-.212.326-.336.437-.11a15.758,15.758,0,0,1,.767,2.652q.379,1.327.784,2.649m-1.862.579c.254.179.091.666-.235.532-1.3-.533-.652-1.782-.384-1.326Zm-24.782-31.1c-.145.257-.361.685-.646.794a.129.129,0,0,1-.159-.092c-.068-.32.284-.664.425-.933.13-.254.523-.02.38.231m-2.451-.22a8.961,8.961,0,0,1-2.438,2.24c-.15.072-.348-.092-.239-.249a24.162,24.162,0,0,1,2.41-2.892c.455-.474,1.522-1.845,2.314-1.462a.294.294,0,0,1,.1.4,5.9,5.9,0,0,1-.868.676,16.569,16.569,0,0,0-1.28,1.283m95.854-11.459c-.034-.19.1-.31.114-.493a.117.117,0,1,1,.23.035,1.927,1.927,0,0,1-.221.474.068.068,0,0,1-.123-.016m1.108,1.266c0-.052,0-.1-.005-.158l.095.159a.045.045,0,0,1-.09,0m2.1.353c0,.293-.216.235-.483.4-.31.195-.568-.234-.356-.478.284-.335.847-.344.839.075m7.906,61.6c.048-1.3.586-1.162.569-.942-.028.319-.072.628-.071.949a.249.249,0,0,1-.5-.008m1.883,2.564a3.936,3.936,0,0,1,.291-1.968.146.146,0,0,1,.269.077c.037.621-.1,1.274-.115,1.9a.223.223,0,0,1-.445-.009m1.563,4.146a22.952,22.952,0,0,1,1.662-7.388c.109-.244.478-.1.474.136-.023,2.39-.906,5.034-1.481,7.351a.336.336,0,0,1-.655-.1M38.237,59.517c.005-.344.574-.358.651.427.033.348-.508.335-.542-.01-.014-.145-.111-.26-.109-.417M9.511,78.337a.985.985,0,0,1,.554.926c.006.368-.565.358-.573-.01a2.916,2.916,0,0,0-.144-.76c-.025-.087.071-.2.163-.157M8.455,79.448A3.616,3.616,0,0,1,9,81.462c.024.258-.339.253-.416.049a3.511,3.511,0,0,1-.382-2,.15.15,0,0,1,.25-.061M7.207,81.959c.133.384.245.768.345,1.163a.224.224,0,0,1-.411.164,3.181,3.181,0,0,1-.767-2.4.217.217,0,0,1,.361-.088,3.547,3.547,0,0,1,.471,1.162M3.3,77.724a.168.168,0,0,1,.313-.078A40.744,40.744,0,0,1,5.02,82.121c.349,1.15,1.174,2.529,1.135,3.73a.131.131,0,0,1-.2.109c-1.02-.732-1.35-2.509-1.695-3.643A19.183,19.183,0,0,1,3.3,77.724" transform="translate(11.204 2.69)" fill="#d98d12" fill-rule="evenodd"/>
      <path id="Path_53" data-name="Path 53" d="M14.788,3.445C11.847-.674,6.283-.867,2.41,1.636A8.011,8.011,0,0,0,0,3.979C4.132.9,10.585,1.193,14.788,3.445" transform="translate(47.988 71.406)" fill="#d98d12" fill-rule="evenodd"/>
      <path id="Path_54" data-name="Path 54" d="M11.4.687a9.836,9.836,0,0,0-8.985.942A7.991,7.991,0,0,0,0,3.972C4.132.89,10.584,1.187,14.789,3.439A7.975,7.975,0,0,0,11.4.687" transform="translate(93.334 72.172)" fill="#d98d12" fill-rule="evenodd"/>
      <path id="Path_55" data-name="Path 55" d="M13.656,4.932A12.122,12.122,0,0,0,3.5.033,3.792,3.792,0,0,0,.251,1.811,3.739,3.739,0,0,0,.877,5.459a12.093,12.093,0,0,0,10.157,4.9c3.378-.313,4.438-2.658,2.623-5.425" transform="translate(108.674 112.759)" fill="#d88b73" fill-rule="evenodd"/>
      <path id="Path_56" data-name="Path 56" d="M39.18,18.13c4.175-4,6.987-10.014,7.121-18.055L0,0C.662,8.342,4.052,14.51,8.716,18.516,13.7,4.92,35.241,6.349,39.18,18.13M6.06,11.373a.176.176,0,0,1,.166.226c-.177.42-.469.493-.484,1.055a.338.338,0,0,1-.675-.011c.021-.571.324-1.27.993-1.27m2.19,1.586a.213.213,0,0,1,.207.216,1.909,1.909,0,0,1-.372.818c-.135.248-.255.507-.373.762-.164.353-.686.083-.6-.264.14-.569.425-1.5,1.136-1.532" transform="translate(55.911 120.351)" fill="#281a15" fill-rule="evenodd"/>
      <path id="Path_57" data-name="Path 57" d="M21.042,2.088A16.434,16.434,0,0,0,5.731,1.71,11.415,11.415,0,0,0,.066,8.58,1.463,1.463,0,0,1,0,8.73a23.122,23.122,0,0,0,25.995-.243,1.352,1.352,0,0,1-.138-.337,9.89,9.89,0,0,0-4.816-6.062" transform="translate(66.88 131.839)" fill="#c6302a" fill-rule="evenodd"/>
      <path id="Path_58" data-name="Path 58" d="M3.4,10.125A12.092,12.092,0,0,0,13.713,5.569C15.639,2.854,14.6.479,11.285.06A11.271,11.271,0,0,0,5.6,1.042C-.684,3.906-2.047,9.437,3.4,10.125" transform="translate(35.462 111.638)" fill="#d88b73" fill-rule="evenodd"/>
      <path id="Path_59" data-name="Path 59" d="M6.486,15.27c1.311-1.917,3.289-1.615,5.049-.451q-1.119-2.741-2.03-5.662A19.528,19.528,0,0,0,8.461,7.49c-1.513-2.168-3.113-3.1-5-1.768A.669.669,0,0,1,2.69,4.631C4.9,3.079,6.739,3.554,8.427,5.312Q7.773,2.749,7.281.11C5.256-.165.093-.345,0,5.045-.083,10.066,2.516,17,5.495,21.33c2.408,3.5,5.463,6.072,8.87,6.13a7.187,7.187,0,0,0,1.213-.088c-.72-2.769-1.26-5.307-1.708-7.487q-.523-1.009-1.017-2.054a10.916,10.916,0,0,0-1.974-1.84c-1.14-.794-2.412-1.226-3.289.053a.674.674,0,0,1-1.1-.772m5.77,6.392a1.582,1.582,0,0,1,.327-.014c.379.006.5.757-.336.575a.293.293,0,0,1,.009-.561m.677,2.039a2.336,2.336,0,0,1,.249,0c.377.008.538.733-.259.629a.314.314,0,0,1,.01-.627m-.158,1.412a3.048,3.048,0,0,1,.77.08.269.269,0,0,1-.008.516,3.064,3.064,0,0,1-.774.053.324.324,0,0,1,.011-.648" transform="translate(2.693 79.389)" fill="#e5b496" fill-rule="evenodd"/>
      <path id="Path_60" data-name="Path 60" d="M4.821,6.387c-.5,3.21-1.145,6.352-1.936,9.407a5.212,5.212,0,0,1,3.678-.875.672.672,0,0,1-.186,1.331,3.972,3.972,0,0,0-2.922.772,6.721,6.721,0,0,0-1.221,1.16c-.391,1.346-.8,2.678-1.249,3.985a.565.565,0,0,1-.044.092L0,27.22c2.787-.07,5.464-2.647,7.644-6.139,2.677-4.29,5.005-10.918,5.085-15.7C12.817.112,7.815-.123,5.621.031L5.18,3.887c1.322-.8,2.954-.131,5.34,2.3a.666.666,0,0,1-.944.939C7.5,5.019,6.317,4.529,5.551,5.3a3.962,3.962,0,0,0-.731,1.089M3.391,18.67a1.107,1.107,0,0,1,1.033.12c.283.1-.12.369-.21.407l-.8.281c-.206.1-.753.3-.815-.087-.07-.441.459-.631.8-.72M2.169,21.893c-.219-.1-.308-.88,1.007-1.187.281-.066.48.369.2.484a1.692,1.692,0,0,0-.55.3c-.158.162-.385.526-.653.4" transform="translate(136.682 81.513)" fill="#e5b496" fill-rule="evenodd"/>
      <path id="Path_61" data-name="Path 61" d="M12.554,9.816A16.541,16.541,0,0,1,17.009,0,100.878,100.878,0,0,1,2.881.246,16.453,16.453,0,0,1,7.046,9.723a1.343,1.343,0,0,1-2.683.131,11.478,11.478,0,0,0-1.2-4.34A7.85,7.85,0,0,0,1.077,7.361C-.932,9.937,0,12.968,2.782,14.974a14.366,14.366,0,0,0,15.1.253c4.63-3.1,3.495-7.752-1.2-10.139a13.147,13.147,0,0,0-1.448,4.948,1.344,1.344,0,0,1-2.678-.22M10.759,6.38c-.415.013-.4-.667.009-.638.239.015.492.016.638.231a.181.181,0,0,1,0,.195c-.153.21-.406.2-.643.212m.661-1.718a.335.335,0,0,1,.011-.669c.259,0,.982-.072.974.351s-.727.324-.986.317M11.838,2.3a8.333,8.333,0,0,1-1.877-.1A.28.28,0,0,1,9.97,1.66a14.6,14.6,0,0,1,1.882-.1,3.013,3.013,0,0,1,1.456.1.191.191,0,0,1,.033.3,2.366,2.366,0,0,1-1.5.34" transform="translate(72.139 152.806)" fill="#e5b496" fill-rule="evenodd"/>
      <path id="Path_62" data-name="Path 62" d="M9.757,12.341C5.207,9.079,4.5,3.809,8.281,0,6.74.533,4.92,1.239,3.994,1.6,1.423,10.319-1.866,17.424,1.3,27.26c4.891-5.549,7.918-8.582,13.744-12.6a14.713,14.713,0,0,1-5.289-2.323" transform="translate(63.606 157.622)" fill="#ecc228" fill-rule="evenodd"/>
      <path id="Path_63" data-name="Path 63" d="M6.23,11.866A15.094,15.094,0,0,1,0,14.151c5.579,4.147,8.466,7.264,13.116,12.9,3.536-9.6,1.272-16.924-1.039-25.708-.786-.3-2.2-.841-3.6-1.347,3.286,3.952,2.163,8.913-2.25,11.866m1.763,6.689c-.435-.088-.394-.6-.169-.873.164-.2.571-.215.49.289a.347.347,0,0,1-.321.584m1.369,1.91c.039-1.273.9-1.681.935-1.25.034.387-.356.58-.385,1.259a.275.275,0,0,1-.55-.009m1.7,1.93a10.592,10.592,0,0,1,.612-2.509,4.761,4.761,0,0,1,.851-1.743.225.225,0,0,1,.378.164A6.947,6.947,0,0,1,12.33,20.4c-.238.69-.421,1.411-.712,2.079-.118.268-.579.26-.552-.085" transform="translate(85.287 158.4)" fill="#ecc228" fill-rule="evenodd"/>
      <path id="Path_64" data-name="Path 64" d="M.13.743a14.39,14.39,0,0,0,1.015,7.17c.723,1.835,1.551,2.561,2.25,2.8a.623.623,0,0,1,.1-.551C4.8,8.247,6.783,8.549,8.543,9.714Q7.424,6.971,6.514,4.052A19.677,19.677,0,0,0,5.47,2.383C3.956.216,2.357-.713.474.615A.676.676,0,0,1,.13.743" transform="translate(5.684 84.496)" fill="#d88b73" fill-rule="evenodd"/>
      <path id="Path_65" data-name="Path 65" d="M4.247,10.523C5.761,9.356,7.189,5.167,6.939,2.342a.671.671,0,0,1-.248-.167C4.611.065,3.432-.426,2.666.341a4.059,4.059,0,0,0-.731,1.091C1.433,4.641.791,7.785,0,10.839a5.2,5.2,0,0,1,3.677-.875.627.627,0,0,1,.57.559" transform="translate(139.568 86.468)" fill="#d88b73" fill-rule="evenodd"/>
      <path id="Path_66" data-name="Path 66" d="M34.009,25.631c9.827-2.147,30.2-2.355,45.975,1.58a9.654,9.654,0,0,1,4.5,1.283,42.674,42.674,0,0,1,8.405,3.648c7.171,4.21,12.925,10.474,16.976,15.866a52.784,52.784,0,0,0-6.629-12.388c-4.124-5.565-9.4-9.694-15.91-11.15a1.332,1.332,0,0,1-1.012-1.634A27.793,27.793,0,0,0,86.3,8.624a35.384,35.384,0,0,0-2.8-7.12c1.033,7.086.207,13.264-3.4,19.517a1.338,1.338,0,0,1-1.346.651v.013c-12.445-1.7-24.183-1.418-36.48-3.116a1.343,1.343,0,0,1-1-.677A52.62,52.62,0,0,1,35.52,0a38.747,38.747,0,0,0,1.562,19.346,1.358,1.358,0,0,1-.728,1.685l-9.69,4.3a1.346,1.346,0,0,1-1.831-.853,70.149,70.149,0,0,0-5.911-13.126C17.968,9.58,17.015,7.8,16.129,5.993c1.053,7.086,2.958,14.356,2.9,21.71a1.373,1.373,0,0,1-.815,1.226A37.109,37.109,0,0,0,4.3,40.418,33.981,33.981,0,0,0,0,48.309c7.937-13.631,22.666-20.2,34.009-22.678" transform="translate(21.771 43.627)" fill="#d88b73" fill-rule="evenodd"/>
      <path id="Path_67" data-name="Path 67" d="M6.7,1.216A56.43,56.43,0,0,0,.221,5.985,1.7,1.7,0,0,1,0,6.158C4,8.889,26.037,22.94,57.913,24.5c19.782.969,33.127-.761,41.042-2.471A67.885,67.885,0,0,0,83.073,6.036c-8.765,3.529-26.431,8.246-49.841,2.369C21.379,5.43,13.7,2.523,8.724,0Q7.7.586,6.7,1.216M81.325,8.488c-.034-.188.1-.31.114-.492a.117.117,0,1,1,.23.035,1.926,1.926,0,0,1-.221.474.068.068,0,0,1-.123-.018m1.108,1.268c0-.053,0-.106-.005-.158l.095.159a.045.045,0,0,1-.09,0m1.617.756c-.31.195-.568-.234-.356-.478.284-.335.847-.344.839.075,0,.293-.216.235-.483.4" transform="translate(39.336 10.671)" fill="#e1a51a" fill-rule="evenodd"/>
      <path id="Path_68" data-name="Path 68" d="M.839,5.276l44.951.072A31.965,31.965,0,0,0,46.3.075L0,0A33.427,33.427,0,0,0,.839,5.276" transform="translate(55.911 120.351)" fill="#fff" fill-rule="evenodd"/>
      <path id="Path_69" data-name="Path 69" d="M14.971,1.02a26.065,26.065,0,0,1-5.492,0C8.1.919,6.72.776,5.355.582A13.9,13.9,0,0,1,3.142.166,2.106,2.106,0,0,0,1.871.049C.448.364.021,1.8,0,3.068A9.572,9.572,0,0,0,.586,6.349a8.652,8.652,0,0,0,7.5,5.967,7.439,7.439,0,0,0,7.9-4.636,13.449,13.449,0,0,0,1.121-4.8,1.779,1.779,0,0,0-.631-1.432,1.782,1.782,0,0,0-1.505-.425" transform="translate(118.641 161.657)" fill="#281a15" fill-rule="evenodd"/>
      <path id="Path_70" data-name="Path 70" d="M13.437.994C10.2,1.534,1.894.563.6.025S-.371,8.006,6.426,8.653,13.437.994,13.437.994" transform="translate(120.475 163.493)" fill="#d88b73" fill-rule="evenodd"/>
      <path id="Path_71" data-name="Path 71" d="M2.137,1.02a25.993,25.993,0,0,0,5.493,0C9,.919,10.387.777,11.754.581A13.779,13.779,0,0,0,13.967.166a2.115,2.115,0,0,1,1.27-.118C16.66.365,17.086,1.8,17.108,3.068a9.6,9.6,0,0,1-.586,3.281,8.653,8.653,0,0,1-7.5,5.967,7.437,7.437,0,0,1-7.9-4.637A13.4,13.4,0,0,1,0,2.877,1.777,1.777,0,0,1,.633,1.445a1.775,1.775,0,0,1,1.5-.425" transform="translate(24.047 160.445)" fill="#281a15" fill-rule="evenodd"/>
      <path id="Path_72" data-name="Path 72" d="M0,.994c3.237.54,11.543-.431,12.838-.969s.969,7.982-5.825,8.63S0,.994,0,.994" transform="translate(25.882 162.281)" fill="#d88b73" fill-rule="evenodd"/>
    </g>
  </g>
</svg>
