<svg xmlns="http://www.w3.org/2000/svg" width="21.973" height="21.438" viewBox="0 0 21.973 21.438">
  <g id="call" transform="translate(0 -5.003)">
    <g id="Group_30" data-name="Group 30" transform="translate(0 5.003)">
      <g id="Group_29" data-name="Group 29" transform="translate(0 0)">
        <path id="Path_222" data-name="Path 222" d="M184.592,118.491a.626.626,0,0,0-.064.214.514.514,0,1,0,1.025.085,1.047,1.047,0,0,1,.021-.235v-.235a5.643,5.643,0,0,0-.3-1.794,5.325,5.325,0,0,0-3.63-3.353A5.664,5.664,0,0,0,180.3,113a3.618,3.618,0,0,0-.47.021l-.448.064a.5.5,0,1,0,.171.982,2.1,2.1,0,0,1,.363-.043h.064c.107,0,.214-.021.32-.021a4.225,4.225,0,0,1,3.032,1.26,4.3,4.3,0,0,1,1.26,2.99v.235Z" transform="translate(-169.409 -107.238)" fill="#89c069"/>
        <path id="Path_223" data-name="Path 223" d="M178.323,68.6a.514.514,0,0,0,1.025.085c.021-.235.021-.47.021-.7a9.571,9.571,0,0,0-.107-1.367,8.191,8.191,0,0,0-7.41-6.79c-.214-.021-.448-.021-.662-.021-.235,0-.47,0-.7.021s-.47.043-.7.085a.5.5,0,1,0,.171.982c.15-.021.278-.043.427-.064.064,0,.128-.021.192-.021.214-.021.427-.021.619-.021a7.359,7.359,0,0,1,2.071.3,7.1,7.1,0,0,1,3.011,1.794,7.335,7.335,0,0,1,1.6,2.413,7.217,7.217,0,0,1,.512,2.648v.214A1.746,1.746,0,0,0,178.323,68.6Z" transform="translate(-160.322 -56.878)" fill="#89c069"/>
        <path id="Path_224" data-name="Path 224" d="M169.583,8.27A11.086,11.086,0,0,0,161.7,5c-.32,0-.641.021-.961.043a7.408,7.408,0,0,0-.961.128.5.5,0,0,0,.171.982c.149-.021.278-.043.427-.064a3.186,3.186,0,0,1,.448-.043c.3-.021.577-.043.875-.043a10.061,10.061,0,0,1,10.079,10.079v.47c0,.128-.021.256-.021.406a.514.514,0,0,0,1.025.085c.021-.32.043-.641.043-.94A11.056,11.056,0,0,0,169.583,8.27Z" transform="translate(-150.856 -5.003)" fill="#89c069"/>
        <path id="Path_225" data-name="Path 225" d="M21.182,34.725,17.4,32.7c-1.26-.683-1.3-.235-2.626,1.174-.32.342-.918,1.239-1.623,1.068-1.473-.363-4.228-2.52-5.125-3.5C7.6,30.966,5.765,28.724,5.744,28c-.043-1.11,2.392-1.666,1.6-3.78l-1.687-3.78c-1.58-3.63-6,2.178-5.637,4.89.94,6.684,12.663,17.489,19.2,13.923C20.67,38.44,22.634,35.6,21.182,34.725Z" transform="translate(0 -18.517)" fill="#89c069"/>
      </g>
    </g>
  </g>
</svg>
