<svg id="Group_22" data-name="Group 22" xmlns="http://www.w3.org/2000/svg" xmlns:xlink="http://www.w3.org/1999/xlink" width="146.602" height="146.888" viewBox="0 0 146.602 146.888">
  <defs>
    <clipPath id="clip-path">
      <rect id="Rectangle_24" data-name="Rectangle 24" width="146.602" height="146.888" fill="none"/>
    </clipPath>
  </defs>
  <g id="Group_21" data-name="Group 21" transform="translate(0 0)" clip-path="url(#clip-path)">
    <path id="Path_185" data-name="Path 185" d="M36.787,5.9,51.361,22.172a157.736,157.736,0,0,1,24.51-8.8c6.563-1.618,12.275-1.979,14.529.539l-.011.011.011.011c1.143,1.279,4.444,4.966,8.8,9.8,11.386,12.666,29.775,33.131,34.257,38.477,6.693,8.009-4.653,28.289-9.9,37.656-.382.708-.738,1.343-1,1.815l10.216,11.41-.013.011c4.252,4.746,9.344,10.433,1.258,17.672l-17.3,15.5a2.424,2.424,0,0,1-3.429-.19L96.7,127.558c-.109.1-.215.211-.328.311a20.081,20.081,0,1,1-26.792-29.92c.111-.1.23-.2.343-.294L43.386,68.02c-.111.1-.217.209-.33.309A20.082,20.082,0,1,1,16.264,38.407c.113-.1.228-.194.345-.294L3.944,23.97a2.425,2.425,0,0,1,.19-3.424L21.087,5.361c7.725-6.915,8.446-7.561,15.7.535M117.138,70.4a.369.369,0,0,0-.678.053,8.61,8.61,0,0,0,.045,3.134c.13,1.168.243,2.335.258,3.508a.427.427,0,0,0,.853.047,33.8,33.8,0,0,0-.072-3.629,11.417,11.417,0,0,0-.405-3.113m-2.162.94a.161.161,0,0,0-.322-.021c-.032.3,0,.584-.009.878-.006.239.369.262.377.021.006-.3-.032-.586-.047-.878m-10.06-4.164a.376.376,0,0,0,.74-.053,43.042,43.042,0,0,0-.023-9.745c-.045-.5-.857-.424-.857.064-.021,3.171-.689,6.631.141,9.734m-3.832-4.672c-.081-.533-.987-.48-.951.068.062.853.1,1.716.217,2.563a6.867,6.867,0,0,0,.591,2.525c.151.273.633.3.714-.055a6.216,6.216,0,0,0-.1-2.4c-.141-.9-.324-1.8-.467-2.7M82.573,32.644a.241.241,0,0,0-.482-.023,9.7,9.7,0,0,0-.083,2.65c.021.1.2.13.22.011a22.315,22.315,0,0,0,.345-2.638m-7.32-1.977c-.043-.418-.729-.358-.731.051,0,1.791-.269,3.672.258,5.412a.3.3,0,0,0,.584-.043,25.6,25.6,0,0,0-.111-5.42m-2,.589a.343.343,0,0,0-.684-.038,5.6,5.6,0,0,0-.192,2.4.21.21,0,0,0,.4.021,5.788,5.788,0,0,0,.476-2.384M35.06,20.193A.758.758,0,0,0,33.932,21.2c.493.638,1.115,1.618,1.949,1.8a.708.708,0,0,0,.9-.8c-.132-.9-1.1-1.437-1.716-2.011m.983-1.015a6.432,6.432,0,0,0,1.94,3.2c.539.446,1.358-.2,1.207-.821-.292-1.2-1.418-1.787-2.068-2.746-.333-.49-1.277-.318-1.079.369m1.689-1.725a7,7,0,0,0,2.03,2.957c.74.753,1.476,1.789,2.533,2.047a.475.475,0,0,0,.6-.539c-.154-1.186-1.313-2.243-2.122-3.068a5.15,5.15,0,0,0-2.629-1.763c-.215-.047-.488.117-.414.367m80.3,116.1c.331.4.949-.154.6-.533a11.543,11.543,0,0,0-1.382-1.518.2.2,0,0,0-.307.211,4.786,4.786,0,0,0,1.087,1.84M116.08,135.4c.239.4,1,.215.829-.286a3.516,3.516,0,0,0-.642-1.2c-.217-.256-.567-.569-.928-.386-.725.367.537,1.529.74,1.876m-3.789-2.056a.325.325,0,0,0-.486.337,6.935,6.935,0,0,0,3.141,3.874c.2.124.484-.1.354-.32-.78-1.3-1.591-3.183-3.009-3.891M12.771,74.5c-1.058-.891-2.823.687-2.051,1.836.051.077.1.154.154.228a1.45,1.45,0,1,0,2.107-1.885c-.07-.06-.141-.119-.209-.179m-1.595-1.128a.179.179,0,0,0-.267.239.179.179,0,0,0,.267-.239m-9.062-25.7c.011-.463-.712-.642-.827-.156C-.276,54.305-1.5,63.965,4.417,69.206a.562.562,0,0,0,.917-.62,58.624,58.624,0,0,1-3.22-20.913M144.092,85.584a1.271,1.271,0,0,0-1.893,1.7,1.271,1.271,0,0,0,1.893-1.7m-.919-7.849a.751.751,0,0,0,1.228.407c2.655-2.343,2.286-8.393,2.013-11.542-.3-3.48-1.077-8.5-4.348-10.5a.428.428,0,0,0-.646.441c.97,3.77,2.476,7.092,2.595,11.086a29.414,29.414,0,0,1-.286,5.744,14.588,14.588,0,0,0-.557,4.363M36.043,47.644a8.593,8.593,0,1,0,2.164,6.2,8.56,8.56,0,0,0-2.164-6.2M24.322,53.079h0a5.335,5.335,0,1,0,10.655.578,5.339,5.339,0,0,0-8.885-4.271,5.342,5.342,0,0,0-1.77,3.693m65.034,54.106a8.588,8.588,0,1,0,2.166,6.2,8.51,8.51,0,0,0-2.166-6.2m-11.723,5.437h0a5.35,5.35,0,1,0,5.631-5.043,5.343,5.343,0,0,0-5.631,5.043M61.325,27.044a1.552,1.552,0,0,0-.614.333,1.608,1.608,0,0,0-.183,2.269c5.776,6.791,25.4,28.677,25.451,28.737a1.608,1.608,0,0,0,2.235.168c4.887-4.071,8.909-7.582,13.395-11.493,1.192-1.047,2.431-2.113,3.708-3.233a.579.579,0,0,0,.13-.1,1.61,1.61,0,0,0,.128-2.282c-3.026-3.375-6.461-7.09-9.885-10.8-3.2-3.429-6.395-6.87-9.868-10.751a1.588,1.588,0,0,0-1.115-.544c-3.152-.173-14.881,4.4-20.572,6.61-1.52.6-2.586,1.015-2.808,1.081M87.352,55.067h0c4.371-3.676,8.069-6.9,12.145-10.442l2.574-2.237c-3.053-3.39-5.909-6.478-8.762-9.546-3.243-3.5-6.489-7-9.393-10.222-3.331.4-13.5,4.365-18.593,6.339l-.834.335c5.879,6.785,19.063,21.532,22.862,25.773m21.717-9.715a1.611,1.611,0,0,0-2.286-.128c-.036.03-.07.085-.109.119-1.254,1.145-2.448,2.26-3.621,3.328-4.38,4.032-8.314,7.64-12.9,12.047a1.616,1.616,0,0,0-.079,2.245c.053.06,19.647,21.965,25.762,28.453a1.631,1.631,0,0,0,2.286.079,1.816,1.816,0,0,0,.388-.584c.094-.213.618-1.226,1.384-2.672,2.832-5.4,8.659-16.57,8.834-19.721a1.562,1.562,0,0,0-.418-1.166c-3.461-3.87-6.542-7.431-9.6-10.99-3.305-3.815-6.623-7.64-9.644-11.011m-3.83,5.687h0c-3.972,3.663-7.582,6.981-11.715,10.919,3.8,4.245,17.018,18.984,23.1,25.564l.42-.791c2.525-4.847,7.6-14.508,8.348-17.787-2.868-3.228-6-6.849-9.124-10.461-2.736-3.171-5.482-6.337-8.523-9.759ZM35.8,12.074h0l-2.633-2.94a23.718,23.718,0,0,0-2.345-2.386c-1.386-.134-2.755,1.092-5.4,3.459l-4.785,4.284,5.546,6.2ZM119.33,97.5h0c4.727-8.444,14.96-26.745,10.425-32.174-4.482-5.343-22.817-25.749-34.159-38.368-4.331-4.834-7.653-8.521-8.8-9.823l-.015.011c-.806-.9-4.8-.3-9.74.93a153.135,153.135,0,0,0-22.31,7.868l64.395,71.915c.068-.117.134-.237.2-.358m9.834,18.815h0l-.011.011-.992-1.1c-.134.062-.271.109-.4.179a6.793,6.793,0,0,0-1.465,1.009,7.012,7.012,0,0,0-.714.755l6.958,7.768c1.505-3.169-1.111-6.092-3.373-8.617m1.288,11.135h0l-6.384-7.128a8.266,8.266,0,0,0-.162,1.373,8.463,8.463,0,0,0,2.2,5.825,8.9,8.9,0,0,0,1.674,1.456c.186.128.38.241.576.352Zm-62.68-15.372h0a15.2,15.2,0,1,0,5.043-10.512,15.147,15.147,0,0,0-5.043,10.512M14.443,52.523h0A15.238,15.238,0,0,0,39.819,64.715a15.734,15.734,0,0,0,1.631-1.706.7.7,0,0,1,.062-.077,15.231,15.231,0,1,0-27.069-10.41M9.178,22.541h0L20.693,35.4A20.088,20.088,0,0,1,46.532,64.257L74.01,94.942A20.088,20.088,0,0,1,99.847,123.8l15.431,17.233,10.578-9.474a12.212,12.212,0,0,1-2.16-1.883,11.615,11.615,0,0,1-3.007-8.058,10.47,10.47,0,0,1,3.448-7.623,9.74,9.74,0,0,1,1.791-1.271L37.962,14.483,27.143,24.172a1.616,1.616,0,0,1-2.288-.124l-7.7-8.606-.019-.026Z" transform="translate(-0.001 0)" fill="#281a15" fill-rule="evenodd"/>
    <path id="Path_186" data-name="Path 186" d="M74.528,87.256,47.049,56.568A20.08,20.08,0,0,0,21.212,27.712L9.7,14.852l7.958-7.126.019.028,7.7,8.606a1.62,1.62,0,0,0,2.288.124L38.48,6.792l87.967,98.242a9.871,9.871,0,0,0-1.793,1.271,10.461,10.461,0,0,0-3.444,7.621,11.609,11.609,0,0,0,3,8.058,12.313,12.313,0,0,0,2.162,1.885L115.8,133.343l-15.433-17.233A20.078,20.078,0,0,0,74.528,87.256M37.3,14.513c-.132-.9-1.1-1.435-1.719-2.009a.756.756,0,0,0-1.126,1.009c.493.64,1.111,1.621,1.947,1.8a.71.71,0,0,0,.9-.8m1.207.175c.539.446,1.356-.2,1.2-.823-.292-1.2-1.416-1.787-2.068-2.746-.333-.49-1.277-.318-1.077.371a6.441,6.441,0,0,0,1.94,3.2m1.776-1.968c.742.755,1.476,1.791,2.533,2.049a.475.475,0,0,0,.6-.539c-.151-1.19-1.311-2.243-2.122-3.07A5.151,5.151,0,0,0,38.663,9.4c-.215-.049-.486.117-.414.367a7.02,7.02,0,0,0,2.03,2.955m77.184,111.3a4.8,4.8,0,0,0,1.09,1.842c.328.4.947-.154.6-.535a11.109,11.109,0,0,0-1.382-1.516.2.2,0,0,0-.307.209m-1.606,1.815c-.723.365.537,1.529.74,1.874.241.4,1,.215.832-.286a3.555,3.555,0,0,0-.64-1.2c-.222-.256-.571-.571-.932-.386m-.041,3.712c-.778-1.3-1.591-3.186-3.009-3.894a.324.324,0,0,0-.484.337,6.925,6.925,0,0,0,3.139,3.874c.2.126.486-.1.354-.318" transform="translate(-0.519 7.691)" fill="#65ad79" fill-rule="evenodd"/>
    <path id="Path_187" data-name="Path 187" d="M43.744,43.055c-3.8-4.241-16.981-18.988-22.86-25.775l.832-.333c5.092-1.974,15.265-5.936,18.6-6.339,2.9,3.22,6.147,6.721,9.391,10.224,2.855,3.064,5.708,6.154,8.764,9.544l-2.574,2.237c-4.079,3.546-7.774,6.766-12.148,10.442M38.62,23.269a22.315,22.315,0,0,0,.345-2.638.241.241,0,0,0-.482-.023,9.792,9.792,0,0,0-.081,2.653c.019.1.2.126.217.009m-6.864.806a25.321,25.321,0,0,0-.111-5.42c-.043-.416-.727-.356-.731.051,0,1.791-.269,3.672.258,5.412a.3.3,0,0,0,.584-.043M29.17,21.628a5.711,5.711,0,0,0,.473-2.384.341.341,0,0,0-.68-.038,5.567,5.567,0,0,0-.192,2.4.208.208,0,0,0,.4.021" transform="translate(43.607 12.012)" fill="#dcecef" fill-rule="evenodd"/>
    <path id="Path_188" data-name="Path 188" d="M22.079,41.25a43.023,43.023,0,0,0-.023-9.742c-.045-.495-.859-.426-.857.062-.021,3.171-.689,6.631.141,9.732a.375.375,0,0,0,.74-.051M9.946,36.086c4.134-3.94,7.742-7.256,11.717-10.922l2.51-2.314c3.041,3.422,5.787,6.587,8.521,9.759,3.124,3.61,6.258,7.231,9.126,10.459C41.067,46.349,36,56.01,33.471,60.857l-.42.791c-6.088-6.58-19.306-21.318-23.105-25.562M33.561,44.53a.369.369,0,0,0-.678.051,8.622,8.622,0,0,0,.045,3.137c.128,1.168.243,2.333.256,3.508a.428.428,0,0,0,.855.045,33.748,33.748,0,0,0-.072-3.627,11.479,11.479,0,0,0-.405-3.113m-15.482-2.8a6.268,6.268,0,0,0-.1-2.405c-.141-.9-.324-1.8-.467-2.7-.081-.533-.989-.48-.951.068.06.853.1,1.716.217,2.563a6.865,6.865,0,0,0,.589,2.525c.154.273.633.3.716-.053M31.4,45.468a.161.161,0,0,0-.322-.019c-.034.294,0,.584-.009.876-.006.241.369.262.375.021.009-.3-.03-.584-.045-.878" transform="translate(83.575 25.875)" fill="#dcecef" fill-rule="evenodd"/>
    <path id="Path_189" data-name="Path 189" d="M71.348,47.49c-3.305-3.815-6.623-7.64-9.646-11.011a1.606,1.606,0,0,0-2.282-.128c-.036.03-.072.085-.111.119-1.254,1.145-2.446,2.26-3.621,3.328-4.382,4.03-8.314,7.64-12.9,12.047a1.611,1.611,0,0,0-.081,2.243c.055.062,19.649,21.967,25.764,28.455a1.631,1.631,0,0,0,2.284.079,1.816,1.816,0,0,0,.388-.584c.094-.213.618-1.226,1.386-2.674,2.827-5.4,8.657-16.568,8.832-19.719a1.561,1.561,0,0,0-.418-1.166c-3.461-3.87-6.542-7.431-9.6-10.99m.416,41.492L7.372,17.067A152.862,152.862,0,0,1,29.682,9.2c4.936-1.228,8.932-1.832,9.74-.93l.011-.011c1.147,1.3,4.469,4.99,8.8,9.823C59.572,30.7,77.905,51.106,82.387,56.45c4.535,5.429-5.7,23.73-10.42,32.174-.07.122-.136.241-.2.358M58.081,34.854a.535.535,0,0,1-.13.1c-1.277,1.119-2.514,2.186-3.708,3.233C49.757,42.1,45.735,45.6,40.85,49.678a1.608,1.608,0,0,1-2.235-.168c-.058-.06-19.677-21.945-25.451-28.737a1.607,1.607,0,0,1,.183-2.271,1.559,1.559,0,0,1,.614-.331c.222-.066,1.286-.478,2.808-1.081,5.689-2.209,17.419-6.783,20.572-6.61a1.587,1.587,0,0,1,1.113.544c3.476,3.881,6.665,7.322,9.866,10.751,3.427,3.706,6.864,7.422,9.885,10.8a1.606,1.606,0,0,1-.126,2.282" transform="translate(47.364 8.874)" fill="#65ad79" fill-rule="evenodd"/>
    <path id="Path_190" data-name="Path 190" d="M67.126,8.5,57.509,17.11l-5.546-6.2L56.748,6.63c2.644-2.367,4.013-3.6,5.4-3.461a24.014,24.014,0,0,1,2.346,2.388Z" transform="translate(-31.323 3.578)" fill="#ecc228" fill-rule="evenodd"/>
    <path id="Path_191" data-name="Path 191" d="M52.784,21.77A15.231,15.231,0,0,1,74.794,42.681c-.021.026-.043.049-.062.077A15.53,15.53,0,0,1,73.1,44.463,15.23,15.23,0,1,1,52.784,21.77m16.54,5.623a8.59,8.59,0,1,0,2.166,6.2,8.559,8.559,0,0,0-2.166-6.2" transform="translate(-33.283 20.252)" fill="#55251e" fill-rule="evenodd"/>
    <path id="Path_192" data-name="Path 192" d="M54.124,23.88a5.342,5.342,0,1,1-.416,7.538,5.332,5.332,0,0,1,.416-7.538" transform="translate(-28.031 25.507)" fill="#fff" fill-rule="evenodd"/>
    <path id="Path_193" data-name="Path 193" d="M29.12,51.807a5.339,5.339,0,0,1,8.894,4.279,5.343,5.343,0,1,1-8.894-4.279" transform="translate(50.288 57.124)" fill="#fff" fill-rule="evenodd"/>
    <path id="Path_194" data-name="Path 194" d="M44.314,55.31a8.583,8.583,0,1,0,2.166,6.2,8.51,8.51,0,0,0-2.166-6.2M27.772,49.687A15.249,15.249,0,1,1,22.727,60.2a15.109,15.109,0,0,1,5.045-10.512" transform="translate(45.041 51.876)" fill="#55251e" fill-rule="evenodd"/>
    <path id="Path_195" data-name="Path 195" d="M9.775,63.627a8.458,8.458,0,0,1-2.2-5.828,7.814,7.814,0,0,1,.162-1.371l6.382,7.128-2.1,1.879c-.2-.111-.39-.226-.576-.352a8.835,8.835,0,0,1-1.674-1.456" transform="translate(116.329 63.893)" fill="#ecc228" fill-rule="evenodd"/>
    <path id="Path_196" data-name="Path 196" d="M13.344,63.744,6.388,55.976a6.808,6.808,0,0,1,.714-.755,6.644,6.644,0,0,1,1.463-1.006c.132-.07.271-.122.405-.179l.989,1.1.013-.013c2.26,2.527,4.879,5.448,3.371,8.617" transform="translate(119.192 61.185)" fill="#ecc228" fill-rule="evenodd"/>
  </g>
</svg>
