<svg xmlns="http://www.w3.org/2000/svg" width="22" height="17.286" viewBox="0 0 22 17.286">
  <g id="envelope_copy" data-name="envelope copy" transform="translate(0 -54.82)">
    <g id="Group_31" data-name="Group 31" transform="translate(0 54.82)">
      <path id="Path_226" data-name="Path 226" d="M2.112,60.148q.417.295,2.517,1.749t3.217,2.24q.123.086.522.375t.663.467q.264.178.639.4a3.7,3.7,0,0,0,.706.331,1.945,1.945,0,0,0,.614.11h.025a1.947,1.947,0,0,0,.614-.11,3.708,3.708,0,0,0,.706-.331q.374-.221.638-.4t.663-.467q.4-.289.522-.375l5.745-3.99a5.832,5.832,0,0,0,1.5-1.51,3.242,3.242,0,0,0,.6-1.854,1.981,1.981,0,0,0-1.964-1.964H1.964a1.753,1.753,0,0,0-1.455.638A2.478,2.478,0,0,0,0,57.054,2.868,2.868,0,0,0,.675,58.73,6.094,6.094,0,0,0,2.112,60.148Z" transform="translate(0 -54.82)" fill="#89c069"/>
      <path id="Path_227" data-name="Path 227" d="M20.772,185.505q-4.026,2.725-6.114,4.236-.7.515-1.136.8a7.008,7.008,0,0,1-1.16.589,3.533,3.533,0,0,1-1.35.3h-.025a3.534,3.534,0,0,1-1.35-.3,7.012,7.012,0,0,1-1.16-.589q-.436-.288-1.136-.8-1.657-1.215-6.1-4.236A6.5,6.5,0,0,1,0,184.437v9.747a1.891,1.891,0,0,0,.577,1.387,1.891,1.891,0,0,0,1.387.577H20.036A1.97,1.97,0,0,0,22,194.184v-9.747A6.77,6.77,0,0,1,20.772,185.505Z" transform="translate(0 -178.863)" fill="#89c069"/>
    </g>
  </g>
</svg>
