<svg id="_001-facebook" data-name="001-facebook" xmlns="http://www.w3.org/2000/svg" width="50.102" height="50.102" viewBox="0 0 50.102 50.102">
  <path id="Path_205" data-name="Path 205" d="M291.484,508.668q-.313.051-.628.094Q291.171,508.719,291.484,508.668Zm0,0" transform="translate(-262.394 -458.892)" fill="#fff8eb"/>
  <path id="Path_206" data-name="Path 206" d="M299.639,507.793l-.3.052Zm0,0" transform="translate(-270.048 -458.103)" fill="#fff8eb"/>
  <path id="Path_207" data-name="Path 207" d="M278.346,510.34q-.366.041-.737.073Q277.979,510.382,278.346,510.34Zm0,0" transform="translate(-250.444 -460.4)" fill="#fff8eb"/>
  <path id="Path_208" data-name="Path 208" d="M286.8,509.738c-.117.016-.236.03-.353.044C286.563,509.769,286.681,509.754,286.8,509.738Zm0,0" transform="translate(-258.415 -459.858)" fill="#fff8eb"/>
  <path id="Path_209" data-name="Path 209" d="M306.929,506.41l-.264.055Zm0,0" transform="translate(-276.655 -456.855)" fill="#fff8eb"/>
  <path id="Path_210" data-name="Path 210" d="M324.7,502.113l-.213.059Zm0,0" transform="translate(-292.732 -452.979)" fill="#fff8eb"/>
  <path id="Path_211" data-name="Path 211" d="M319.291,503.543l-.232.06Zm0,0" transform="translate(-287.837 -454.268)" fill="#fff8eb"/>
  <path id="Path_212" data-name="Path 212" d="M312.313,505.254l-.247.055Zm0,0" transform="translate(-281.529 -455.812)" fill="#fff8eb"/>
  <path id="Path_213" data-name="Path 213" d="M273.876,511.09q-.2.017-.4.03Q273.679,511.107,273.876,511.09Zm0,0" transform="translate(-246.719 -461.077)" fill="#fff8eb"/>
  <path id="Path_214" data-name="Path 214" d="M50.1,25.051A25.051,25.051,0,1,0,25.051,50.1c.147,0,.294,0,.44-.006V30.6H20.109V24.323h5.382V19.707c0-5.353,3.268-8.267,8.043-8.267a44.3,44.3,0,0,1,4.825.247v5.595H35.067c-2.6,0-3.1,1.235-3.1,3.046v3.995h6.212l-.81,6.272h-5.4V49.134A25.065,25.065,0,0,0,50.1,25.051Zm0,0" fill="#fff8eb"/>
  <path id="Path_215" data-name="Path 215" d="M265.676,511.43q-.391.025-.785.039Q265.285,511.456,265.676,511.43Zm0,0" transform="translate(-238.97 -461.383)" fill="#fff8eb"/>
  <path id="Path_216" data-name="Path 216" d="M260.92,511.836q-.208.007-.416.01Q260.712,511.843,260.92,511.836Zm0,0" transform="translate(-235.012 -461.75)" fill="#fff8eb"/>
</svg>
