<svg id="girl" xmlns="http://www.w3.org/2000/svg" xmlns:xlink="http://www.w3.org/1999/xlink" width="179.212" height="228.583" viewBox="0 0 179.212 228.583">
  <defs>
    <clipPath id="clip-path">
      <rect id="Rectangle_11" data-name="Rectangle 11" width="179.212" height="228.584" fill="none"/>
    </clipPath>
  </defs>
  <g id="Group_9" data-name="Group 9" clip-path="url(#clip-path)">
    <path id="Path_85" data-name="Path 85" d="M29.7,17.15l.141-.1c.1-.075,32.811-23.1,73.12-15.524,20.246,3.818,31.89,12.412,38.622,21.13a46.4,46.4,0,0,1,9.192,21.948c1.05,7.307,1.291,21.183,1.335,24.919,2.5.992,8.89,4.426,8.728,13.76s-5.131,13.905-6.806,15.183c-.079.8-.215,2.385-.227,4.4.014.269.038.534.048.8.024.7.029,1.4.02,2.1.308,5.7,1.782,13.06,6.913,17A40.957,40.957,0,0,1,177.7,145.4a39.271,39.271,0,0,1-2.364,27.784,1.344,1.344,0,0,1-2.556-.593,57.059,57.059,0,0,0-2.15-16.347,27.188,27.188,0,0,0-2.881-6.474,55.009,55.009,0,0,1,.524,15.188,54.026,54.026,0,0,1-6.939,21.109,1.323,1.323,0,0,1-1.817.5,1.35,1.35,0,0,1-.658-1.429c.04-.265.065-.533.083-.818a21.768,21.768,0,0,0-3.619-12.408,17.463,17.463,0,0,0-9.375-7.526c33.531,26.479-9.037,51.732-42.864,57.467a1.611,1.611,0,0,1-.224.074c-11.961,2.826-19.664-.7-21.865-1.8a23.983,23.983,0,0,1-1.971,2.3,6.9,6.9,0,0,1-2.856-3.337,7.8,7.8,0,0,0-7.237-5.138c-1.007.054-1.941.114-2.846.172-10.028.634-17.147,1.083-22.916-8.6a76.694,76.694,0,0,1-4.607-8.762A18.815,18.815,0,0,1,36.124,201a16.345,16.345,0,0,1-5.986,4.912,13,13,0,0,1-7.526,1.127,14.222,14.222,0,0,1-6.5-2.873,1.333,1.333,0,0,1,.68-2.386c6.855-.683,8.8-5.387,8.491-11.142-.257-4.828-2.021-10.39-3.92-15.155l-.364-.036q-.61-1.826-1.218-3.709l-.1-.229a1.309,1.309,0,0,1-.113-.436c-7-21.809-13.385-48.921-14.569-75.092C3.608,65.165,9.378,35.565,29.7,17.15M94.031,220.323c28.642-3.41,85.994-27.581,47.927-55.608-1.451-1.07-2.371-1.732-2.123-2.759.241-1,1.06-1.277,2.679-.911.474.026.913.073,1.364.136,6.149.863,10.728,4.657,13.683,9.262a26.387,26.387,0,0,1,3.774,9.724,50.138,50.138,0,0,0,4.288-15.5,54.931,54.931,0,0,0-1.579-19.536,1.359,1.359,0,0,1,.278-1.325,1.339,1.339,0,0,1,1.889-.085,25.867,25.867,0,0,1,6.961,11.727,50.725,50.725,0,0,1,1.974,10.606,36.044,36.044,0,0,0-.029-19.923,38.287,38.287,0,0,0-15.846-21.163l-.074-.04a19.341,19.341,0,0,1-6.388-9.811,51.449,51.449,0,0,1-8.881,19.477,64.276,64.276,0,0,1-17.749,16.28,18.013,18.013,0,0,1,4.96.708,9.383,9.383,0,0,1,5.206,3.581,8.072,8.072,0,0,1,1.291,4.122c.327,6.961-5.78,9.313-9.637,10.1,3.364,3.237,8.806,9.813,4.372,15.194-4.77,5.761-15.562,1.84-19.665.05-.869,4.332-3.9,14.916-12.538,13.189-8.4-1.679-8.252-12.857-7.814-17.56-3.6.836-10.93,1.472-13.737-6a9.953,9.953,0,0,1-.406-1.368,33.719,33.719,0,0,1-9.732.46,30.84,30.84,0,0,1-12.25-3.993,92,92,0,0,0,11.5,6.722c12.077,6.363,25.194,13.259,21.86,26.31a1.343,1.343,0,0,1-1.629.97,1.356,1.356,0,0,1-.9-.751c-.268-.573-.555-1.122-.865-1.676a12.74,12.74,0,0,0-4.872-5.125,5.452,5.452,0,0,0-3.18-.622,16.421,16.421,0,0,1,6.129,10.44,18.953,18.953,0,0,1,.02,5.476,24.981,24.981,0,0,1-1.949,6.7,26.109,26.109,0,0,0,11.686,2.515M65.59,211.468a16.9,16.9,0,0,1,4.118-.244l.152-.006a1.339,1.339,0,0,1,.506.074c3.519.447,6.516,2.393,8.29,6.8a3.954,3.954,0,0,0,.293.578c2.2-4.063,3.332-8.508,2.689-12.622a14.454,14.454,0,0,0-6.976-10.091,1.291,1.291,0,0,1-.51-.512,1.323,1.323,0,0,1,.486-1.826c.215-.122.445-.24.657-.347l.013,0a7.9,7.9,0,0,1,7.22.147,13.908,13.908,0,0,1,4.86,4.44c-.566-8.7-11.1-14.246-20.9-19.4-8.782-4.623-17.005-8.959-18.039-15.391a1.33,1.33,0,0,1,2.219-1.274c6.018,5.817,12.235,8.3,18.083,8.9a31.241,31.241,0,0,0,9.32-.49c.02-.176.048-.348.078-.52-10.488-2.071-18.833-5.418-24.672-10.318-7.055-5.886-10.47-13.927-9.7-24.487-6.435,2.306-11.7,1.162-15.709-1.768a20.035,20.035,0,0,1-5.642-6.59,27.13,27.13,0,0,1-2.881-8.125c-1.114-6.092.015-12.009,3.492-14.384,7.053-4.814,12.3,1.176,15.371,5.67.463.679.872,1.306,1.211,1.851a12.815,12.815,0,0,0,1.017,1.473l.023.019a19.23,19.23,0,0,0,7.467,4.851,12.909,12.909,0,0,0,3.958.614,20.588,20.588,0,0,1-5.072-5.15,22.533,22.533,0,0,1-3.567-11.852,1.328,1.328,0,0,1,.636-1.267Q62.111,89.131,69.61,74.233c4.915-9.827,6.362-20.95,4.235-33.387a1.356,1.356,0,0,1,.676-1.394,1.337,1.337,0,0,1,1.819.528,35.69,35.69,0,0,1,4.733,17.274,45.162,45.162,0,0,1-1.971,13.2c4.1-3.973,6.413-8.042,7.286-12.33,1.1-5.445-.09-11.349-2.864-17.964A1.266,1.266,0,0,1,83.473,40c-.025-.021-.053-.043-.079-.067a1.344,1.344,0,0,1-.129-1.882,1.328,1.328,0,0,1,1.87-.129c24.137,20.8,57.412,17.685,63.848,16.851-.2-3.6-.469-7.134-.847-9.776A43.775,43.775,0,0,0,139.485,24.3C133.077,16,121.952,7.81,102.454,4.156c-38.189-7.191-69.4,13.909-71.015,15.033C11.858,36.962,6.31,65.788,7.665,95.859c1.173,25.995,7.475,52.862,14.361,74.4a1.383,1.383,0,0,1,.083.154c2.5,5.593,5.472,13.4,5.832,20.081.328,6.105-1.431,11.266-7.359,13.216a10.659,10.659,0,0,0,2.44.688,10.373,10.373,0,0,0,5.989-.912A13.637,13.637,0,0,0,34,199.379a16.453,16.453,0,0,0,3.145-7.436,1.335,1.335,0,0,1,2.658.241c0,.006-.2,2.154,5.647,11.962,4.873,8.182,11.224,7.883,20.135,7.321M23.537,40.858a.252.252,0,0,0-.494-.1c-.137.7-.366,1.367-.516,2.062a.118.118,0,0,0,.2.1,3.854,3.854,0,0,0,.808-2.066m1.87-6.5c.151-.108-.005-.345-.16-.24a12.029,12.029,0,0,0-4.87,7.075.185.185,0,0,0,.344.119c.678-1.039,1.022-2.263,1.637-3.342a10.918,10.918,0,0,1,3.048-3.612m16.7,54.693c-.437.122-.2.813.232.671a1.939,1.939,0,0,0,1.179-1.237c.055-.134-.089-.3-.224-.2a4.008,4.008,0,0,1-1.188.765m1.231,3.689a.275.275,0,0,0,.108.531,1.541,1.541,0,0,0,1.179-.536c.242-.257.658-.831.5-1.2a.228.228,0,0,0-.232-.154c-.359.045-.515.448-.728.7a1.918,1.918,0,0,1-.825.659m1.905,2.571c-.568.2-1.159.263-1.714.5a.116.116,0,0,0-.014.211c1.264.751,3.086-.364,4.068-1.169A10.457,10.457,0,0,0,50.763,90.9a.174.174,0,0,0-.285-.192c-.991,1-1.835,2.147-2.9,3.078a7.461,7.461,0,0,1-2.335,1.525m-9.209,44.781c.276-.1.322-.4.378-.656.062-.284.117-.568.175-.853a.347.347,0,0,0-.681-.137c-.062.322-.133.642-.178.965-.035.237-.087.466.109.642a.2.2,0,0,0,.2.039m3.17-1.708a.276.276,0,0,0-.541-.109,4.15,4.15,0,0,0-.306,2.194.171.171,0,0,0,.286.058,4.157,4.157,0,0,0,.561-2.143m2.815-.952c-.031-.279-.49-.339-.52-.034a10.655,10.655,0,0,0,.049,2.164,4.322,4.322,0,0,0,.433,1.952.234.234,0,0,0,.421-.082,5.373,5.373,0,0,0-.161-1.92c-.089-.692-.143-1.388-.222-2.08M70.976,185.18a1.319,1.319,0,0,0-1.173.418.148.148,0,0,0,.157.237,2.844,2.844,0,0,1,.922-.177c.31.045.406-.436.094-.479m1.669,3.258a13.356,13.356,0,0,0-1.486.268c-.107.044-.147.222-.018.271a3.015,3.015,0,0,0,3.061-1.132c.128-.171-.1-.383-.249-.222a2.71,2.71,0,0,1-1.309.815m2.168,1.632c-.45.173-1.076.413-1.254.9-.026.07.015.186.111.166.512-.1.932-.554,1.414-.764a8.345,8.345,0,0,1,1.736-.51c.166-.035.156-.3-.02-.271a10.277,10.277,0,0,0-1.987.48M25.448,164.58a.186.186,0,0,0-.069.349c.129.078.264.152.4.222.49.251.672-.668.124-.622-.153.013-.3.029-.452.05m2.012,3.184c-.225.171-.541.141-.8.226a.166.166,0,0,0-.057.276,1.085,1.085,0,0,0,1.211.212.408.408,0,0,0,.2-.6.4.4,0,0,0-.558-.112m.023,4.94a.168.168,0,0,0-.142.288,3.842,3.842,0,0,0,2.3.94.376.376,0,0,0,.148-.737c-.774-.161-1.529-.371-2.311-.49M156.259,86a.2.2,0,0,0-.182.208.567.567,0,0,0,.019.172c-.033-.134-.01.046-.009.084a.6.6,0,0,1-.033.168c-.138.453.673.612.716.143.029-.325-.07-.838-.511-.776m-1.593,2.918a.587.587,0,0,1,.011.329.377.377,0,0,0,.739.147,1.3,1.3,0,0,0-.08-.769.714.714,0,0,0-.61-.476.276.276,0,0,0-.25.288c-.01.19.134.313.191.481m-1.4.852a.157.157,0,0,0-.183.123,1.8,1.8,0,0,0,.32.912,4.4,4.4,0,0,1,.314.921c.067.3.584.195.53-.108a4.3,4.3,0,0,0-.329-1.091,1.234,1.234,0,0,0-.652-.756m4.646,74.351a.973.973,0,0,0-.472.463.367.367,0,1,0,.691.237c.033-.153.181-.425.011-.622a.206.206,0,0,0-.23-.079m1.274,2.219c-.332.03-.32.572.039.535a.353.353,0,0,0,.318-.49.2.2,0,0,0-.338-.067c-.02.013-.021.016-.019.021m1.771.739a2.373,2.373,0,0,0-.479,1.006c-.1.373-.291.731-.367,1.108-.059.3.31.592.573.382a2.489,2.489,0,0,0,.654-2.42.228.228,0,0,0-.382-.075m1.513,2.194a17.551,17.551,0,0,1-1.235,3.794c-.1.251.172.568.422.377,1.12-.86,1.47-2.687,1.667-4a9.995,9.995,0,0,0-.009-4.415.212.212,0,0,0-.406.028c-.269,1.385-.2,2.824-.44,4.216m-15.838-34.309a.107.107,0,0,0-.043.21.107.107,0,0,0,.043-.21m-1.321.594a.328.328,0,0,0-.131.643,1.144,1.144,0,0,1,.548.376c.276.278.664-.119.491-.427a1.29,1.29,0,0,0-.908-.592m-1.107,1.731c-.308-.2-.6.281-.348.515.2.185.348.411.555.583.555.467,1.144-.524.529-.779a4.286,4.286,0,0,1-.736-.319m-6.384,8.782a.354.354,0,0,0,.137-.693l-.257-.063c-.457-.116-.609.644-.142.715l.263.041m-1.007,2.02a.406.406,0,0,0,.16-.8c-.32-.057-.646-.088-.968-.127a.34.34,0,0,0-.133.667c.313.088.624.185.942.256m-1.387,1.866c.619.111,1.482.365,2.036-.02a.287.287,0,0,0,.03-.448c-.517-.4-1.272-.254-1.9-.369a7.6,7.6,0,0,1-2.057-.678.271.271,0,0,0-.3.442,4.115,4.115,0,0,0,2.192,1.074m-.315,22.265.119-.109c.1-.094-.025-.286-.149-.227l-.148.069a.164.164,0,1,0,.178.268m-2.087-.523c.425.075,1.182.029,1.29-.5a.271.271,0,0,0-.283-.32c-.172,0-.3.114-.46.158a.948.948,0,0,1-.416.005.336.336,0,0,0-.132.658m.082-1.515a3.129,3.129,0,0,0,1.447-.8c.1-.136.07-.407-.141-.42a3.975,3.975,0,0,0-1.566.462,15.239,15.239,0,0,1-1.649.486.267.267,0,0,0,.036.511,3.809,3.809,0,0,0,1.873-.242m-21.159,23.505c-.3-.442-1,.025-.687.46a1.713,1.713,0,0,0,.854.687.372.372,0,0,0,.413-.2.389.389,0,0,0-.087-.455,4.938,4.938,0,0,1-.494-.492m1.681-1.824c-.338-.236-.764.21-.435.494.2.17.353.36.531.548.291.3.732-.132.53-.461a2.1,2.1,0,0,0-.627-.58m.17-1.829a7.5,7.5,0,0,1,.649.661c.214.235.377.455.713.466.225.006.318-.241.279-.418-.065-.291-.394-.461-.612-.633s-.425-.348-.648-.507c-.3-.211-.666.18-.382.432m1.016-2.742c-.329-.188-.563.315-.259.515,1.027.676,2.677,1.485,3.939,1.211a.257.257,0,0,0,.087-.432,4.652,4.652,0,0,0-1.649-.534,8.05,8.05,0,0,1-2.118-.76m-24.627.033c.181.26.512.075.629-.144.175-.337-.4-.549-.491-.17-.013.055-.09.1-.124.142a.144.144,0,0,0-.014.172m-.3-2.66a.752.752,0,0,0,.78-.029c.317-.171,0-.672-.315-.473-.178.113-.4.079-.5.3a.164.164,0,0,0,.039.2m.693-1.834a.219.219,0,0,0,.088-.428c-.219-.04-.506-.152-.7-.015a.134.134,0,0,0-.036.188c.124.2.435.208.647.255m9.205-14.086a.576.576,0,0,0,.592-.257.189.189,0,0,0-.01-.19c-.212-.279-.59-.156-.85-.343a.359.359,0,0,0-.495.029.35.35,0,0,0,.029.495,1.481,1.481,0,0,0,.735.266m-2.2-3.472c-.333-.1-.525.46-.2.58a13.982,13.982,0,0,0,1.545.48c.391.1.765.261,1.125.029a.22.22,0,0,0,.062-.305c-.245-.353-.652-.342-1.049-.419a13.647,13.647,0,0,1-1.482-.364M95.5,163a5.563,5.563,0,0,0,5.172.359.232.232,0,0,0-.084-.419c-.923-.094-1.844.084-2.77-.046a21.24,21.24,0,0,0-2.155-.371A.275.275,0,0,0,95.5,163m-23.862-9.627c-.393.112-.186.71.208.6a7.083,7.083,0,0,0,1.23-.474,1.8,1.8,0,0,0,.848-.656.215.215,0,0,0-.206-.309,2.827,2.827,0,0,0-.926.391,6.5,6.5,0,0,1-1.154.448M68.086,151.7a.287.287,0,0,0,.043.573c.927-.043,2.4-.311,2.886-1.218a.2.2,0,0,0-.239-.273,11.773,11.773,0,0,0-1.31.594,5.164,5.164,0,0,1-1.38.324m-2.359-1.407c-.314,0-.288.428-.031.511a3.2,3.2,0,0,0,3.392-1.325c.112-.2-.1-.391-.3-.339a7.252,7.252,0,0,0-1.36.73,3.666,3.666,0,0,1-1.7.423M36.39,123.582c-.314.073-.222.507.039.578a.561.561,0,0,0,.681-.314.333.333,0,0,0-.6-.3h-.006a.582.582,0,0,1-.116.033m1.575,1.579a1.179,1.179,0,0,0-.318.046.251.251,0,0,0-.03.456.782.782,0,0,0,1.119-.5c.094-.365-.474-.474-.571-.114-.025.093-.113.111-.2.112M55.2,101.307a.185.185,0,0,0,.261-.176c.028-.515-.509-1.045-.911-1.3-.359-.231-.664.372-.3.592s.52.734.948.885m-1.593,1.761c.219-.245-.175-.548-.335-.68-.216-.185-.423-.377-.632-.571-.265-.246-.608.16-.367.414.212.227.977,1.236,1.334.837m-1.476,1.546c-.072-.347-.47-.427-.736-.587a3.212,3.212,0,0,1-.912-.789.273.273,0,0,0-.455.3,3.742,3.742,0,0,0,.98,1.056c.294.207.682.521,1.039.274a.231.231,0,0,0,.084-.257m-.363,5.461c-.466-1.076-1.315-1.951-1.8-3.038-.451-1.007-.84-2.046-1.2-3.09-.093-.265-.452-.122-.4.137.411,1.988.973,5.318,3.084,6.271.168.075.406-.084.319-.28M97.839,51.909a.055.055,0,0,0,.092-.059c-.026-.049-.055-.1-.082-.147-.044-.073-.165.005-.112.074.033.045.068.088.1.132m-1.513.543a.162.162,0,0,0,.173-.084c.126-.216-.014-.481-.127-.672-.128-.219-.268-.431-.409-.642a.277.277,0,0,0-.46.309c.138.211.278.423.4.647.1.182.208.391.423.442m-2-.058A.163.163,0,0,0,94.6,52.3a5.4,5.4,0,0,0-.973-2.8c-.152-.266-.624-.038-.486.24a12.037,12.037,0,0,1,.619,1.522,3,3,0,0,0,.573,1.127M90.41,47.578c-.126-.1-.369.019-.285.191a10.682,10.682,0,0,1,1,4.523,15.506,15.506,0,0,0,.181,3.7.249.249,0,0,0,.476-.031,13.717,13.717,0,0,0,.04-4.935c-.176-1.225-.4-2.624-1.414-3.443M133.6,21.272a.8.8,0,0,0-.585.19.233.233,0,0,0-.048.237c.211.5,1.029.369,1.46.319.509-.055.453-.857-.058-.793-.256.03-.51.039-.769.046m3.411,3.678a4.83,4.83,0,0,0-1.672-.033.166.166,0,0,0-.057.276,2.66,2.66,0,0,0,1.777.418c.43,0,.376-.656-.049-.662m8.435,17.863c-.264-.057-.9-.195-.977.207s.559.516.823.566a.4.4,0,0,0,.155-.774m.824,3.111c-.388-.079-1.037-.344-1.36-.021a.18.18,0,0,0-.035.181c.175.422.873.43,1.262.5a.339.339,0,0,0,.133-.664m-.58,2.69a.756.756,0,0,0-.661.191.207.207,0,0,0,.019.29c.22.22.571.193.858.22.323.028.644.054.97.058.438,0,.386-.671-.048-.677-.383-.005-.76-.053-1.138-.082m-1,19.8a.317.317,0,0,0,.118-.6,3.46,3.46,0,0,0-.489-.131.335.335,0,0,0-.132.657,3.748,3.748,0,0,0,.5.07m-.6-2.458a.373.373,0,0,0,.146-.731,7.49,7.49,0,0,1-1.088-.274.32.32,0,0,0-.288.571,4.2,4.2,0,0,0,1.23.433m-2.739-3.593c.686.4,2.049,1.23,2.788.565a.214.214,0,0,0-.016-.306,2.454,2.454,0,0,0-1.114-.257,6.992,6.992,0,0,1-1.452-.411.229.229,0,0,0-.206.409m-1.806-2.5c.918.707,2.96,2,3.982.78a.234.234,0,0,0-.128-.382c-.652-.129-1.3-.028-1.964-.185-.588-.139-1.179-.294-1.756-.481-.146-.048-.25.178-.133.268M15.956,22.691c.325.5,1.05.355,1.48.1.51-.3-.01-1.091-.511-.766-.28.182-.618.084-.889.271a.286.286,0,0,0-.079.394m9.316-8.764c1.75-1.211,3.632-2.2,5.413-3.364.337-.22,0-.691-.34-.51-3.821,2.039-8.768,4.284-10.144,8.787a.256.256,0,0,0,.441.219,20.23,20.23,0,0,1,4.63-5.132M.459,114.011a1.632,1.632,0,0,1,.626.195.436.436,0,0,1,.182.574.315.315,0,0,1-.445.244.425.425,0,0,1-.269-.157,1.455,1.455,0,0,0-.25-.082.4.4,0,0,1,.156-.774m1.471,5.054c-.118-.33-.575-.154-.5.173.948,4.333.6,10.706,3.639,14.242a.233.233,0,0,0,.412-.2c-.676-2.673-1.73-5.1-2.173-7.869a35.661,35.661,0,0,0-1.374-6.343M87.848,227.578a.623.623,0,0,1,.161.713c-.214.494-.909.234-1.286.141-.7-.171.25-1.565,1.125-.854m-15.34-7.365c-.055-.266-.42-.142-.43.087-.156,3.926,3.857,8.522,7.958,8.211.244-.019.347-.394.1-.5-1.792-.72-3.553-1.183-4.957-2.618a10.018,10.018,0,0,1-2.669-5.184m93.453-31.605a.325.325,0,0,0-.127.637l.064.02a.425.425,0,0,0,.53.068l.005,0a.412.412,0,0,0,.114-.569l0-.005a.43.43,0,0,0-.514-.142l-.07-.006m3.763-13.09c-.011-.246-.354-.2-.369.025-.173,2.944-1.429,5.783-1.472,8.71a.241.241,0,0,0,.452.089,20.767,20.767,0,0,0,1.389-8.825m-3.323-58.2c-.245-.036-.608-.006-.668.3a.348.348,0,0,0,.045.236l-.024.009a.458.458,0,0,0-.28.578.463.463,0,0,0,.577.283c.333-.079.78-.187.948-.52a.583.583,0,0,0-.117-.682.815.815,0,0,0-.481-.2m-7.74-12.751a.291.291,0,0,0-.58.041c.157,3.758-.343,9.949,3.563,12.139a.275.275,0,0,0,.349-.4c-1.4-1.952-2.492-3.447-2.8-5.917-.24-1.952-.264-3.92-.535-5.867m-3.222-68.5a.484.484,0,0,0,.175-.868.344.344,0,0,0-.239-.055q-.062-.009-.124-.023a.447.447,0,0,0-.175.875l.122.03a.337.337,0,0,0,.241.04M141.058,13.358c-.118-.084-.32.053-.211.185,2.312,2.759,5.241,4.945,7.508,7.77,2.37,2.96,3.669,6.2,5.287,9.578.108.23.5.2.463-.094-.8-7.069-7.584-13.488-13.047-17.439M40.247,124.108c.874.681,1.428,1.119,1.912.82.639-.392.126-1.451-1.465-4.005-5.587-9.05-14.135-7.128-14.162-7.134a.671.671,0,1,0,.283,1.313c.018-.011,7.647-1.718,12.742,6.521.133.219.273.411.4.587-2.5-1.88-6.718-4.567-11.076-3.664a.676.676,0,0,0-.515.8.663.663,0,0,0,.785.512c4.471-.921,9.028,2.639,11.093,4.253m1.059-.648h0c.033.252-.034.445.166.334.126-.084.048-.168-.166-.334m28.576-5.545a4.965,4.965,0,0,0-4.965-.433,13.313,13.313,0,0,0-7.922,9.774,4.467,4.467,0,0,0,6.44,5.2,13.4,13.4,0,0,0,7.922-9.773,5.013,5.013,0,0,0-1.475-4.773m-4.505.819h0a12.007,12.007,0,0,0-7.051,8.705,3.162,3.162,0,0,0,4.651,3.769,12.055,12.055,0,0,0,7.053-8.718,3.16,3.16,0,0,0-4.652-3.757m63.107-20.272a5,5,0,0,0,1.917,4.613,13.416,13.416,0,0,0,12.339,2.471,4.476,4.476,0,0,0,1.625-8.125,13.322,13.322,0,0,0-12.338-2.469,5,5,0,0,0-3.543,3.511m8.041,6.072h0a11.09,11.09,0,0,0,5.77-.251,3.168,3.168,0,0,0,1.174-5.868,12,12,0,0,0-11-2.2,3.166,3.166,0,0,0-1.174,5.866,11.037,11.037,0,0,0,5.23,2.453M124.81,69.345a1.318,1.318,0,0,0,1.432-1.227,1.344,1.344,0,0,0-.484-1.134c-1.487-1.364-5.528-2.116-9.6-2.208-4.146-.093-8.462.477-10.287,1.751a1.354,1.354,0,0,0-.442,1.658c.9,2.133,1.946,4.2,1.946,4.2a1.322,1.322,0,0,0,1.7.642c.03-.009,9.969-4.107,15.74-3.678m-8.728-1.894h0a24.9,24.9,0,0,0-7.723.8c.314.691.62,1.339.86,1.851a68.393,68.393,0,0,1,8.366-2.586c-.5-.031-1-.05-1.5-.068M78.8,119.578a1.336,1.336,0,0,0-.857,1.684l.015.058c.026.064,5.883,16.034,18.4,21.748a1.34,1.34,0,0,0,1.025.445l.01,0c4.946,1.972,10.872,2.331,17.833-.416l.029-.008a21.34,21.34,0,0,0,7.9-4.739c4.593-4.391,6.485-10.375,6.922-16.1a37.5,37.5,0,0,0-1.7-14.384,9.942,9.942,0,0,0-1.766-3.384,1.329,1.329,0,0,0-1.378-.344Zm48.609,2.462h0a36.161,36.161,0,0,0-.582-9.6,7.553,7.553,0,0,1-2.948,4.927c-2.334,1.635-11.8,5.161-20.931,8.016-7.153,2.233-14.172,4.081-17.525,4.323a31.8,31.8,0,0,0,10.806,10.267,15.709,15.709,0,0,1,5.114-8,20.589,20.589,0,0,1,5.43-3.473A17.549,17.549,0,0,1,113.222,127a15.294,15.294,0,0,1,11.584,4.725,25.192,25.192,0,0,0,2.607-9.681m-13.166,18.579h0a.61.61,0,0,1,.132-.041,18.911,18.911,0,0,0,6.921-4.157,17.262,17.262,0,0,0,2.059-2.356,12.879,12.879,0,0,0-10.057-4.4,15,15,0,0,0-5.457,1.282,18.043,18.043,0,0,0-4.725,3.016c-2.408,2.13-4.064,4.741-4.383,7.149,4.357,1.64,9.518,1.875,15.512-.489M83.821,127.179h0a1.289,1.289,0,0,1,.7-.126c2.236.216,9.8-1.766,17.647-4.223,8.913-2.788,18.063-6.159,20.179-7.662,2.515-1.76,2.216-5.815,1.868-7.888L80.992,121.668a49.112,49.112,0,0,0,2.829,5.511M105.738,102.1a.559.559,0,0,1,.24.3.587.587,0,0,1-.054.343c-.3.623-1.26,1.25-3,1.556a1.338,1.338,0,0,0,.47,2.634c2.7-.484,4.318-1.731,4.939-3.055a3.072,3.072,0,0,0,.227-2.164,3.221,3.221,0,0,0-1.277-1.8c-1.247-.864-3.394-1.2-6.232-.236a1.329,1.329,0,1,0,.848,2.52c1.915-.643,3.205-.534,3.841-.094m-28.8-6.785a5.545,5.545,0,0,0-2.855-.6,4.212,4.212,0,0,0-2.723,1.256c-1.324,1.36-1.971,3.852-1.1,7.727a1.349,1.349,0,0,0,1.6,1,1.329,1.329,0,0,0,1-1.6c-.646-2.845-.34-4.505.4-5.258a1.549,1.549,0,0,1,1.021-.463,2.938,2.938,0,0,1,1.477.334,5.017,5.017,0,0,1,2.689,4.292,1.336,1.336,0,0,0,2.669-.106,7.71,7.71,0,0,0-4.184-6.585m47.873-4.7a1.322,1.322,0,0,0,1.274-1.4,7.69,7.69,0,0,0-4.17-6.583,5.4,5.4,0,0,0-2.859-.584,4.123,4.123,0,0,0-2.719,1.245c-1.323,1.359-1.974,3.863-1.1,7.725a1.341,1.341,0,0,0,1.6,1,1.322,1.322,0,0,0,1-1.589c-.647-2.846-.343-4.507.4-5.27a1.6,1.6,0,0,1,1.019-.452,2.763,2.763,0,0,1,1.477.322,5.038,5.038,0,0,1,2.689,4.306,1.335,1.335,0,0,0,1.384,1.275M75.08,74.113h0a47.305,47.305,0,0,0,3.327-16.834,32.073,32.073,0,0,0-.968-7.443,52.808,52.808,0,0,1-5.446,25.584c-.1.21-.217.413-.324.619a4.784,4.784,0,0,1,.742-.111,1.348,1.348,0,0,1,1.369,1c.637,2.217,1.119,4.51,1.115,4.524a1.32,1.32,0,0,1-1,1.575,66.235,66.235,0,0,0-9.431,3.669,78.53,78.53,0,0,1-18.309,15.38,18.03,18.03,0,0,0,10.453,16.054,1.321,1.321,0,0,1,.57,1.795,1.279,1.279,0,0,1-.919.7,15.783,15.783,0,0,1-8.942-.2,21.8,21.8,0,0,1-8.5-5.454,12.684,12.684,0,0,1-1.431-1.995c-.344-.533-.741-1.143-1.173-1.776-2.459-3.6-6.6-8.445-11.658-4.981-2.562,1.752-3.323,6.583-2.37,11.716a23.834,23.834,0,0,0,2.592,7.3,17.467,17.467,0,0,0,4.876,5.727c3.774,2.761,8.97,3.6,15.523.457a1.339,1.339,0,0,1,1.756.57c5.072,9.382,13.8,20.218,27.752,24.84a47.208,47.208,0,0,0,15.836,2.281.887.887,0,0,1,.1,0,72.187,72.187,0,0,0,23.531-4.893c12.339-5.38,21.5-12.805,27.621-21.176a47.038,47.038,0,0,0,9.424-27.73c-.034-.728-.049-1.429-.051-2.086-.465-9.705-4.741-18.952-9.028-28.2a142.075,142.075,0,0,1-6.99-16.973c-12.87-.325-31.631-3.151-47.6-14.839C89.356,48.7,89.982,53.791,89,58.647c-1.226,6.062-4.936,11.639-11.869,17.022a1.334,1.334,0,0,1-2.05-1.556M67.873,82.3h0c1.686-.658,3.175-1.166,4.146-1.478-.123-.544-.286-1.232-.48-1.967a2.055,2.055,0,0,0-.252.1,13.553,13.553,0,0,0-1.781.88c-.519.831-1.06,1.652-1.633,2.466M79.1,167.144h0a16.093,16.093,0,0,1,5.9-5.536,47.934,47.934,0,0,1-11.152-2.247c-13.233-4.375-21.983-13.973-27.483-23.008-.344,9.007,2.742,15.9,8.824,20.967,5.564,4.657,13.654,7.855,23.91,9.825m6.558,3.629h0a45.837,45.837,0,0,1-4.811,1.541,6.023,6.023,0,0,0,.284,1.019c2.822,7.516,12.309,3.842,12.338,3.835a1.456,1.456,0,0,1,.695-.065,1.336,1.336,0,0,1,1.086,1.541c-.01.039-2.649,14.935,5.449,16.557,7.942,1.588,9.654-12.634,9.663-12.674a1.349,1.349,0,0,1,.128-.438,1.335,1.335,0,0,1,1.795-.583c.04.009,13.472,6.9,18.03,1.383,4.36-5.284-6.187-13.359-6.21-13.379a1.31,1.31,0,0,1-.522-1,1.335,1.335,0,0,1,1.286-1.38c.029-.009,10.45-.313,10.1-7.714a5.355,5.355,0,0,0-.843-2.747,6.725,6.725,0,0,0-3.769-2.516,16.129,16.129,0,0,0-5.3-.583,10.932,10.932,0,0,0-4.711,1.036,1.227,1.227,0,0,1-.324.152c.741,2.082,2.049,6.039,1.329,10.11-.741,4.248-3.607,8.478-11.309,10.68a16.082,16.082,0,0,1-7.556.441,14.085,14.085,0,0,1-8.33-5.368,21.476,21.476,0,0,1-3.539-7.014,11.549,11.549,0,0,1-.347-1.606c-1.82.7-6.18,2.636-8.316,5.656,1.137.186,2.29.364,3.475.522a1.339,1.339,0,0,1,.232,2.6m32.218-14.038h0A16.83,16.83,0,0,0,115,164.3a1.337,1.337,0,1,1-2.668-.18,17.955,17.955,0,0,1,2.374-7.279,76.83,76.83,0,0,1-21.816,4.838c.048.271.141.672.281,1.188a18.592,18.592,0,0,0,3.08,6.09A11.414,11.414,0,0,0,103,173.357a13.27,13.27,0,0,0,6.3-.391c6.455-1.835,8.824-5.21,9.414-8.574a16.35,16.35,0,0,0-.849-7.658m26.668-82.842h0q.484,1.055.973,2.109a14.718,14.718,0,0,1,1.362-3.894,5.613,5.613,0,0,1,2.577-2.682c-.029-2.07-.113-6.878-.339-11.994a93.022,93.022,0,0,1-11.177.649,147.613,147.613,0,0,0,6.6,15.811m13.639,9.336h0c.137-8.268-5.854-10.832-7.379-11.348a1.226,1.226,0,0,1-.235,0l-.013,0c-.357.011-.837.569-1.319,1.482a14.067,14.067,0,0,0-1.378,4.831,17.867,17.867,0,0,0-.119,2.653c0,.026-.005.053-.006.078q.5,1.149.981,2.3a30.582,30.582,0,0,1,2.768-7.993.67.67,0,0,1,1.187.62c-.016.021-3.2,6.07-2.783,10.3.068.183.141.364.21.548a19.174,19.174,0,0,1,4.328-7.128.663.663,0,1,1,.961.914,18.156,18.156,0,0,0-4.42,7.908c-.041.147-.079.279-.116.4a61.562,61.562,0,0,1,2.037,7.194c1.634-1.384,5.156-5.238,5.3-12.757" transform="translate(0.001 0)" fill="#281a15" fill-rule="evenodd"/>
    <path id="Path_86" data-name="Path 86" d="M119.05,3.614c19.5,3.654,30.623,11.845,37.031,20.144a43.767,43.767,0,0,1,8.651,20.692c.378,2.643.652,6.18.847,9.777-6.436.834-39.71,3.953-63.848-16.851a1.325,1.325,0,0,0-1.869.129,1.342,1.342,0,0,0,.128,1.882l.132.232c2.772,6.613,3.964,12.517,2.862,17.962-.873,4.288-3.187,8.359-7.286,12.332,3.084-10.615,2.837-20.44-2.762-30.476a1.341,1.341,0,0,0-2.494.867c2.126,12.437.68,23.559-4.235,33.387Q78.74,88.6,60.679,99.68a1.326,1.326,0,0,0-.634,1.267,22.521,22.521,0,0,0,3.567,11.85,20.589,20.589,0,0,0,5.071,5.151,12.915,12.915,0,0,1-3.958-.614,19.24,19.24,0,0,1-7.466-4.852l-1.04-1.491c-3.229-5.062-8.778-12.849-16.583-7.521-3.475,2.375-4.6,8.292-3.49,14.384,1.022,5.55,3.877,11.332,8.523,14.715,4.013,2.93,9.273,4.074,15.708,1.768C58.8,155.953,74.943,165.23,94.748,169.144c-.03.171-.059.344-.078.52-9.683,1.908-19.117-.347-27.4-8.412a1.331,1.331,0,0,0-2.218,1.275c1.032,6.432,9.257,10.767,18.039,15.391,9.792,5.155,20.329,10.7,20.9,19.4-3.124-4.392-7.834-7.04-12.749-4.243a1.339,1.339,0,0,0,.024,2.34,14.448,14.448,0,0,1,6.975,10.091c.643,4.112-.492,8.557-2.688,12.622a3.888,3.888,0,0,1-.291-.578c-1.775-4.407-4.772-6.353-8.292-6.8l-.656-.068a16.969,16.969,0,0,0-4.12.242c-8.911.563-15.263.862-20.135-7.321C56.206,193.8,56.4,191.648,56.4,191.642a1.334,1.334,0,0,0-2.656-.242,16.442,16.442,0,0,1-3.145,7.436c-3.224,4.214-8.364,6.427-13.424,4.335,5.93-1.949,7.688-7.112,7.359-13.216-.359-6.692-3.351-14.653-5.913-20.236-6.888-21.541-13.188-48.407-14.361-74.4-1.356-30.07,4.193-58.9,23.774-76.67C49.651,17.523,80.862-3.577,119.05,3.614M59.892,87.739A4.008,4.008,0,0,1,58.7,88.5c-.437.122-.2.813.234.671a1.939,1.939,0,0,0,1.178-1.238c.055-.133-.089-.3-.224-.2m1.6,3.095c-.538.068-.7,1.064-1.554,1.359a.275.275,0,0,0,.108.531,1.542,1.542,0,0,0,1.179-.536c.742-.793.576-1.393.266-1.354m.35,3.93c-.491.173-2.168.443-1.727.706,1.262.752,3.086-.364,4.067-1.168a10.455,10.455,0,0,0,3.176-3.949.174.174,0,0,0-.284-.192c-1.421,1.434-3.155,3.88-5.233,4.6m-8.655,43.272a.347.347,0,0,0-.681-.137c-.063.322-.134.641-.178.963-.035.239-.087.466.109.643a.193.193,0,0,0,.2.038c.278-.1.323-.4.379-.654.062-.284.117-.568.175-.853m2.618-.2a.276.276,0,0,0-.541-.109,4.15,4.15,0,0,0-.308,2.194.172.172,0,0,0,.288.058,4.17,4.17,0,0,0,.561-2.143m3.2,3.048a5.35,5.35,0,0,0-.16-1.922c-.089-.691-.143-1.387-.224-2.079-.031-.28-.49-.339-.517-.034a10.551,10.551,0,0,0,.046,2.163,4.348,4.348,0,0,0,.433,1.953.234.234,0,0,0,.421-.082m-16.505,23.1c-.152.014-.3.03-.452.05a.187.187,0,0,0-.069.35c.131.078.264.152.4.221.49.252.671-.667.123-.622m1.914,3.95a.4.4,0,1,0-.354-.716c-.224.172-.541.142-.8.227-.431.141.433.845,1.154.489M151.881,24.651a2.655,2.655,0,0,0,1.776.418c.43,0,.376-.656-.048-.663a4.837,4.837,0,0,0-1.673-.031.165.165,0,0,0-.055.276m9.591,20.889c.175.422.873.43,1.262.506a.339.339,0,0,0,.133-.664c-.388-.079-1.037-.344-1.36-.021a.178.178,0,0,0-.035.18m.173,3.013c.22.22.571.192.859.22.322.028.643.054.968.058.438,0,.386-.672-.048-.677-.383-.005-.76-.053-1.138-.082-.607-.046-.843.284-.642.481M39.324,42.382a3.864,3.864,0,0,0,.809-2.067.252.252,0,0,0-.495-.1c-.137.7-.365,1.368-.515,2.064a.117.117,0,0,0,.2.1m-.371-4.959A10.922,10.922,0,0,1,42,33.811c.149-.108-.005-.347-.16-.241a12.026,12.026,0,0,0-4.87,7.076.184.184,0,0,0,.344.119c.677-1.039,1.022-2.263,1.635-3.342M87.477,185.114c.31.046.406-.435.094-.477a1.319,1.319,0,0,0-1.173.418.148.148,0,0,0,.157.237,2.812,2.812,0,0,1,.922-.178m3.072,1.966a2.707,2.707,0,0,1-1.309.814,13.963,13.963,0,0,0-1.486.268c-.107.044-.148.224-.018.273A3.015,3.015,0,0,0,90.8,187.3c.128-.171-.1-.383-.249-.222m2.846,1.966a10.443,10.443,0,0,0-1.987.48c-1.516.588-1.319,1.1-1.143,1.066.833-.168.691-.776,3.15-1.274.166-.035.156-.3-.02-.273M46.388,172.651c-.772-.161-1.527-.371-2.31-.49a.167.167,0,0,0-.142.288,3.842,3.842,0,0,0,2.3.94.376.376,0,0,0,.147-.737M150.2,20.73c-.313.008-.754.144-.633.426.211.5,1.029.369,1.459.319.509-.055.453-.855-.058-.793-.256.031-.51.04-.769.048m10.87,21.748c-.08.4.559.516.823.565a.394.394,0,0,0,.154-.772c-.264-.057-.9-.195-.977.207" transform="translate(-16.595 0.544)" fill="#ca4b18" fill-rule="evenodd"/>
    <path id="Path_87" data-name="Path 87" d="M88.042,34.4c15.97,11.688,34.733,14.515,47.6,14.839a142.365,142.365,0,0,0,6.99,16.973c4.287,9.246,8.565,18.491,9.029,28.2,0,.657.018,1.358.052,2.087a47.058,47.058,0,0,1-9.424,27.729c-6.127,8.371-15.283,15.8-27.621,21.175A72.166,72.166,0,0,1,91.137,150.3a.9.9,0,0,0-.1,0A47.2,47.2,0,0,1,75.2,148.017c-13.954-4.622-22.681-15.458-27.753-24.84a1.337,1.337,0,0,0-1.755-.57c-6.553,3.139-11.75,2.3-15.524-.457-4.061-2.972-6.582-8.173-7.468-13.029-.953-5.133-.191-9.964,2.371-11.716,5.06-3.464,9.2,1.377,11.657,4.98a43.806,43.806,0,0,0,2.6,3.771,21.8,21.8,0,0,0,8.506,5.455,15.793,15.793,0,0,0,8.942.2,1.336,1.336,0,0,0,.348-2.5C50.675,106,47.187,100.9,46.678,93.264a78.522,78.522,0,0,0,18.308-15.38,66.226,66.226,0,0,1,9.433-3.669,1.321,1.321,0,0,0,1-1.575c0-.014-.48-2.307-1.117-4.524a1.351,1.351,0,0,0-1.369-1,5,5,0,0,0-.742.112,52.533,52.533,0,0,0,5.77-26.2C80,49.114,78.624,57.055,75.6,65.305a1.335,1.335,0,0,0,2.05,1.556c11.838-9.23,14.8-19.26,10.394-32.459M77.46,86.508a4.7,4.7,0,0,0-5.579.658c-1.323,1.36-1.971,3.853-1.1,7.727a1.349,1.349,0,0,0,1.6,1,1.33,1.33,0,0,0,1-1.6c-.646-2.846-.342-4.505.4-5.258a2.111,2.111,0,0,1,2.5-.128,5.012,5.012,0,0,1,2.69,4.292,1.321,1.321,0,0,0,1.4,1.277,1.337,1.337,0,0,0,1.274-1.383,7.711,7.711,0,0,0-4.184-6.587M41.213,112.115c-5.587-9.051-14.135-7.128-14.16-7.134a.671.671,0,1,0,.283,1.313c.016-.01,7.645-1.718,12.741,6.521.134.219.274.409.4.587-2.5-1.88-6.717-4.567-11.076-3.664a.669.669,0,0,0,.271,1.31c4.47-.921,9.027,2.638,11.093,4.253.873.681,1.428,1.119,1.91.82.639-.393.127-1.451-1.465-4.005m-3.583,2.923a.334.334,0,0,0-.6-.3l-.121.033c-.314.072-.222.507.039.578a.563.563,0,0,0,.681-.314m1.627,1.316c.094-.365-.474-.472-.571-.113-.026.093-.113.111-.2.112-.663.018-.5.407-.348.5a.783.783,0,0,0,1.12-.5m77.6-41.867c-1.324,1.36-1.974,3.865-1.1,7.726a1.34,1.34,0,0,0,1.6,1,1.321,1.321,0,0,0,1-1.589c-.647-2.847-.342-4.507.4-5.27,1.388-1.412,5.018.54,5.184,4.175a1.338,1.338,0,0,0,1.384,1.276,1.325,1.325,0,0,0,1.275-1.4c-.306-5.987-6.637-9.1-9.748-5.922m-7.27-10.273c.029-.009,9.968-4.108,15.739-3.678a1.333,1.333,0,0,0,.95-2.36c-3.22-2.842-16.41-2.908-19.893-.457a1.354,1.354,0,0,0-.442,1.657c.9,2.133,1.946,4.2,1.946,4.2a1.323,1.323,0,0,0,1.7.642m16.164,31.108L79.323,110.77a1.344,1.344,0,0,0-.842,1.742c.028.064,5.884,16.034,18.4,21.747a1.336,1.336,0,0,0,1.024.446l.011,0c4.945,1.972,10.871,2.33,17.832-.416a21.427,21.427,0,0,0,7.925-4.746c4.592-4.392,6.485-10.375,6.921-16.1a37.5,37.5,0,0,0-1.7-14.384,9.952,9.952,0,0,0-1.766-3.384,1.334,1.334,0,0,0-1.379-.345m-52.442,48.8a6.5,6.5,0,0,1-1.154.447c-.392.113-.185.711.208.6A7.134,7.134,0,0,0,73.6,144.7c1.271-.627.828-.988.641-.966a2.857,2.857,0,0,0-.926.392M71.3,141.975a8.907,8.907,0,0,1-2.69.917.287.287,0,0,0,.041.573c.927-.043,2.4-.311,2.886-1.217a.2.2,0,0,0-.237-.273m-1.986-1.643c-.8.207-1.493,1.169-3.065,1.153-.314,0-.286.43-.03.512a3.2,3.2,0,0,0,3.392-1.325c.112-.2-.1-.392-.3-.34M55.721,92.5c.445.156.389-.815-.648-1.476-.36-.23-.666.371-.3.592s.52.734.948.884M54.13,94.26c.217-.246-.175-.548-.335-.68-.217-.185-.425-.377-.633-.571-.265-.246-.607.16-.367.414.212.226.977,1.236,1.335.837m-1.561,1.8a.233.233,0,0,0,.085-.257c-.109-.519-.862-.368-1.649-1.377a.273.273,0,0,0-.453.305c.305.489,1.421,1.741,2.017,1.329m-.6,5.483c.168.077.4-.083.319-.279-.466-1.078-1.315-1.951-1.8-3.038-.45-1.007-.84-2.046-1.2-3.09-.092-.264-.451-.122-.4.137.411,1.988.972,5.319,3.084,6.27m46.4-58.65c-.01-.016-.259-.117-.01.206Zm-1.947.305c.1.182.209.391.423.442a.158.158,0,0,0,.173-.084c.192-.33-.315-.986-.536-1.313a.277.277,0,0,0-.46.308c.138.211.279.423.4.647m-2.148-.741a3,3,0,0,0,.574,1.125.162.162,0,0,0,.266-.089,5.381,5.381,0,0,0-.973-2.8c-.151-.269-.623-.038-.486.239a11.624,11.624,0,0,1,.619,1.524m-1.93-.246c-.175-1.226-.4-2.626-1.414-3.444-.124-.1-.369.019-.284.19,1.643,3.36.614,6.172,1.182,8.218a.248.248,0,0,0,.476-.029,13.689,13.689,0,0,0,.04-4.935M107.8,91.1c-1.246-.864-3.393-1.2-6.232-.236a1.329,1.329,0,1,0,.849,2.518c1.914-.641,3.205-.533,3.84-.093a.448.448,0,0,1,.187.639c-.3.622-1.261,1.248-3,1.555a1.338,1.338,0,0,0,.47,2.634c5.564-.99,6.476-5.19,3.889-7.017" transform="translate(-0.519 8.807)" fill="#e5b496" fill-rule="evenodd"/>
    <path id="Path_88" data-name="Path 88" d="M75.412,34.4c15.97,11.688,34.733,14.515,47.6,14.84.406,1.291.849,2.571,1.321,3.846-18.268-.176-36.4-4.883-40.695-7.719-5.1-3.369,2.569.695-8.614,15.071a104.774,104.774,0,0,1-12.24,12.772,1.249,1.249,0,0,0,0-.57c0-.014-.479-2.307-1.115-4.524a1.351,1.351,0,0,0-1.369-1,4.949,4.949,0,0,0-.742.112,52.548,52.548,0,0,0,5.77-26.2c2.042,8.086.667,16.026-2.359,24.278a1.335,1.335,0,0,0,2.05,1.556c11.838-9.232,14.8-19.26,10.392-32.46M34.1,93.955c-.021-.227-.041-.457-.054-.69A78.521,78.521,0,0,0,52.357,77.884,66.751,66.751,0,0,1,61.6,74.27a243.58,243.58,0,0,1-21,16.485s-3.641,1.9-6.5,3.2M85.739,42.9c-.01-.016-.259-.117-.01.206Zm-1.947.305c.1.183.208.392.423.443a.162.162,0,0,0,.172-.085c.192-.329-.314-.986-.535-1.314a.277.277,0,0,0-.46.309c.138.211.278.423.4.647m-2.148-.742a3.01,3.01,0,0,0,.573,1.128.163.163,0,0,0,.268-.09,5.381,5.381,0,0,0-.973-2.8c-.151-.268-.623-.038-.486.239a12.113,12.113,0,0,1,.619,1.522m-1.932-.245c-.175-1.226-.394-2.625-1.413-3.443-.126-.1-.369.018-.285.19,1.644,3.36.615,6.172,1.183,8.218a.249.249,0,0,0,.476-.03,13.66,13.66,0,0,0,.039-4.935" transform="translate(12.111 8.807)" fill="#d88b73" fill-rule="evenodd"/>
    <path id="Path_89" data-name="Path 89" d="M125.6,102.513c-.108-.305-.229-.61-.357-.919a.529.529,0,0,1-.2.2c-.484.3-1.039-.139-1.912-.82-2.065-1.614-6.622-5.174-11.093-4.253a.669.669,0,0,1-.271-1.31c4.358-.9,8.571,1.784,11.077,3.664-.129-.176-.269-.368-.4-.585-5.094-8.241-12.725-6.534-12.741-6.522a.669.669,0,0,1-.77-.422c-4.373,3.9,4.08,14.346,12.538,13.567,8.646-.8,4.132-2.6,4.132-2.6M115.709,91.2a13.477,13.477,0,0,0-4.763-.7,7.263,7.263,0,0,1,4.763.7m4.283,9.513a.561.561,0,0,1-.681.314c-.261-.069-.353-.5-.039-.578l.122-.031a.334.334,0,0,1,.6.3m1.627,1.318a.783.783,0,0,1-1.12.5c-.156-.1-.315-.484.349-.5.087,0,.173-.019.2-.112.1-.359.666-.251.571.114" transform="translate(-82.882 23.13)" fill="#d88b73" fill-rule="evenodd"/>
    <path id="Path_90" data-name="Path 90" d="M29.852,54.253A.373.373,0,0,0,30,53.522a7.831,7.831,0,0,1-1.088-.274.32.32,0,0,0-.288.571,4.2,4.2,0,0,0,1.23.433m.446,7.934a147.375,147.375,0,0,1-6.6-15.812,93.071,93.071,0,0,0,11.176-.648c.226,5.116.311,9.924.34,11.992-2.182.906-3.418,4.118-3.939,6.576q-.49-1.055-.973-2.109m.156-5.476a.317.317,0,0,0,.118-.6,3.3,3.3,0,0,0-.489-.131.335.335,0,0,0-.133.657,4.016,4.016,0,0,0,.5.07m-3.341-6.053c.686.4,2.049,1.231,2.788.566a.217.217,0,0,0-.016-.308,2.486,2.486,0,0,0-1.114-.257,6.989,6.989,0,0,1-1.452-.409.229.229,0,0,0-.206.408m-1.807-2.5c3.3,2.53,4.534.534,3.855.4-.652-.128-1.3-.026-1.964-.183-.588-.139-1.179-.294-1.756-.481-.146-.048-.25.178-.134.268" transform="translate(114.242 11.707)" fill="#ca4b18" fill-rule="evenodd"/>
    <path id="Path_91" data-name="Path 91" d="M18.9,71.5c-.42-4.233,2.767-10.282,2.783-10.3a.67.67,0,0,0-1.187-.62,30.6,30.6,0,0,0-2.768,7.993c-.32-.769-.648-1.534-.981-2.3,0-.025.006-.051.006-.078a16.073,16.073,0,0,1,1.5-7.483c.545-1.029.963-1.555,1.566-1.477,1.525.516,7.516,3.08,7.379,11.348-.139,7.521-3.661,11.373-5.3,12.757a61.629,61.629,0,0,0-2.037-7.194c.036-.121.074-.252.116-.4a18.143,18.143,0,0,1,4.42-7.908.664.664,0,0,0-.961-.916,19.207,19.207,0,0,0-4.329,7.128c-.068-.183-.141-.364-.208-.548m6.888.624c.029-.324-.07-.838-.511-.776-.2.028-.2.227-.163.381l-.041.252c-.138.455.673.613.716.143m-1.354,2.618c.185-1.177-.9-1.574-.941-.957-.01.19.134.313.191.482a.582.582,0,0,1,.011.328.377.377,0,0,0,.739.147m-1.164,2.223c-.1-.546-.392-1.652-.981-1.848a.158.158,0,0,0-.183.123c-.045.462.421.862.634,1.833.067.3.584.195.53-.108" transform="translate(130.986 14.65)" fill="#e5b496" fill-rule="evenodd"/>
    <path id="Path_92" data-name="Path 92" d="M18.973,70.67c-.391-3.919,2.315-9.395,2.731-10.2.937.335,1.992,1.4,2.5,3.452a.61.61,0,0,0-.7.171,19.208,19.208,0,0,0-4.328,7.128c-.069-.183-.141-.364-.21-.548m1.936,5.666a11.391,11.391,0,0,0,1.315-1.6.8.8,0,0,1-.044-.328.157.157,0,0,1,.182-.123.87.87,0,0,1,.121.055,13.365,13.365,0,0,0,1.949-5.848,15.355,15.355,0,0,0-.011-3.431,18.157,18.157,0,0,0-4.368,7.849c-.041.147-.078.279-.114.4.344,1,.671,2.012.971,3.024" transform="translate(130.909 15.481)" fill="#d88b73" fill-rule="evenodd"/>
    <path id="Path_93" data-name="Path 93" d="M29.943,76.709a12,12,0,0,1,11,2.2c2.447,2.227,1.934,4.758-1.174,5.868a11.091,11.091,0,0,1-5.77.251c-6.452-1.291-9.274-6.443-4.056-8.319" transform="translate(102.526 19.506)" fill="#d88b73" fill-rule="evenodd"/>
    <path id="Path_94" data-name="Path 94" d="M98.649,98.364a12.078,12.078,0,0,1-7.053,8.718c-3.127,1.139-5.127-.477-4.651-3.769A12.036,12.036,0,0,1,94,94.607c3.14-1.153,5.109.494,4.652,3.757" transform="translate(-28.62 24.127)" fill="#d88b73" fill-rule="evenodd"/>
    <path id="Path_95" data-name="Path 95" d="M46.437,105.313A49,49,0,0,1,43.608,99.8L86.826,85.415c.349,2.072.647,6.128-1.868,7.887-2.116,1.5-11.266,4.873-20.179,7.663-7.849,2.457-15.411,4.439-17.647,4.221a1.3,1.3,0,0,0-.7.127" transform="translate(37.384 21.868)" fill="#fff" fill-rule="evenodd"/>
    <path id="Path_96" data-name="Path 96" d="M41.161,106.783c3.354-.242,10.372-2.09,17.525-4.323,9.129-2.855,18.6-6.381,20.931-8.016a7.553,7.553,0,0,0,2.948-4.927,36.214,36.214,0,0,1,.582,9.6A25.214,25.214,0,0,1,80.54,108.8c-5.248-5.219-11.969-5.863-18.029-3.23-4.858,2.113-9.455,6.549-10.544,11.477a31.8,31.8,0,0,1-10.805-10.267" transform="translate(44.267 22.918)" fill="#281a15" fill-rule="evenodd"/>
    <path id="Path_97" data-name="Path 97" d="M44.469,114.68c.319-2.408,1.976-5.019,4.383-7.149a16.7,16.7,0,0,1,10.184-4.3,12.878,12.878,0,0,1,10.056,4.4,17.26,17.26,0,0,1-2.059,2.356,18.9,18.9,0,0,1-6.921,4.157.579.579,0,0,0-.131.041c-5.995,2.364-11.156,2.129-15.513.489" transform="translate(54.266 26.427)" fill="#c6302a" fill-rule="evenodd"/>
    <path id="Path_98" data-name="Path 98" d="M49.065,54.507a24.928,24.928,0,0,1,7.723-.8c.5.019,1,.038,1.5.069a68.394,68.394,0,0,0-8.366,2.586c-.24-.514-.546-1.161-.86-1.851" transform="translate(59.294 13.746)" fill="#ca4b18" fill-rule="evenodd"/>
    <path id="Path_99" data-name="Path 99" d="M89.009,62.779c.193.735.357,1.424.481,1.967-.972.313-2.461.821-4.147,1.478q.859-1.219,1.634-2.466Z" transform="translate(-17.47 16.072)" fill="#ca4b18" fill-rule="evenodd"/>
    <path id="Path_100" data-name="Path 100" d="M35.166,132a1.334,1.334,0,0,0,.977-2.483c-5.278-2.079-7.727-2.031-7.733-2.03a1.336,1.336,0,1,0,.031,2.672s1.952-.041,6.725,1.841" transform="translate(108.202 32.638)" fill="#281a15" fill-rule="evenodd"/>
    <path id="Path_101" data-name="Path 101" d="M33.511,146.977c-2.955-4.6-7.534-8.4-13.683-9.262-.451-.063-.891-.109-1.364-.136a4.084,4.084,0,0,0-1.676-.109,22.7,22.7,0,0,0-3.2-.723q.017-.447-.005-.922c-.3-6.192-6.053-8.359-11.457-8.412,13.483-8.516,23.413-20.889,26.629-35.758a19.351,19.351,0,0,0,6.389,9.811,38.242,38.242,0,0,1,15.92,21.2,36.044,36.044,0,0,1,.029,19.923c-.75-8.427-3.019-16.865-8.937-22.333a1.336,1.336,0,0,0-2.165,1.411,54.96,54.96,0,0,1,1.579,19.536,50.108,50.108,0,0,1-4.289,15.5,26.362,26.362,0,0,0-3.773-9.724m.355-6.324a.973.973,0,0,0-.472.463.367.367,0,1,0,.691.237c.033-.153.181-.425.01-.622a.2.2,0,0,0-.229-.079m1.63,2.265c-.072-.236-.368-.079-.358-.045-.33.03-.319.571.04.535a.353.353,0,0,0,.318-.49m1.795.769a.227.227,0,0,0-.381-.075,2.358,2.358,0,0,0-.479,1.006c-.1.373-.293.731-.367,1.108-.059.3.31.592.573.382a2.488,2.488,0,0,0,.653-2.42m1.573-2.1c-.27,1.384-.2,2.822-.44,4.215a17.486,17.486,0,0,1-1.236,3.794c-.1.251.173.568.423.377,1.12-.86,1.47-2.687,1.665-4a9.994,9.994,0,0,0-.008-4.415.212.212,0,0,0-.406.029M22.544,111.707a.108.108,0,0,0,.041-.211.108.108,0,0,0-.041.211m-1.409,1.026a1.15,1.15,0,0,1,.548.376c.275.278.664-.119.491-.427a1.289,1.289,0,0,0-.908-.592.328.328,0,0,0-.131.643m-.769,2.185c.555.467,1.144-.524.529-.779a4.246,4.246,0,0,1-.736-.319c-.308-.2-.6.281-.349.515.2.185.349.411.556.583M13.774,122.6a.353.353,0,0,0,.137-.692l-.257-.064c-.457-.116-.609.644-.142.715l.263.041m-1.007,2.02a.406.406,0,0,0,.16-.8c-.32-.057-.646-.088-.97-.127a.34.34,0,0,0-.132.667c.313.088.624.185.942.256m.68,1.4c-.735-.57-1.728.055-3.956-1.048a.272.272,0,0,0-.3.442,4.124,4.124,0,0,0,2.192,1.074c.62.111,1.483.365,2.037-.02a.287.287,0,0,0,.03-.448" transform="translate(124.051 23.465)" fill="#ca4b18" fill-rule="evenodd"/>
    <path id="Path_102" data-name="Path 102" d="M78.478,138.212c.023.02,10.569,8.094,6.208,13.378-4.558,5.519-17.989-1.373-18.029-1.382a1.318,1.318,0,0,0-1.923,1.02c-.009.041-1.722,14.263-9.663,12.676-8.1-1.622-5.459-16.518-5.45-16.558a1.33,1.33,0,0,0-1.781-1.475c-.028.008-9.514,3.68-12.337-3.835a6,6,0,0,1-.284-1.02,45.542,45.542,0,0,0,4.811-1.54,1.342,1.342,0,0,0-.232-2.6c-1.186-.158-2.339-.337-3.477-.522,2.138-3.021,6.5-4.951,8.317-5.656a20.43,20.43,0,0,0,3.885,8.62c3.851,4.931,9.366,6.774,15.887,4.927,7.7-2.2,10.568-6.432,11.309-10.68.72-4.071-.588-8.028-1.329-10.11a1.227,1.227,0,0,0,.324-.152,10.908,10.908,0,0,1,4.711-1.036c4.053-.185,9.678.833,9.915,5.845.349,7.4-10.072,7.706-10.1,7.714a1.332,1.332,0,0,0-1.285,1.379,1.313,1.313,0,0,0,.522,1" transform="translate(45.622 31.297)" fill="#ecc228" fill-rule="evenodd"/>
    <path id="Path_103" data-name="Path 103" d="M76.073,151.445c4.1,1.789,14.9,5.711,19.665-.05,4.435-5.382-1.009-11.959-4.372-15.2,3.11-.634,7.688-2.288,9.169-6.556a19.014,19.014,0,0,1,3.409.806c.363.328.834.671,1.38,1.075,38.067,28.028-19.284,52.2-47.927,55.609a26.126,26.126,0,0,1-11.686-2.515c3.493-7.892,3.111-16.67-4.2-22.616,3.907-.472,7.236,3.742,8.918,7.422a1.346,1.346,0,0,0,2.528-.219c3.335-13.05-9.783-19.947-21.86-26.31a91.846,91.846,0,0,1-11.5-6.722,31.32,31.32,0,0,0,21.982,3.533,9.968,9.968,0,0,0,.406,1.369c2.807,7.468,10.141,6.833,13.737,6-.438,4.7-.585,15.882,7.815,17.562,8.636,1.727,11.668-8.859,12.536-13.189M98.3,138.762a.164.164,0,1,0,.178.268l.121-.109c.1-.093-.026-.286-.151-.227Zm-1.777-.913a.336.336,0,0,0-.132.658c1.325.236,1.576-.82,1.007-.82-.278,0-.353.256-.875.162m-1.923-.614a3.792,3.792,0,0,0,1.873-.242,3.118,3.118,0,0,0,1.447-.8c.1-.134.07-.407-.141-.419a4.017,4.017,0,0,0-1.566.462,15.024,15.024,0,0,1-1.648.486.267.267,0,0,0,.035.511M75.9,161.445c.2-.4-.363-.624-.58-.947-.3-.443-1,.024-.686.458.266.373.987,1.045,1.266.489m1.727-2.192a2.078,2.078,0,0,0-.627-.579c-.338-.237-.764.21-.435.492a7.561,7.561,0,0,1,.531.549c.291.3.732-.133.53-.462m-.457-2.409c.558.495.9,1.11,1.363,1.127.225.008.318-.24.279-.418-.065-.29-.394-.46-.612-.633s-.423-.347-.648-.506c-.3-.211-.664.178-.382.431m.759-2.227c1.026.676,2.675,1.486,3.938,1.211a.257.257,0,0,0,.087-.432c-.77-.54-2.3-.453-3.767-1.294-.329-.188-.563.315-.257.515m-24.369-.482c.181.26.512.077.629-.144.175-.337-.4-.549-.49-.17-.02.084-.239.17-.139.314m-.3-2.66a.755.755,0,0,0,.78-.028c.317-.172,0-.673-.315-.474-.178.113-.4.078-.5.3a.164.164,0,0,0,.039.2m.046-2.089c.126.2.435.209.648.255a.219.219,0,0,0,.087-.428c-.219-.04-.5-.152-.7-.014a.133.133,0,0,0-.036.187" transform="translate(36.633 33.191)" fill="#c6302a" fill-rule="evenodd"/>
    <path id="Path_104" data-name="Path 104" d="M73.013,124.788c2.261,6.951,1.284,13.426-8.565,16.232-5.408,1.54-9.838.121-13.055-4.005a18.222,18.222,0,0,1-3.362-7.279A76.823,76.823,0,0,0,69.847,124.9a17.942,17.942,0,0,0-2.374,7.279,1.337,1.337,0,0,0,2.668.178,16.825,16.825,0,0,1,2.873-7.567M55.528,136.541c.18-.376-.676-.4-.862-.533-.445-.322-.774.315-.466.524a1.473,1.473,0,0,0,.735.266.577.577,0,0,0,.593-.257m-1.31-2.849a13.67,13.67,0,0,1-1.483-.364c-.333-.1-.525.458-.2.58a14.142,14.142,0,0,0,1.544.479c.391.1.766.261,1.127.03a.223.223,0,0,0,.062-.305c-.246-.354-.653-.343-1.049-.42m-3.577-2.635a5.556,5.556,0,0,0,5.172.359A.232.232,0,0,0,55.73,131c-.924-.094-1.845.085-2.77-.046a21.6,21.6,0,0,0-2.157-.371.275.275,0,0,0-.163.477" transform="translate(44.858 31.948)" fill="#d88b73" fill-rule="evenodd"/>
    <path id="Path_105" data-name="Path 105" d="M75.036,108.56c8.072,13.256,20.669,23.765,38.636,25.255a16.074,16.074,0,0,0-5.9,5.537c-10.257-1.969-18.347-5.167-23.911-9.825-6.08-5.071-9.166-11.96-8.824-20.967" transform="translate(-28.674 27.793)" fill="#923329" fill-rule="evenodd"/>
    <path id="Path_106" data-name="Path 106" d="M40.294,97.261c1.968,6.411,5.774,14.129,7.855,25.488a48.555,48.555,0,0,1-1.079,22.7c-2.958-4.559-7.515-8.31-13.621-9.166-.451-.063-.891-.109-1.364-.136a4.085,4.085,0,0,0-1.676-.109,22.693,22.693,0,0,0-3.2-.723q.017-.447-.005-.922c-.3-6.192-6.053-8.359-11.457-8.412,11.293-7.133,20.092-16.971,24.544-28.718m7.193,41.957a.973.973,0,0,0-.472.463.367.367,0,1,0,.691.237c.033-.153.181-.425.01-.622a.2.2,0,0,0-.229-.079M36.165,110.272a.108.108,0,0,0,.041-.211.108.108,0,0,0-.041.211M34.755,111.3a1.15,1.15,0,0,1,.548.376c.275.278.664-.119.491-.427a1.289,1.289,0,0,0-.908-.592.328.328,0,0,0-.131.643m-.769,2.185c.555.467,1.144-.524.529-.779a4.247,4.247,0,0,1-.736-.319c-.308-.2-.6.281-.349.515.2.185.349.411.556.583M27.4,121.168a.353.353,0,0,0,.137-.692l-.257-.064c-.457-.116-.609.644-.142.715l.263.041m-1.007,2.02a.406.406,0,0,0,.16-.8c-.32-.057-.646-.088-.97-.127a.34.34,0,0,0-.132.667c.313.088.624.185.942.256m.68,1.4c-.735-.57-1.728.055-3.956-1.048a.272.272,0,0,0-.3.442A4.123,4.123,0,0,0,25,125.054c.62.111,1.483.366,2.037-.02a.287.287,0,0,0,.03-.448" transform="translate(110.43 24.9)" fill="#923329" fill-rule="evenodd"/>
    <path id="Path_107" data-name="Path 107" d="M148.7,12.521C133.07,23.255,106.847,36.484,74.889,35.6A227.681,227.681,0,0,1,46.68,33.256a.139.139,0,0,0-.216-.09l-.067.048q-2.82-.443-5.212-.913a63.248,63.248,0,0,1,7.389-9.98C77,23.455,103.33,22.146,126.134,3.7A68.32,68.32,0,0,1,148.7,12.521" transform="translate(-21.216 0.948)" fill="#d47a37" fill-rule="evenodd"/>
    <path id="Path_108" data-name="Path 108" d="M80.782,89.87c19.917-5.127,51.049-31.642,58.577-55.608,1.6,11.558.05,21.953-4.576,31.2q-7.468,14.908-25.526,25.989a1.328,1.328,0,0,0-.636,1.267,22.533,22.533,0,0,0,3.567,11.852,20.588,20.588,0,0,0,5.072,5.15,12.909,12.909,0,0,1-3.958-.614,19.221,19.221,0,0,1-7.467-4.851l-1.04-1.492c-3.229-5.062-8.778-12.848-16.582-7.521-3.478,2.375-4.606,8.292-3.492,14.384,1.022,5.55,3.879,11.332,8.523,14.715,4.013,2.93,9.274,4.075,15.709,1.768-1.576,21.615,14.566,30.893,34.371,34.805-.03.172-.058.344-.079.52-9.683,1.909-19.114-.345-27.4-8.41a1.332,1.332,0,0,0-2.221,1.274c1.035,6.433,9.258,10.768,18.04,15.391,9.792,5.155,20.327,10.7,20.9,19.4-3.124-4.392-7.834-7.041-12.749-4.243a1.339,1.339,0,0,0,.024,2.339,14.448,14.448,0,0,1,6.975,10.091c.644,4.113-.492,8.558-2.688,12.622a3.956,3.956,0,0,1-.293-.578c-1.774-4.407-4.772-6.353-8.29-6.8l-.658-.068a16.9,16.9,0,0,0-4.118.244c-8.911.561-15.262.86-20.135-7.321-5.844-9.808-5.647-11.956-5.647-11.962a1.336,1.336,0,0,0-2.659-.241,16.438,16.438,0,0,1-3.144,7.436c-3.224,4.213-8.364,6.426-13.423,4.333,5.928-1.949,7.687-7.11,7.358-13.216-.358-6.692-3.352-14.653-5.915-20.236-6.466-20.228-12.418-45.155-14.09-69.645,2.189-.563,4.726-1.217,7.674-1.974m20.98,39.938a.347.347,0,0,0-.681-.137c-.063.322-.133.642-.178.965-.035.237-.087.466.108.642a.2.2,0,0,0,.2.039c.275-.1.322-.4.377-.656.063-.283.118-.568.176-.853m2.056,1.943a4.157,4.157,0,0,0,.561-2.143.277.277,0,0,0-.543-.109,4.175,4.175,0,0,0-.306,2.194.172.172,0,0,0,.288.058m3.759.906a5.373,5.373,0,0,0-.161-1.92c-.089-.692-.143-1.388-.224-2.08-.03-.279-.489-.339-.519-.034a10.744,10.744,0,0,0,.048,2.164,4.339,4.339,0,0,0,.435,1.952.234.234,0,0,0,.421-.082m-16.507,23.1c-.152.013-.3.029-.451.05a.186.186,0,0,0-.07.349c.131.078.264.152.4.222.489.251.672-.668.123-.622m1.914,3.949a.4.4,0,1,0-.353-.715c-.225.171-.541.141-.8.226-.431.142.435.845,1.154.489m15.709-80c.055-.134-.09-.3-.224-.2a4.008,4.008,0,0,1-1.188.765c-.437.123-.2.813.232.671a1.939,1.939,0,0,0,1.179-1.237m1.372,2.9c-.535.068-.7,1.064-1.552,1.359a.275.275,0,0,0,.108.531,1.54,1.54,0,0,0,1.179-.536c.742-.791.577-1.393.265-1.354m.353,3.93c-.492.173-2.169.445-1.728.707,1.264.751,3.086-.364,4.068-1.169a10.448,10.448,0,0,0,3.175-3.948.174.174,0,0,0-.284-.193c-1.421,1.436-3.154,3.88-5.231,4.6m25.635,90.351c.31.045.406-.436.094-.479a1.319,1.319,0,0,0-1.173.418.148.148,0,0,0,.157.237,2.837,2.837,0,0,1,.922-.177m3.072,1.964a2.716,2.716,0,0,1-1.309.815,13.294,13.294,0,0,0-1.486.268c-.107.044-.148.222-.018.271a3.014,3.014,0,0,0,3.06-1.132c.129-.171-.1-.383-.247-.222m2.846,1.967a10.368,10.368,0,0,0-1.987.48c-1.515.587-1.319,1.1-1.143,1.065.834-.168.69-.776,3.149-1.272.167-.036.156-.305-.019-.273m-47.006-16.4c-.774-.161-1.529-.371-2.311-.49a.167.167,0,0,0-.142.288,3.842,3.842,0,0,0,2.3.939.376.376,0,0,0,.148-.737" transform="translate(-65.173 8.772)" fill="#923329" fill-rule="evenodd"/>
    <path id="Path_109" data-name="Path 109" d="M30.3,62.187a147.375,147.375,0,0,1-6.6-15.812,93.071,93.071,0,0,0,11.176-.648c.226,5.116.311,9.924.34,11.992-2.182.906-3.418,4.118-3.939,6.576q-.49-1.055-.973-2.109m-.446-7.934A.373.373,0,0,0,30,53.522a7.831,7.831,0,0,1-1.088-.274.32.32,0,0,0-.288.571,4.2,4.2,0,0,0,1.23.433m.6,2.458a.317.317,0,0,0,.118-.6,3.3,3.3,0,0,0-.489-.131.335.335,0,0,0-.133.657,4.016,4.016,0,0,0,.5.07m-3.341-6.053c.686.4,2.049,1.231,2.788.566a.217.217,0,0,0-.016-.308,2.486,2.486,0,0,0-1.114-.257,6.989,6.989,0,0,1-1.452-.409.229.229,0,0,0-.206.408m-1.807-2.5c3.3,2.53,4.534.534,3.855.4-.652-.128-1.3-.026-1.964-.183-.588-.139-1.179-.294-1.756-.481-.146-.048-.25.178-.134.268" transform="translate(114.242 11.707)" fill="#923329" fill-rule="evenodd"/>
  </g>
</svg>
