<svg xmlns="http://www.w3.org/2000/svg" xmlns:xlink="http://www.w3.org/1999/xlink" width="322.555" height="54.91" viewBox="0 0 322.555 54.91">
  <defs>
    <clipPath id="clip-path">
      <rect id="Rectangle_28" data-name="Rectangle 28" width="322.555" height="54.91" fill="none"/>
    </clipPath>
  </defs>
  <g id="Group_23" data-name="Group 23" clip-path="url(#clip-path)">
    <path id="Path_197" data-name="Path 197" d="M219.939,46.617a122.079,122.079,0,0,0,13.492-8.909,18.68,18.68,0,0,0,4.051-23.97c-2.556-4.059-7.154-5.368-11.186-3.188-1.738.938-3.434,1.952-5.154,2.992-.279-1.355-.569-2.7-.9-4.045C219,4.551,215.585,1.35,210.355.241c-3.987-.85-7.463.543-10.614,4.254-3.467,4.082-4.229,9.059-4.517,13.391a89.473,89.473,0,0,0,2.822,28.984c.325,1.792,1.874,8.042,2.093,8.04a55.675,55.675,0,0,0,8.376-2.15,12.786,12.786,0,0,0,1.337-.57c.1-.048.2-.1.295-.143,2.082-1.015,4.233-2.064,6.266-3.3q1.754-1.07,3.527-2.125M206.6,44.56a2.447,2.447,0,0,1-.438.168,73.845,73.845,0,0,1-2.207-28.971,13.221,13.221,0,0,1,2.2-6.188,3.781,3.781,0,0,1,3.117-1.137,3.294,3.294,0,0,1,1.98,1.432c2,3.007,3.055,11.894,3.178,13.117l.722,4.408s9.183-8.974,12.2-8.648c1.339.145,4.729.652,4.891,3.179.5,7.715-2.852,9.512-9.847,13.993-3.852,2.467-8.058,4.638-12.127,6.74q-1.841.947-3.671,1.906" transform="translate(-37.977 0)" fill="#d8639b"/>
    <path id="Path_198" data-name="Path 198" d="M23.152,15.742a19.922,19.922,0,0,0-5.938-1.119,6.984,6.984,0,0,0-3.729.86,2.794,2.794,0,0,0-1.377,2.525,3.534,3.534,0,0,0,1.979,3.242A30.583,30.583,0,0,0,20.2,23.574,53.022,53.022,0,0,1,27,25.984,12.05,12.05,0,0,1,31.559,29.6a10.018,10.018,0,0,1,1.893,6.369,10.919,10.919,0,0,1-2.037,6.627,12.547,12.547,0,0,1-5.6,4.217,21.469,21.469,0,0,1-8.091,1.435,27.69,27.69,0,0,1-9.582-1.721A25.849,25.849,0,0,1,0,41.821l3.616-7.4a24.374,24.374,0,0,0,7,4.419A18.857,18.857,0,0,0,17.846,40.5a7.972,7.972,0,0,0,4.39-1.032,3.605,3.605,0,0,0,.516-5.537,8.12,8.12,0,0,0-2.7-1.636q-1.634-.631-4.5-1.435a51.029,51.029,0,0,1-6.742-2.3,11.832,11.832,0,0,1-4.5-3.5,9.68,9.68,0,0,1-1.893-6.255,10.6,10.6,0,0,1,1.951-6.34,12.383,12.383,0,0,1,5.45-4.189,20.992,20.992,0,0,1,8.149-1.463,28.179,28.179,0,0,1,8.147,1.205,27.551,27.551,0,0,1,7.115,3.213l-3.5,7.516a30.465,30.465,0,0,0-6.571-3.011" transform="translate(0 -1.328)" fill="#89c069"/>
    <path id="Path_199" data-name="Path 199" d="M49.452,7.746H80.035v7.516H58.517v8.723H77.855V31.5H58.517v8.894H80.666v7.516H49.452Z" transform="translate(-9.63 -1.508)" fill="#89c069"/>
    <path id="Path_200" data-name="Path 200" d="M124.822,7.746h8.606V47.911h-8.262l-19.452-25.82v25.82H97.049V7.746h8.264l19.509,25.935Z" transform="translate(-18.898 -1.508)" fill="#89c069"/>
    <path id="Path_201" data-name="Path 201" d="M172.289,15.742a19.926,19.926,0,0,0-5.938-1.119,6.982,6.982,0,0,0-3.729.86,2.794,2.794,0,0,0-1.377,2.525,3.534,3.534,0,0,0,1.979,3.242,30.583,30.583,0,0,0,6.111,2.324,53.066,53.066,0,0,1,6.8,2.409A12.056,12.056,0,0,1,180.7,29.6a10.018,10.018,0,0,1,1.893,6.369,10.919,10.919,0,0,1-2.037,6.627,12.547,12.547,0,0,1-5.6,4.217,21.469,21.469,0,0,1-8.091,1.435,27.69,27.69,0,0,1-9.582-1.721,25.849,25.849,0,0,1-8.149-4.705l3.616-7.4a24.374,24.374,0,0,0,7,4.419,18.857,18.857,0,0,0,7.231,1.664,7.972,7.972,0,0,0,4.389-1.032,3.607,3.607,0,0,0,.516-5.537,8.12,8.12,0,0,0-2.7-1.636q-1.635-.631-4.5-1.435a51.087,51.087,0,0,1-6.743-2.3,11.823,11.823,0,0,1-4.5-3.5,9.68,9.68,0,0,1-1.893-6.255,10.6,10.6,0,0,1,1.95-6.34,12.383,12.383,0,0,1,5.45-4.189A20.992,20.992,0,0,1,167.1,6.819a28.18,28.18,0,0,1,8.148,1.205,27.563,27.563,0,0,1,7.115,3.213l-3.5,7.516a30.5,30.5,0,0,0-6.571-3.011" transform="translate(-29.041 -1.328)" fill="#89c069"/>
    <path id="Path_202" data-name="Path 202" d="M280.692,47.911l-6.368-11.475h-9.239V47.911h-9.066V7.746h17.443q7.861,0,12.166,3.644t4.3,10.3a15.545,15.545,0,0,1-1.921,7.948,12.353,12.353,0,0,1-5.594,5.02l8.55,13.255Zm-15.607-19.05h8.377a8.675,8.675,0,0,0,5.825-1.75,6.4,6.4,0,0,0,2.037-5.135,6.153,6.153,0,0,0-2.037-5.021,8.884,8.884,0,0,0-5.825-1.693h-8.377Z" transform="translate(-49.855 -1.508)" fill="#89c069"/>
    <rect id="Rectangle_27" data-name="Rectangle 27" width="9.066" height="40.165" transform="translate(247.708 6.238)" fill="#89c069"/>
    <path id="Path_203" data-name="Path 203" d="M358.883,9.658A20.141,20.141,0,0,1,369.5,27.619a20.315,20.315,0,0,1-10.614,18.046,23.4,23.4,0,0,1-21.92,0,20.386,20.386,0,0,1-7.774-7.46,20.181,20.181,0,0,1-2.84-10.586A20.187,20.187,0,0,1,336.934,9.658a23.683,23.683,0,0,1,21.948,0m-17.042,6.914a12.357,12.357,0,0,0-4.533,4.62,13.019,13.019,0,0,0,4.561,17.559,11.691,11.691,0,0,0,6.168,1.72,11.524,11.524,0,0,0,6.111-1.693,12.3,12.3,0,0,0,4.419-4.648,13.214,13.214,0,0,0,1.635-6.511,12.953,12.953,0,0,0-1.635-6.427,12.38,12.38,0,0,0-4.419-4.62,11.539,11.539,0,0,0-6.111-1.693,11.985,11.985,0,0,0-6.2,1.693" transform="translate(-63.55 -1.356)" fill="#89c069"/>
    <path id="Path_204" data-name="Path 204" d="M394.281,1.095a6.417,6.417,0,0,1,3.173,5.56,6.35,6.35,0,0,1-.853,3.21,6.436,6.436,0,0,1-2.33,2.368,6.444,6.444,0,0,1-6.488.01,6.424,6.424,0,0,1-3.153-5.55,6.35,6.35,0,0,1,.852-3.211A6.472,6.472,0,0,1,387.8,1.114a6.193,6.193,0,0,1,3.248-.881,6.27,6.27,0,0,1,3.23.862m-.7,9.917a5.027,5.027,0,0,0,1.838-1.838,4.918,4.918,0,0,0,.672-2.519,4.965,4.965,0,0,0-2.481-4.329,5,5,0,0,0-2.558-.672,4.938,4.938,0,0,0-2.557.682,5.038,5.038,0,0,0-1.828,1.838,4.921,4.921,0,0,0-.673,2.52,4.969,4.969,0,0,0,5.02,5,4.991,4.991,0,0,0,2.566-.681m-.122-4.271a1.963,1.963,0,0,1-.871.767l1.344,2.045h-1.572l-.985-1.78h-1.4v1.78h-1.364V3.4h2.615a2.825,2.825,0,0,1,1.875.559,1.931,1.931,0,0,1,.664,1.562,2.332,2.332,0,0,1-.3,1.222m-3.486-.067h1.251a1.331,1.331,0,0,0,.909-.284,1.029,1.029,0,0,0,.322-.814,1,1,0,0,0-.322-.805,1.362,1.362,0,0,0-.909-.275h-1.251Z" transform="translate(-74.899 -0.045)" fill="#89c069"/>
  </g>
</svg>
