<svg xmlns="http://www.w3.org/2000/svg" xmlns:xlink="http://www.w3.org/1999/xlink" width="414" height="1031" viewBox="0 0 414 1031">
  <defs>
    <clipPath id="clip-path">
      <rect id="Rectangle_28" data-name="Rectangle 28" width="322.555" height="54.91" fill="none"/>
    </clipPath>
  </defs>
  <g id="Group_45" data-name="Group 45" transform="translate(0 -7656)">
    <g id="Rectangle_26" data-name="Rectangle 26" transform="translate(0 7656)" fill="#fff8eb" stroke="#171717" stroke-width="2">
      <rect width="414" height="1031" stroke="none"/>
      <rect x="1" y="1" width="412" height="1029" fill="none"/>
    </g>
    <g id="Group_24" data-name="Group 24" transform="translate(46.441 7731.639)">
      <g id="Group_23" data-name="Group 23" transform="translate(0 0)" clip-path="url(#clip-path)">
        <path id="Path_197" data-name="Path 197" d="M219.939,46.617a122.079,122.079,0,0,0,13.492-8.909,18.68,18.68,0,0,0,4.051-23.97c-2.556-4.059-7.154-5.368-11.186-3.188-1.738.938-3.434,1.952-5.154,2.992-.279-1.355-.569-2.7-.9-4.045C219,4.551,215.585,1.35,210.355.241c-3.987-.85-7.463.543-10.614,4.254-3.467,4.082-4.229,9.059-4.517,13.391a89.473,89.473,0,0,0,2.822,28.984c.325,1.792,1.874,8.042,2.093,8.04a55.675,55.675,0,0,0,8.376-2.15,12.786,12.786,0,0,0,1.337-.57c.1-.048.2-.1.295-.143,2.082-1.015,4.233-2.064,6.266-3.3q1.754-1.07,3.527-2.125M206.6,44.56a2.447,2.447,0,0,1-.438.168,73.845,73.845,0,0,1-2.207-28.971,13.221,13.221,0,0,1,2.2-6.188,3.781,3.781,0,0,1,3.117-1.137,3.294,3.294,0,0,1,1.98,1.432c2,3.007,3.055,11.894,3.178,13.117l.722,4.408s9.183-8.974,12.2-8.648c1.339.145,4.729.652,4.891,3.179.5,7.715-2.852,9.512-9.847,13.993-3.852,2.467-8.058,4.638-12.127,6.74q-1.841.947-3.671,1.906" transform="translate(-37.977 0)" fill="#d8639b"/>
        <path id="Path_198" data-name="Path 198" d="M23.152,15.742a19.922,19.922,0,0,0-5.938-1.119,6.984,6.984,0,0,0-3.729.86,2.794,2.794,0,0,0-1.377,2.525,3.534,3.534,0,0,0,1.979,3.242A30.583,30.583,0,0,0,20.2,23.574,53.022,53.022,0,0,1,27,25.984,12.05,12.05,0,0,1,31.559,29.6a10.018,10.018,0,0,1,1.893,6.369,10.919,10.919,0,0,1-2.037,6.627,12.547,12.547,0,0,1-5.6,4.217,21.469,21.469,0,0,1-8.091,1.435,27.69,27.69,0,0,1-9.582-1.721A25.849,25.849,0,0,1,0,41.821l3.616-7.4a24.374,24.374,0,0,0,7,4.419A18.857,18.857,0,0,0,17.846,40.5a7.972,7.972,0,0,0,4.39-1.032,3.605,3.605,0,0,0,.516-5.537,8.12,8.12,0,0,0-2.7-1.636q-1.634-.631-4.5-1.435a51.029,51.029,0,0,1-6.742-2.3,11.832,11.832,0,0,1-4.5-3.5,9.68,9.68,0,0,1-1.893-6.255,10.6,10.6,0,0,1,1.951-6.34,12.383,12.383,0,0,1,5.45-4.189,20.992,20.992,0,0,1,8.149-1.463,28.179,28.179,0,0,1,8.147,1.205,27.551,27.551,0,0,1,7.115,3.213l-3.5,7.516a30.465,30.465,0,0,0-6.571-3.011" transform="translate(0 -1.328)" fill="#89c069"/>
        <path id="Path_199" data-name="Path 199" d="M49.452,7.746H80.035v7.516H58.517v8.723H77.855V31.5H58.517v8.894H80.666v7.516H49.452Z" transform="translate(-9.63 -1.508)" fill="#89c069"/>
        <path id="Path_200" data-name="Path 200" d="M124.822,7.746h8.606V47.911h-8.262l-19.452-25.82v25.82H97.049V7.746h8.264l19.509,25.935Z" transform="translate(-18.898 -1.508)" fill="#89c069"/>
        <path id="Path_201" data-name="Path 201" d="M172.289,15.742a19.926,19.926,0,0,0-5.938-1.119,6.982,6.982,0,0,0-3.729.86,2.794,2.794,0,0,0-1.377,2.525,3.534,3.534,0,0,0,1.979,3.242,30.583,30.583,0,0,0,6.111,2.324,53.066,53.066,0,0,1,6.8,2.409A12.056,12.056,0,0,1,180.7,29.6a10.018,10.018,0,0,1,1.893,6.369,10.919,10.919,0,0,1-2.037,6.627,12.547,12.547,0,0,1-5.6,4.217,21.469,21.469,0,0,1-8.091,1.435,27.69,27.69,0,0,1-9.582-1.721,25.849,25.849,0,0,1-8.149-4.705l3.616-7.4a24.374,24.374,0,0,0,7,4.419,18.857,18.857,0,0,0,7.231,1.664,7.972,7.972,0,0,0,4.389-1.032,3.607,3.607,0,0,0,.516-5.537,8.12,8.12,0,0,0-2.7-1.636q-1.635-.631-4.5-1.435a51.087,51.087,0,0,1-6.743-2.3,11.823,11.823,0,0,1-4.5-3.5,9.68,9.68,0,0,1-1.893-6.255,10.6,10.6,0,0,1,1.95-6.34,12.383,12.383,0,0,1,5.45-4.189A20.992,20.992,0,0,1,167.1,6.819a28.18,28.18,0,0,1,8.148,1.205,27.563,27.563,0,0,1,7.115,3.213l-3.5,7.516a30.5,30.5,0,0,0-6.571-3.011" transform="translate(-29.041 -1.328)" fill="#89c069"/>
        <path id="Path_202" data-name="Path 202" d="M280.692,47.911l-6.368-11.475h-9.239V47.911h-9.066V7.746h17.443q7.861,0,12.166,3.644t4.3,10.3a15.545,15.545,0,0,1-1.921,7.948,12.353,12.353,0,0,1-5.594,5.02l8.55,13.255Zm-15.607-19.05h8.377a8.675,8.675,0,0,0,5.825-1.75,6.4,6.4,0,0,0,2.037-5.135,6.153,6.153,0,0,0-2.037-5.021,8.884,8.884,0,0,0-5.825-1.693h-8.377Z" transform="translate(-49.855 -1.508)" fill="#89c069"/>
        <rect id="Rectangle_27" data-name="Rectangle 27" width="9.066" height="40.165" transform="translate(247.708 6.238)" fill="#89c069"/>
        <path id="Path_203" data-name="Path 203" d="M358.883,9.658A20.141,20.141,0,0,1,369.5,27.619a20.315,20.315,0,0,1-10.614,18.046,23.4,23.4,0,0,1-21.92,0,20.386,20.386,0,0,1-7.774-7.46,20.181,20.181,0,0,1-2.84-10.586A20.187,20.187,0,0,1,336.934,9.658a23.683,23.683,0,0,1,21.948,0m-17.042,6.914a12.357,12.357,0,0,0-4.533,4.62,13.019,13.019,0,0,0,4.561,17.559,11.691,11.691,0,0,0,6.168,1.72,11.524,11.524,0,0,0,6.111-1.693,12.3,12.3,0,0,0,4.419-4.648,13.214,13.214,0,0,0,1.635-6.511,12.953,12.953,0,0,0-1.635-6.427,12.38,12.38,0,0,0-4.419-4.62,11.539,11.539,0,0,0-6.111-1.693,11.985,11.985,0,0,0-6.2,1.693" transform="translate(-63.55 -1.356)" fill="#89c069"/>
        <path id="Path_204" data-name="Path 204" d="M394.281,1.095a6.417,6.417,0,0,1,3.173,5.56,6.35,6.35,0,0,1-.853,3.21,6.436,6.436,0,0,1-2.33,2.368,6.444,6.444,0,0,1-6.488.01,6.424,6.424,0,0,1-3.153-5.55,6.35,6.35,0,0,1,.852-3.211A6.472,6.472,0,0,1,387.8,1.114a6.193,6.193,0,0,1,3.248-.881,6.27,6.27,0,0,1,3.23.862m-.7,9.917a5.027,5.027,0,0,0,1.838-1.838,4.918,4.918,0,0,0,.672-2.519,4.965,4.965,0,0,0-2.481-4.329,5,5,0,0,0-2.558-.672,4.938,4.938,0,0,0-2.557.682,5.038,5.038,0,0,0-1.828,1.838,4.921,4.921,0,0,0-.673,2.52,4.969,4.969,0,0,0,5.02,5,4.991,4.991,0,0,0,2.566-.681m-.122-4.271a1.963,1.963,0,0,1-.871.767l1.344,2.045h-1.572l-.985-1.78h-1.4v1.78h-1.364V3.4h2.615a2.825,2.825,0,0,1,1.875.559,1.931,1.931,0,0,1,.664,1.562,2.332,2.332,0,0,1-.3,1.222m-3.486-.067h1.251a1.331,1.331,0,0,0,.909-.284,1.029,1.029,0,0,0,.322-.814,1,1,0,0,0-.322-.805,1.362,1.362,0,0,0-.909-.275h-1.251Z" transform="translate(-74.899 -0.045)" fill="#89c069"/>
      </g>
    </g>
    <g id="_001-facebook" data-name="001-facebook" transform="translate(171.389 7916.897)">
      <path id="Path_205" data-name="Path 205" d="M291.484,508.668q-.313.051-.628.094Q291.171,508.719,291.484,508.668Zm0,0" transform="translate(-262.394 -458.892)" fill="#89c069"/>
      <path id="Path_206" data-name="Path 206" d="M299.639,507.793l-.3.052Zm0,0" transform="translate(-270.048 -458.103)" fill="#89c069"/>
      <path id="Path_207" data-name="Path 207" d="M278.346,510.34q-.366.041-.737.073Q277.979,510.382,278.346,510.34Zm0,0" transform="translate(-250.444 -460.4)" fill="#89c069"/>
      <path id="Path_208" data-name="Path 208" d="M286.8,509.738c-.117.016-.236.03-.353.044C286.563,509.769,286.681,509.754,286.8,509.738Zm0,0" transform="translate(-258.415 -459.858)" fill="#89c069"/>
      <path id="Path_209" data-name="Path 209" d="M306.929,506.41l-.264.055Zm0,0" transform="translate(-276.655 -456.855)" fill="#89c069"/>
      <path id="Path_210" data-name="Path 210" d="M324.7,502.113l-.213.059Zm0,0" transform="translate(-292.732 -452.979)" fill="#89c069"/>
      <path id="Path_211" data-name="Path 211" d="M319.291,503.543l-.232.06Zm0,0" transform="translate(-287.837 -454.268)" fill="#89c069"/>
      <path id="Path_212" data-name="Path 212" d="M312.313,505.254l-.247.055Zm0,0" transform="translate(-281.529 -455.812)" fill="#89c069"/>
      <path id="Path_213" data-name="Path 213" d="M273.876,511.09q-.2.017-.4.03Q273.679,511.107,273.876,511.09Zm0,0" transform="translate(-246.719 -461.077)" fill="#89c069"/>
      <path id="Path_214" data-name="Path 214" d="M50.1,25.051A25.051,25.051,0,1,0,25.051,50.1c.147,0,.294,0,.44-.006V30.6H20.109V24.323h5.382V19.707c0-5.353,3.268-8.267,8.043-8.267a44.3,44.3,0,0,1,4.825.247v5.595H35.067c-2.6,0-3.1,1.235-3.1,3.046v3.995h6.212l-.81,6.272h-5.4V49.134A25.065,25.065,0,0,0,50.1,25.051Zm0,0" fill="#89c069"/>
      <path id="Path_215" data-name="Path 215" d="M265.676,511.43q-.391.025-.785.039Q265.285,511.456,265.676,511.43Zm0,0" transform="translate(-238.97 -461.383)" fill="#89c069"/>
      <path id="Path_216" data-name="Path 216" d="M260.92,511.836q-.208.007-.416.01Q260.712,511.843,260.92,511.836Zm0,0" transform="translate(-235.012 -461.75)" fill="#89c069"/>
    </g>
    <path id="_010-linkedin" data-name="010-linkedin" d="M25.051,0A25.051,25.051,0,1,0,50.1,25.051,25.054,25.054,0,0,0,25.051,0Zm-7.28,37.87h-6.1V19.515h6.1Zm-3.05-20.862h-.04a3.18,3.18,0,1,1,.08-6.342,3.181,3.181,0,1,1-.041,6.342ZM39.771,37.87h-6.1v-9.82c0-2.468-.883-4.151-3.091-4.151a3.34,3.34,0,0,0-3.13,2.231,4.178,4.178,0,0,0-.2,1.489V37.87h-6.1s.08-16.633,0-18.355h6.1v2.6a6.057,6.057,0,0,1,5.5-3.03c4.014,0,7.024,2.623,7.024,8.261Zm0,0" transform="translate(46 7916.897)" fill="#89c069"/>
    <g id="_011-instagram" data-name="011-instagram" transform="translate(297.355 7916.897)">
      <path id="Path_217" data-name="Path 217" d="M216.59,211.795A4.795,4.795,0,1,1,211.795,207,4.795,4.795,0,0,1,216.59,211.795Zm0,0" transform="translate(-186.744 -186.744)" fill="#89c069"/>
      <path id="Path_218" data-name="Path 218" d="M158.491,138.8a4.763,4.763,0,0,0-2.73-2.73,7.959,7.959,0,0,0-2.671-.5c-1.517-.069-1.972-.084-5.813-.084s-4.3.015-5.813.084a7.964,7.964,0,0,0-2.671.5,4.765,4.765,0,0,0-2.73,2.73,7.961,7.961,0,0,0-.5,2.671c-.069,1.517-.084,1.972-.084,5.813s.015,4.3.084,5.813a7.958,7.958,0,0,0,.5,2.671,4.764,4.764,0,0,0,2.73,2.73,7.95,7.95,0,0,0,2.671.5c1.517.069,1.971.084,5.812.084s4.3-.015,5.813-.084a7.949,7.949,0,0,0,2.671-.5,4.763,4.763,0,0,0,2.73-2.73,7.966,7.966,0,0,0,.5-2.671c.069-1.517.084-1.972.084-5.813s-.015-4.3-.084-5.813A7.949,7.949,0,0,0,158.491,138.8Zm-11.214,15.87a7.387,7.387,0,1,1,7.387-7.387A7.387,7.387,0,0,1,147.278,154.668Zm7.679-13.339a1.726,1.726,0,1,1,1.726-1.726A1.726,1.726,0,0,1,154.956,141.329Zm0,0" transform="translate(-122.226 -122.23)" fill="#89c069"/>
      <path id="Path_219" data-name="Path 219" d="M25.051,0A25.051,25.051,0,1,0,50.1,25.051,25.054,25.054,0,0,0,25.051,0Zm14.3,30.982a10.554,10.554,0,0,1-.669,3.492,7.355,7.355,0,0,1-4.207,4.207,10.561,10.561,0,0,1-3.491.669c-1.534.07-2.024.087-5.931.087s-4.4-.017-5.931-.087a10.561,10.561,0,0,1-3.491-.669,7.355,7.355,0,0,1-4.207-4.207,10.551,10.551,0,0,1-.669-3.491c-.071-1.534-.087-2.024-.087-5.931s.016-4.4.087-5.931a10.555,10.555,0,0,1,.668-3.492,7.36,7.36,0,0,1,4.207-4.207,10.564,10.564,0,0,1,3.492-.669c1.534-.07,2.024-.087,5.931-.087s4.4.017,5.931.087a10.566,10.566,0,0,1,3.492.668,7.357,7.357,0,0,1,4.207,4.207,10.553,10.553,0,0,1,.669,3.492c.07,1.534.086,2.024.086,5.931S39.419,29.448,39.349,30.982Zm0,0" fill="#89c069"/>
    </g>
    <text id="Centrum_Integracji_Sensorycznej_i_Rozwoju_Dziecka_w_Katowicach" data-name="Centrum Integracji Sensorycznej i Rozwoju Dziecka w Katowicach" transform="translate(46.441 7834)" fill="#171717" font-size="22" font-family="SegoeUI, Segoe UI"><tspan x="0" y="0">Centrum Integracji Sensorycznej </tspan><tspan x="0" y="30">i Rozwoju Dziecka w Katowicach</tspan></text>
    <text id="_sensorio.katowice_gmail.com_" data-name=" sensorio.katowice@gmail.com
" transform="translate(48 8427)" fill="#171717" font-size="25" font-family="SegoeUI, Segoe UI"><tspan x="0" y="0" xml:space="preserve"> sensorio.katowice@gmail.com</tspan><tspan font-family="Avenir-Book, Avenir"><tspan x="0" y="35"></tspan></tspan></text>
    <g id="Group_33" data-name="Group 33" transform="translate(-149 257)">
      <text id="Pon:_Wt:_Śr:_Czw:_Pt:_" data-name="Pon: 
Wt: 
Śr: 
Czw:
Pt: " transform="translate(200 7871)" fill="#171717" font-size="25" font-family="SegoeUI, Segoe UI"><tspan x="0" y="0">Pon: </tspan><tspan x="0" y="35">Wt: </tspan><tspan x="0" y="70">Śr: </tspan><tspan x="0" y="105">Czw:</tspan><tspan x="0" y="140">Pt: </tspan></text>
      <text id="_15:00_-20:00_15:00_-_20:00_15:00_-_20:00_15:00_-_20:00_15:00_-_20:00" data-name="15:00 -20:00
15:00 - 20:00
15:00 - 20:00
15:00 - 20:00
15:00 - 20:00" transform="translate(292 7871)" fill="#171717" font-size="25" font-family="SegoeUI, Segoe UI"><tspan x="0" y="0">15:00 -20:00</tspan><tspan x="0" y="35">15:00 - 20:00</tspan><tspan x="0" y="70">15:00 - 20:00</tspan><tspan x="0" y="105">15:00 - 20:00</tspan><tspan x="0" y="140">15:00 - 20:00</tspan></text>
    </g>
    <text id="_48_785_270739_48_782732158" data-name="+ 48 785 270739
+ 48 782732158" transform="translate(48 8479)" fill="#171717" font-size="25" font-family="SegoeUI, Segoe UI"><tspan x="0" y="0">+ 48 785 270739</tspan><tspan x="0" y="35">+ 48 782732158</tspan></text>
    <text id="Al._B._Krzywoustego_6_40-870_Katowice" data-name="Al. B. Krzywoustego 6
40-870 Katowice" transform="translate(48 8560)" fill="#171717" font-size="25" font-family="SegoeUI, Segoe UI"><tspan x="0" y="0">Al. B. Krzywoustego 6</tspan><tspan x="0" y="35">40-870 Katowice</tspan></text>
    <text id="Kontakt" transform="translate(47.559 8366)" fill="#171717" font-size="35" font-family="SegoeUIBlack, Segoe UI"><tspan x="0" y="0">Kontakt</tspan></text>
    <text id="Godziny_pracy" data-name="Godziny pracy" transform="translate(51 8067)" fill="#171717" font-size="35" font-family="SegoeUIBlack, Segoe UI"><tspan x="0" y="0">Godziny pracy</tspan></text>
    <g id="home" transform="translate(11.559 8497.518)">
      <g id="Group_26" data-name="Group 26" transform="translate(4.003 47.651)">
        <g id="Group_25" data-name="Group 25">
          <path id="Path_220" data-name="Path 220" d="M88.891,152.96l-9,6.923v9.275h7.229v-6.8h3.84v6.8h6.924v-9.275Z" transform="translate(-79.894 -152.96)" fill="#89c069"/>
        </g>
      </g>
      <g id="Group_28" data-name="Group 28" transform="translate(0 41.982)">
        <g id="Group_27" data-name="Group 27">
          <path id="Path_221" data-name="Path 221" d="M22.317,49.193V44.451H18.551v1.827L13,41.982,0,52.043,1.795,54.39,13,45.715,24.205,54.39,26,52.043Z" transform="translate(0 -41.982)" fill="#89c069"/>
        </g>
      </g>
    </g>
    <g id="call" transform="translate(14.559 8454.926)">
      <g id="Group_30" data-name="Group 30" transform="translate(0 5.003)">
        <g id="Group_29" data-name="Group 29" transform="translate(0 0)">
          <path id="Path_222" data-name="Path 222" d="M184.592,118.491a.626.626,0,0,0-.064.214.514.514,0,1,0,1.025.085,1.047,1.047,0,0,1,.021-.235v-.235a5.643,5.643,0,0,0-.3-1.794,5.325,5.325,0,0,0-3.63-3.353A5.664,5.664,0,0,0,180.3,113a3.618,3.618,0,0,0-.47.021l-.448.064a.5.5,0,1,0,.171.982,2.1,2.1,0,0,1,.363-.043h.064c.107,0,.214-.021.32-.021a4.225,4.225,0,0,1,3.032,1.26,4.3,4.3,0,0,1,1.26,2.99v.235Z" transform="translate(-169.409 -107.238)" fill="#89c069"/>
          <path id="Path_223" data-name="Path 223" d="M178.323,68.6a.514.514,0,0,0,1.025.085c.021-.235.021-.47.021-.7a9.571,9.571,0,0,0-.107-1.367,8.191,8.191,0,0,0-7.41-6.79c-.214-.021-.448-.021-.662-.021-.235,0-.47,0-.7.021s-.47.043-.7.085a.5.5,0,1,0,.171.982c.15-.021.278-.043.427-.064.064,0,.128-.021.192-.021.214-.021.427-.021.619-.021a7.359,7.359,0,0,1,2.071.3,7.1,7.1,0,0,1,3.011,1.794,7.335,7.335,0,0,1,1.6,2.413,7.217,7.217,0,0,1,.512,2.648v.214A1.746,1.746,0,0,0,178.323,68.6Z" transform="translate(-160.322 -56.878)" fill="#89c069"/>
          <path id="Path_224" data-name="Path 224" d="M169.583,8.27A11.086,11.086,0,0,0,161.7,5c-.32,0-.641.021-.961.043a7.408,7.408,0,0,0-.961.128.5.5,0,0,0,.171.982c.149-.021.278-.043.427-.064a3.186,3.186,0,0,1,.448-.043c.3-.021.577-.043.875-.043a10.061,10.061,0,0,1,10.079,10.079v.47c0,.128-.021.256-.021.406a.514.514,0,0,0,1.025.085c.021-.32.043-.641.043-.94A11.056,11.056,0,0,0,169.583,8.27Z" transform="translate(-150.856 -5.003)" fill="#89c069"/>
          <path id="Path_225" data-name="Path 225" d="M21.182,34.725,17.4,32.7c-1.26-.683-1.3-.235-2.626,1.174-.32.342-.918,1.239-1.623,1.068-1.473-.363-4.228-2.52-5.125-3.5C7.6,30.966,5.765,28.724,5.744,28c-.043-1.11,2.392-1.666,1.6-3.78l-1.687-3.78c-1.58-3.63-6,2.178-5.637,4.89.94,6.684,12.663,17.489,19.2,13.923C20.67,38.44,22.634,35.6,21.182,34.725Z" transform="translate(0 -18.517)" fill="#89c069"/>
        </g>
      </g>
    </g>
    <g id="envelope_copy" data-name="envelope copy" transform="translate(15.559 8354.68)">
      <g id="Group_31" data-name="Group 31" transform="translate(0 54.82)">
        <path id="Path_226" data-name="Path 226" d="M2.112,60.148q.417.295,2.517,1.749t3.217,2.24q.123.086.522.375t.663.467q.264.178.639.4a3.7,3.7,0,0,0,.706.331,1.945,1.945,0,0,0,.614.11h.025a1.947,1.947,0,0,0,.614-.11,3.708,3.708,0,0,0,.706-.331q.374-.221.638-.4t.663-.467q.4-.289.522-.375l5.745-3.99a5.832,5.832,0,0,0,1.5-1.51,3.242,3.242,0,0,0,.6-1.854,1.981,1.981,0,0,0-1.964-1.964H1.964a1.753,1.753,0,0,0-1.455.638A2.478,2.478,0,0,0,0,57.054,2.868,2.868,0,0,0,.675,58.73,6.094,6.094,0,0,0,2.112,60.148Z" transform="translate(0 -54.82)" fill="#89c069"/>
        <path id="Path_227" data-name="Path 227" d="M20.772,185.505q-4.026,2.725-6.114,4.236-.7.515-1.136.8a7.008,7.008,0,0,1-1.16.589,3.533,3.533,0,0,1-1.35.3h-.025a3.534,3.534,0,0,1-1.35-.3,7.012,7.012,0,0,1-1.16-.589q-.436-.288-1.136-.8-1.657-1.215-6.1-4.236A6.5,6.5,0,0,1,0,184.437v9.747a1.891,1.891,0,0,0,.577,1.387,1.891,1.891,0,0,0,1.387.577H20.036A1.97,1.97,0,0,0,22,194.184v-9.747A6.77,6.77,0,0,1,20.772,185.505Z" transform="translate(0 -178.863)" fill="#89c069"/>
      </g>
    </g>
  </g>
</svg>
