<svg xmlns="http://www.w3.org/2000/svg" xmlns:xlink="http://www.w3.org/1999/xlink" width="207.715" height="35.36" viewBox="0 0 207.715 35.36">
  <defs>
    <style>
      .cls-1 {
        clip-path: url(#clip-path);
      }

      .cls-2 {
        fill: #d8639b;
      }

      .cls-3 {
        fill: #fff8eb;
      }
    </style>
    <clipPath id="clip-path"/>
  </defs>
  <g id="Group_35" data-name="Group 35" transform="translate(0 0)">
    <g id="Group_3" data-name="Group 3" class="cls-1" transform="translate(0 0)">
      <path id="Path_39" data-name="Path 39" class="cls-2" d="M211.069,30.02a78.614,78.614,0,0,0,8.689-5.737,12.029,12.029,0,0,0,2.609-15.436,5.306,5.306,0,0,0-7.2-2.053c-1.119.6-2.212,1.257-3.319,1.927-.179-.873-.367-1.742-.581-2.6A7.785,7.785,0,0,0,204.9.155c-2.567-.547-4.806.35-6.835,2.74-2.232,2.629-2.724,5.834-2.909,8.623a57.619,57.619,0,0,0,1.817,18.665,41.411,41.411,0,0,0,1.348,5.177,35.853,35.853,0,0,0,5.394-1.385,8.233,8.233,0,0,0,.861-.367c.063-.031.126-.062.19-.092,1.34-.654,2.726-1.329,4.035-2.128q1.129-.689,2.271-1.369m-8.59-1.324a1.575,1.575,0,0,1-.282.108,47.554,47.554,0,0,1-1.421-18.657,8.514,8.514,0,0,1,1.418-3.985A2.435,2.435,0,0,1,204.2,5.43a2.121,2.121,0,0,1,1.275.922c1.291,1.936,1.967,7.659,2.046,8.447l.465,2.839s5.914-5.779,7.856-5.569c.862.093,3.045.42,3.15,2.047.32,4.968-1.837,6.125-6.341,9.011-2.48,1.589-5.189,2.987-7.809,4.34q-1.185.61-2.364,1.227" transform="translate(-93.892 0)"/>
      <path id="Path_40" data-name="Path 40" class="cls-3" d="M14.909,12.565a12.829,12.829,0,0,0-3.824-.721,4.5,4.5,0,0,0-2.4.554A1.8,1.8,0,0,0,7.8,14.025a2.276,2.276,0,0,0,1.274,2.088,19.7,19.7,0,0,0,3.935,1.5,34.144,34.144,0,0,1,4.378,1.552,7.76,7.76,0,0,1,2.938,2.328,6.452,6.452,0,0,1,1.219,4.1,7.032,7.032,0,0,1-1.311,4.267,8.08,8.08,0,0,1-3.6,2.716,13.825,13.825,0,0,1-5.21.924,17.832,17.832,0,0,1-6.17-1.108A16.646,16.646,0,0,1,0,29.359l2.328-4.767a15.7,15.7,0,0,0,4.507,2.846,12.143,12.143,0,0,0,4.656,1.071,5.134,5.134,0,0,0,2.827-.665,2.322,2.322,0,0,0,.332-3.566,5.229,5.229,0,0,0-1.737-1.053q-1.052-.406-2.9-.924a32.862,32.862,0,0,1-4.341-1.478,7.619,7.619,0,0,1-2.9-2.253,6.234,6.234,0,0,1-1.219-4.028,6.823,6.823,0,0,1,1.256-4.083,7.974,7.974,0,0,1,3.51-2.7,13.518,13.518,0,0,1,5.247-.942,18.146,18.146,0,0,1,5.246.776,17.742,17.742,0,0,1,4.582,2.069L19.141,14.5a19.619,19.619,0,0,0-4.232-1.939" transform="translate(0 -3.283)"/>
      <path id="Path_41" data-name="Path 41" class="cls-3" d="M49.452,7.746H69.146v4.84H55.29V18.2H67.743v4.84H55.29v5.728H69.553v4.84h-20.1Z" transform="translate(-23.808 -3.729)"/>
      <path id="Path_42" data-name="Path 42" class="cls-3" d="M114.934,7.746h5.542V33.611h-5.321L102.629,16.984V33.611h-5.58V7.746h5.322l12.563,16.7Z" transform="translate(-46.723 -3.729)"/>
      <path id="Path_43" data-name="Path 43" class="cls-3" d="M164.046,12.565a12.832,12.832,0,0,0-3.824-.721,4.5,4.5,0,0,0-2.4.554,1.8,1.8,0,0,0-.887,1.626,2.276,2.276,0,0,0,1.274,2.088,19.7,19.7,0,0,0,3.935,1.5,34.173,34.173,0,0,1,4.378,1.552,7.764,7.764,0,0,1,2.938,2.328,6.451,6.451,0,0,1,1.219,4.1,7.032,7.032,0,0,1-1.311,4.267,8.08,8.08,0,0,1-3.6,2.716,13.825,13.825,0,0,1-5.21.924,17.832,17.832,0,0,1-6.17-1.108,16.646,16.646,0,0,1-5.247-3.03l2.328-4.767a15.7,15.7,0,0,0,4.507,2.846,12.143,12.143,0,0,0,4.656,1.071,5.134,5.134,0,0,0,2.827-.665,2.323,2.323,0,0,0,.332-3.566,5.229,5.229,0,0,0-1.737-1.053q-1.053-.406-2.9-.924a32.9,32.9,0,0,1-4.342-1.478,7.614,7.614,0,0,1-2.9-2.253,6.234,6.234,0,0,1-1.219-4.028,6.826,6.826,0,0,1,1.256-4.083,7.974,7.974,0,0,1,3.51-2.7,13.518,13.518,0,0,1,5.247-.942,18.147,18.147,0,0,1,5.247.776,17.75,17.75,0,0,1,4.582,2.069l-2.253,4.84a19.641,19.641,0,0,0-4.232-1.939" transform="translate(-71.799 -3.283)"/>
      <path id="Path_44" data-name="Path 44" class="cls-3" d="M271.907,33.611l-4.1-7.39h-5.95v7.39h-5.838V7.746h11.233q5.062,0,7.835,2.347a8.214,8.214,0,0,1,2.771,6.632,10.01,10.01,0,0,1-1.237,5.118,7.955,7.955,0,0,1-3.6,3.233l5.506,8.536Zm-10.05-12.268h5.395A5.587,5.587,0,0,0,271,20.217a4.118,4.118,0,0,0,1.312-3.307A3.963,3.963,0,0,0,271,13.676a5.721,5.721,0,0,0-3.751-1.09h-5.395Z" transform="translate(-123.255 -3.729)"/>
      <rect id="Rectangle_4" data-name="Rectangle 4" class="cls-3" width="5.838" height="25.865" transform="translate(159.516 4.017)"/>
      <path id="Path_45" data-name="Path 45" class="cls-3" d="M347.3,8.7a12.97,12.97,0,0,1,6.835,11.566A13.082,13.082,0,0,1,347.3,31.885a15.071,15.071,0,0,1-14.116,0,13.128,13.128,0,0,1-5.006-4.8,13,13,0,0,1-1.829-6.817A13,13,0,0,1,333.165,8.7a15.251,15.251,0,0,1,14.134,0m-10.974,4.452a7.957,7.957,0,0,0-2.919,2.975,8.384,8.384,0,0,0,2.937,11.307,7.528,7.528,0,0,0,3.972,1.108,7.421,7.421,0,0,0,3.935-1.09,7.922,7.922,0,0,0,2.846-2.993,8.51,8.51,0,0,0,1.053-4.193,8.342,8.342,0,0,0-1.053-4.139,7.973,7.973,0,0,0-2.846-2.975,7.431,7.431,0,0,0-3.935-1.09,7.718,7.718,0,0,0-3.99,1.09" transform="translate(-157.114 -3.352)"/>
      <path id="Path_46" data-name="Path 46" class="cls-3" d="M390.845.788a4.132,4.132,0,0,1,2.043,3.581,4.09,4.09,0,0,1-.549,2.067,4.145,4.145,0,0,1-1.5,1.525,4.15,4.15,0,0,1-4.178.006,4.137,4.137,0,0,1-2.031-3.574,4.089,4.089,0,0,1,.549-2.068A4.168,4.168,0,0,1,386.673.8a3.988,3.988,0,0,1,2.092-.567,4.038,4.038,0,0,1,2.08.555m-.452,6.386a3.238,3.238,0,0,0,1.183-1.183,3.167,3.167,0,0,0,.433-1.622,3.2,3.2,0,0,0-1.6-2.788,3.22,3.22,0,0,0-1.647-.433,3.18,3.18,0,0,0-1.646.439,3.244,3.244,0,0,0-1.177,1.183,3.169,3.169,0,0,0-.434,1.623,3.2,3.2,0,0,0,3.233,3.22,3.214,3.214,0,0,0,1.653-.439m-.079-2.75a1.264,1.264,0,0,1-.561.494l.865,1.317h-1.012l-.634-1.146h-.9V6.234h-.878V2.27h1.684a1.819,1.819,0,0,1,1.207.36,1.243,1.243,0,0,1,.427,1.006,1.5,1.5,0,0,1-.195.787m-2.245-.043h.805a.857.857,0,0,0,.585-.183.663.663,0,0,0,.207-.524.645.645,0,0,0-.207-.519.877.877,0,0,0-.585-.177h-.805Z" transform="translate(-185.173 -0.112)"/>
    </g>
  </g>
</svg>
