<svg xmlns="http://www.w3.org/2000/svg" xmlns:xlink="http://www.w3.org/1999/xlink" width="149.757" height="31.245" viewBox="0 0 149.757 31.245">
  <defs>
    <clipPath id="clip-path">
      <rect id="Rectangle_10" data-name="Rectangle 10" width="149.757" height="31.245" fill="none"/>
    </clipPath>
  </defs>
  <g id="Group_36" data-name="Group 36" transform="translate(0)">
    <g id="Group_7" data-name="Group 7" transform="translate(0 0)" clip-path="url(#clip-path)">
      <path id="Path_73" data-name="Path 73" d="M25.641,19.03a4.592,4.592,0,0,1-2.557,2.643,4.871,4.871,0,0,1-4.356-.235,4.258,4.258,0,0,1-2.9,2.423,5.489,5.489,0,0,1-4.3-.754A3.431,3.431,0,0,1,7.96,25.053c-3.81-.288-6.1-4.395-7.111-7.641C-.066,14.5-.975,8.554,2.335,6.744a3.968,3.968,0,0,1,3.619.008A4.622,4.622,0,0,1,7.7,4.69a4.461,4.461,0,0,1,4.149-.156,4.939,4.939,0,0,1,5.368-2.289,5.379,5.379,0,0,1,1.1.376,3.135,3.135,0,0,1,.731-1.1A5.682,5.682,0,0,1,25.362.533c2.622,1.138,4.454,5.136,5.374,7.671.883,2.44,3.03,9.357-.326,10.818a6.064,6.064,0,0,1-4.77.008" transform="matrix(0.966, 0.259, -0.259, 0.966, 3.793, 2.434)" fill="#281a15" fill-rule="evenodd"/>
      <path id="Path_74" data-name="Path 74" d="M6.271,21.394c2.058.156,2.061-1.735,1.958-2.741-.2-1.991,2.252,2.432,5.293,1.607s1.678-4.7,1.678-4.7,2.477,3.849,5.313,2.6,1.375-4.549,1.375-4.549,2.762,3.284,5.962,1.894C30.145,14.511,26.518,2,22.8.385a3.841,3.841,0,0,0-4.321.639c-.876.835-.42,3.637-1.034,2.86C14.889.642,11.115,2.3,11.12,5.439c-3.3-2.456-5.04-1.187-5.63,1.106-.106.406.17,1.622-.21,1.3C-3.122.7-.52,20.88,6.271,21.394" transform="matrix(0.966, 0.259, -0.259, 0.966, 5.085, 4.677)" fill="#d88b73" fill-rule="evenodd"/>
      <path id="Path_75" data-name="Path 75" d="M26.176,4.6C25.193,2.56,24,.9,22.8.385a3.837,3.837,0,0,0-4.32.639c-.876.834-.422,3.635-1.036,2.86C14.889.642,11.114,2.3,11.121,5.438c-3.3-2.456-5.038-1.187-5.63,1.106-.106.406.169,1.622-.21,1.3C.173,3.5-.868,9.255.625,14.55,1.708,16.54,3.2,18.025,4.978,18.159c2.058.156,2.063-1.736,1.959-2.741-.2-1.993,2.251,2.433,5.29,1.608s1.682-4.7,1.682-4.7,2.477,3.849,5.313,2.6S20.6,10.383,20.6,10.383s2.761,3.283,5.96,1.892c1.186-.516.79-4.1-.381-7.677" transform="matrix(0.966, 0.259, -0.259, 0.966, 4.644, 4.789)" fill="#e5b496" fill-rule="evenodd"/>
      <path id="Path_76" data-name="Path 76" d="M1.223,5.243a7.933,7.933,0,0,0,3.241,3.3.247.247,0,0,0,.3-.367C4.1,7.155,3.072,6.367,2.32,5.4,2.091,5.111-.041-2.876,0,1.114A8.231,8.231,0,0,0,1.223,5.243" transform="matrix(0.966, 0.259, -0.259, 0.966, 8.054, 19.125)" fill="#261f1c" fill-rule="evenodd"/>
      <path id="Path_77" data-name="Path 77" d="M.032.206A.247.247,0,0,1,.5.15a107.59,107.59,0,0,1,3.712,10.4C2.72,9.563-.347,2.261.032.206" transform="matrix(0.966, 0.259, -0.259, 0.966, 21.399, 13.341)" fill="#261f1c" fill-rule="evenodd"/>
      <path id="Path_78" data-name="Path 78" d="M1.856,6.131C1.214,4.884-.231,1.795.032.379.378-1.5,1.978,4.162,2.314,5.121A8.329,8.329,0,0,0,4.9,9.01c.208.159-.04.449-.251.311a8.008,8.008,0,0,1-2.791-3.19" transform="matrix(0.966, 0.259, -0.259, 0.966, 14.843, 16.446)" fill="#261f1c" fill-rule="evenodd"/>
      <path id="Path_79" data-name="Path 79" d="M6.591,19.03a4.582,4.582,0,0,0,2.557,2.643,4.866,4.866,0,0,0,4.354-.235,4.258,4.258,0,0,0,2.9,2.423,5.482,5.482,0,0,0,4.3-.754,3.437,3.437,0,0,0,3.57,1.946c3.81-.288,6.1-4.395,7.112-7.641C32.294,14.5,33.2,8.554,29.894,6.744a3.968,3.968,0,0,0-3.619.008A4.605,4.605,0,0,0,24.529,4.69a4.461,4.461,0,0,0-4.149-.156,4.94,4.94,0,0,0-5.369-2.289,5.3,5.3,0,0,0-1.1.376,3.177,3.177,0,0,0-.734-1.1A5.684,5.684,0,0,0,6.866.533C4.244,1.671,2.412,5.669,1.494,8.2c-.884,2.44-3.03,9.357.325,10.818a6.07,6.07,0,0,0,4.772.008" transform="translate(110.858 8.395) rotate(-25)" fill="#281a15" fill-rule="evenodd"/>
      <path id="Path_80" data-name="Path 80" d="M22.3,21.394c-2.058.156-2.063-1.735-1.959-2.741.205-1.991-2.252,2.432-5.291,1.607s-1.682-4.7-1.682-4.7-2.476,3.849-5.311,2.6-1.377-4.549-1.377-4.549S3.916,16.9.717,15.51C-1.578,14.511,2.049,2,5.763.385a3.841,3.841,0,0,1,4.321.639c.875.835.422,3.637,1.035,2.86C13.678.642,17.454,2.3,17.447,5.439c3.3-2.456,5.038-1.187,5.631,1.106.1.406-.169,1.622.208,1.3C31.69.7,29.087,20.88,22.3,21.394" transform="translate(113.293 9.281) rotate(-25)" fill="#d88b73" fill-rule="evenodd"/>
      <path id="Path_81" data-name="Path 81" d="M1.1,4.6C2.08,2.56,3.27.9,4.468.385a3.839,3.839,0,0,1,4.321.639c.876.834.423,3.635,1.035,2.86C12.383.642,16.16,2.3,16.153,5.438c3.3-2.456,5.04-1.187,5.63,1.106.1.406-.167,1.622.209,1.3,5.109-4.342,6.15,1.41,4.655,6.705-1.081,1.989-2.571,3.475-4.351,3.609-2.058.156-2.059-1.736-1.959-2.741.2-1.993-2.251,2.433-5.291,1.608s-1.679-4.7-1.679-4.7-2.478,3.849-5.314,2.6-1.375-4.547-1.375-4.547S3.914,13.666.718,12.274C-.469,11.758-.074,8.17,1.1,4.6" transform="translate(115.21 8.856) rotate(-25)" fill="#e5b496" fill-rule="evenodd"/>
      <path id="Path_82" data-name="Path 82" d="M3.586,5.243A7.929,7.929,0,0,1,.344,8.54a.247.247,0,0,1-.3-.367C.706,7.155,1.739,6.367,2.491,5.4c.226-.293,2.36-8.279,2.317-4.289A8.231,8.231,0,0,1,3.586,5.243" transform="translate(135.265 11.132) rotate(-25)" fill="#261f1c" fill-rule="evenodd"/>
      <path id="Path_83" data-name="Path 83" d="M4.2.206A.248.248,0,0,0,3.722.15a107.172,107.172,0,0,0-3.711,10.4C1.506,9.563,4.575,2.261,4.2.206" transform="translate(120.655 10.565) rotate(-25)" fill="#261f1c" fill-rule="evenodd"/>
      <path id="Path_84" data-name="Path 84" d="M3.12,6.131C3.763,4.884,5.207,1.795,4.945.379,4.6-1.5,3,4.162,2.664,5.121A8.348,8.348,0,0,1,.079,9.01c-.209.159.039.449.25.311A8,8,0,0,0,3.12,6.131" transform="translate(127.43 11.83) rotate(-25)" fill="#261f1c" fill-rule="evenodd"/>
    </g>
  </g>
</svg>
