<svg id="_011-instagram" data-name="011-instagram" xmlns="http://www.w3.org/2000/svg" width="50.102" height="50.102" viewBox="0 0 50.102 50.102">
  <path id="Path_217" data-name="Path 217" d="M216.59,211.795A4.795,4.795,0,1,1,211.795,207,4.795,4.795,0,0,1,216.59,211.795Zm0,0" transform="translate(-186.744 -186.744)" fill="#89c069"/>
  <path id="Path_218" data-name="Path 218" d="M158.491,138.8a4.763,4.763,0,0,0-2.73-2.73,7.959,7.959,0,0,0-2.671-.5c-1.517-.069-1.972-.084-5.813-.084s-4.3.015-5.813.084a7.964,7.964,0,0,0-2.671.5,4.765,4.765,0,0,0-2.73,2.73,7.961,7.961,0,0,0-.5,2.671c-.069,1.517-.084,1.972-.084,5.813s.015,4.3.084,5.813a7.958,7.958,0,0,0,.5,2.671,4.764,4.764,0,0,0,2.73,2.73,7.95,7.95,0,0,0,2.671.5c1.517.069,1.971.084,5.812.084s4.3-.015,5.813-.084a7.949,7.949,0,0,0,2.671-.5,4.763,4.763,0,0,0,2.73-2.73,7.966,7.966,0,0,0,.5-2.671c.069-1.517.084-1.972.084-5.813s-.015-4.3-.084-5.813A7.949,7.949,0,0,0,158.491,138.8Zm-11.214,15.87a7.387,7.387,0,1,1,7.387-7.387A7.387,7.387,0,0,1,147.278,154.668Zm7.679-13.339a1.726,1.726,0,1,1,1.726-1.726A1.726,1.726,0,0,1,154.956,141.329Zm0,0" transform="translate(-122.226 -122.23)" fill="#89c069"/>
  <path id="Path_219" data-name="Path 219" d="M25.051,0A25.051,25.051,0,1,0,50.1,25.051,25.054,25.054,0,0,0,25.051,0Zm14.3,30.982a10.554,10.554,0,0,1-.669,3.492,7.355,7.355,0,0,1-4.207,4.207,10.561,10.561,0,0,1-3.491.669c-1.534.07-2.024.087-5.931.087s-4.4-.017-5.931-.087a10.561,10.561,0,0,1-3.491-.669,7.355,7.355,0,0,1-4.207-4.207,10.551,10.551,0,0,1-.669-3.491c-.071-1.534-.087-2.024-.087-5.931s.016-4.4.087-5.931a10.555,10.555,0,0,1,.668-3.492,7.36,7.36,0,0,1,4.207-4.207,10.564,10.564,0,0,1,3.492-.669c1.534-.07,2.024-.087,5.931-.087s4.4.017,5.931.087a10.566,10.566,0,0,1,3.492.668,7.357,7.357,0,0,1,4.207,4.207,10.553,10.553,0,0,1,.669,3.492c.07,1.534.086,2.024.086,5.931S39.419,29.448,39.349,30.982Zm0,0" fill="#89c069"/>
</svg>
