<svg xmlns="http://www.w3.org/2000/svg" width="50.102" height="50.102" viewBox="0 0 50.102 50.102">
  <path id="_010-linkedin" data-name="010-linkedin" d="M25.051,0A25.051,25.051,0,1,0,50.1,25.051,25.054,25.054,0,0,0,25.051,0Zm-7.28,37.87h-6.1V19.515h6.1Zm-3.05-20.862h-.04a3.18,3.18,0,1,1,.08-6.342,3.181,3.181,0,1,1-.041,6.342ZM39.771,37.87h-6.1v-9.82c0-2.468-.883-4.151-3.091-4.151a3.34,3.34,0,0,0-3.13,2.231,4.178,4.178,0,0,0-.2,1.489V37.87h-6.1s.08-16.633,0-18.355h6.1v2.6a6.057,6.057,0,0,1,5.5-3.03c4.014,0,7.024,2.623,7.024,8.261Zm0,0" fill="#fff8eb"/>
</svg>
