<svg id="Group_12" data-name="Group 12" xmlns="http://www.w3.org/2000/svg" xmlns:xlink="http://www.w3.org/1999/xlink" width="89.995" height="126.85" viewBox="0 0 89.995 126.85">
  <defs>
    <clipPath id="clip-path">
      <rect id="Rectangle_16" data-name="Rectangle 16" width="89.995" height="126.85" fill="none"/>
    </clipPath>
  </defs>
  <g id="Group_11" data-name="Group 11" clip-path="url(#clip-path)">
    <path id="Path_148" data-name="Path 148" d="M82.708,39.065a4.743,4.743,0,0,0-5.456-.73,7.285,7.285,0,0,0-1.839.88c-4.36,2.944-10.086,4.451-12.465,4.184-.124-.014-.67.029-.712-.328-.047-.392.6-1.375.6-1.375,1.217-2.381,2.463-4.694,3.892-6.96,1.237-1.958,2.568-3.918,3.855-5.812,1.47-2.163,2.989-4.4,4.393-6.672a23.191,23.191,0,0,0,2.354-5.973c.654-2.345-.993-5.862-3.147-6.72-1.507-.6-3.776-.652-6.07,2.484a17.21,17.21,0,0,0-1.564,2.485c-1.836,3.718-3.573,7.019-6.228,9.755a22.578,22.578,0,0,0-2.664,3.529,56.941,56.941,0,0,1,5.291-12.394,29.064,29.064,0,0,0,3.2-8.09,4.5,4.5,0,0,0-.855-4.1,5.367,5.367,0,0,0-4.524-1.784c-4.015.315-6.065,3.139-7.439,5.6a33.3,33.3,0,0,0-1.7,3.725c-.432,1.065-.841,2.07-1.338,3.028-.963,1.852-2.032,3.706-3.064,5.5-.706,1.227-1.412,2.454-2.1,3.693-.673,1.222-1.3,2.467-1.931,3.714a10.492,10.492,0,0,1-.689-2.24c-.356-2.273-.638-4.61-.91-6.869-.285-2.354-.577-4.788-.96-7.182A29.2,29.2,0,0,0,38.562,2.77a4.645,4.645,0,0,0-8.376-.256,8.392,8.392,0,0,0-1.227,4.355c.139,2.444.372,4.913.6,7.3.21,2.234.429,4.545.566,6.812a60.818,60.818,0,0,1-.059,8.57c-.275,3.387-2.065,6.209-3.961,9.2-.355.561-.711,1.121-1.055,1.683-.545.89-1.121,1.376-1.711,1.446A3.341,3.341,0,0,1,20.89,40.6a20.983,20.983,0,0,1-2.652-3.614l-.445-.7c-2.886-4.5-6-6.977-10.091-8.035a6.9,6.9,0,0,0-6.154,1.178A4.244,4.244,0,0,0,.022,33.151,11.44,11.44,0,0,0,2.291,38.2c1.095,1.6,2.258,3.174,3.385,4.7,1.522,2.062,3.1,4.193,4.485,6.366a29.807,29.807,0,0,1,2.029,4.04,34.956,34.956,0,0,0,2.038,4.106c3.144,5.163,8.463,11.8,18.444,10.5.637,2.256.917,4.42.583,5.012-.24.321-.535.687-.863,1.1-2.053,2.56-5.49,6.844-6.677,12.8-1.7,8.524-3.92,23.88.271,30.944,2.594,4.376,8.132,9.087,14.157,9.093h.011c3,0,7.278-1.186,10.637-6.824,6.126-10.284,5.234-28.284,2.609-40.572-.1-.484-.254-1.064-.431-1.709q-.239-1.02-.553-1.951c-.546-1.894-1.5-5.241-1.427-6.116a1.316,1.316,0,0,1-.158.447l-.009,0a6,6,0,0,1,1.216-2.35c.937-1.172,1.919-2.308,2.9-3.444l1.246-1.449c2.275-2.67,4.574-5.18,7.674-6.548,1.361-.6,2.735-1.174,4.109-1.75,2.666-1.116,5.424-2.27,8.063-3.6A28.82,28.82,0,0,0,82.55,46.27c2.266-2.111,2.327-4.871.158-7.2M34.66,47.51a6.879,6.879,0,0,1,1.147-3.223,1.968,1.968,0,0,1,1.624-.593,1.715,1.715,0,0,1,1.032.746c1.044,1.566,1.591,6.2,1.655,6.832l.376,2.3s4.784-4.675,6.354-4.5c.7.075,2.463.34,2.548,1.656.259,4.018-1.486,4.955-5.129,7.289-2.006,1.285-4.2,2.416-6.317,3.511q-.959.494-1.912.993a1.265,1.265,0,0,1-.228.088A38.476,38.476,0,0,1,34.66,47.51M79.4,43.17a7.51,7.51,0,0,1-2.589,2.307c-4.176,2.113-8.55,4.186-13,6.161-2.6,1.153-5.288,2.346-7.371,4.647-2.865,3.167-5.7,6.46-8.127,9.3a7.94,7.94,0,0,0-1.527,2.672,3.269,3.269,0,0,0-.212.777,8.559,8.559,0,0,0,.185,4.177c.269.954.627,1.87.974,2.757.071.182.139.358.208.538l.019,0c.063.222.117.419.185.652.366,1.275.712,2.478.873,3.231,2.455,11.5,3.384,28.171-2.078,37.34-1.831,3.076-4.114,4.634-6.782,4.634h-.007c-4.082,0-8.274-3.472-10.3-6.9-2.467-4.159-2.365-14.543.271-27.78.973-4.883,3.863-8.487,5.777-10.873.362-.453.686-.857.953-1.211,1.63-2.173,1-6,.192-8.822.31-.1.57-.2.719-.259l-.023-.038.154-.074c1.085-.529,2.2-1.075,3.264-1.721q.914-.558,1.838-1.107a63.547,63.547,0,0,0,7.028-4.64,9.73,9.73,0,0,0,2.11-12.486A4.291,4.291,0,0,0,46.3,44.8c-.906.488-1.789,1.017-2.685,1.559-.145-.706-.3-1.41-.47-2.107a6.3,6.3,0,0,0-5.15-4.822c-2.076-.443-3.888.283-5.529,2.216a11.5,11.5,0,0,0-2.352,6.975,46.575,46.575,0,0,0,1.47,15.1c-.279-.021-.559-.04-.84-.058a16.951,16.951,0,0,1-4.287-.64c-3.615-1.235-6.4-3.921-9.033-8.711-.637-1.157-1.17-2.366-1.735-3.645a36.6,36.6,0,0,0-2.571-5.088c-1.451-2.263-3.115-4.4-4.723-6.478-1-1.281-1.991-2.561-2.939-3.875-.115-.158-.238-.318-.363-.481C4.143,33.5,4.128,33.253,4.47,32.8c.365-.486.779-.492,2.122-.256.28.05.558.1.865.165.1.041.192.081.288.115,2.251.8,4.07,2.379,5.9,5.129a57.819,57.819,0,0,0,4.52,6.041,6.63,6.63,0,0,0,5.5,2.114h.013a5.93,5.93,0,0,0,4.635-2.827c.883-1.461,1.8-2.973,2.767-4.448a21.109,21.109,0,0,0,3.6-12.891c-.174-3.47-.488-6.978-.794-10.37-.231-2.562-.461-5.125-.634-7.692a7.492,7.492,0,0,1,.609-3.143.437.437,0,0,1,.33-.3c.073-.02.167,0,.273.155a8.458,8.458,0,0,1,1.387,3.364c.348,2.278.619,4.62.882,6.884.249,2.14.505,4.352.827,6.528a46.846,46.846,0,0,0,1.707,7.3,7.979,7.979,0,0,0,2.368,3.258,2.809,2.809,0,0,0,2.535.854,2.864,2.864,0,0,0,1.994-1.873c.792-1.84,1.681-3.7,2.639-5.542.772-1.482,1.635-2.965,2.468-4.4a55.777,55.777,0,0,0,4.82-9.713c.958-2.768,2.413-4.565,4.451-5.494a1.092,1.092,0,0,1,.921-.084.922.922,0,0,1,.341.687c.193,1.611-.516,3-1.335,4.614L58.852,14.2c-1.33,2.651-2.7,5.392-3.928,8.162s-2.277,5.666-3.293,8.458l-.485,1.334a3.231,3.231,0,0,0,.4,2.64,15.156,15.156,0,0,0,1.337,1.732,4.313,4.313,0,0,0,1.779.943c1.045,0,2.62-2.053,2.62-2.053,1.024-1.236,1.89-2.282,2.725-3.353.61-.782,1.2-1.582,1.784-2.382.9-1.234,1.84-2.511,2.835-3.666a30.009,30.009,0,0,0,4.79-7.577,21.863,21.863,0,0,1,2.436-3.881c.211-.291.519-.7.83-.635,1.615.356.724,2.112-.421,4.071-1.444,2.473-3.037,4.934-4.578,7.313-1.078,1.665-2.157,3.331-3.2,5.018C62.4,33.7,60.248,37.185,58.414,40.811c-.724,1.428-.279,3.53.44,4.88.848,1.588,2.646,2.22,4.845,1.7,3.3-.294,9.433-1.325,14.179-4.93a2.275,2.275,0,0,1,.707-.275.81.81,0,0,1,.613.062c.392.224.272.8.2.922" transform="translate(0 -0.001)" fill="#89c069"/>
    <path id="Path_149" data-name="Path 149" d="M80.286,112.324a63.509,63.509,0,0,0,7.028-4.64A9.729,9.729,0,0,0,89.425,95.2,4.292,4.292,0,0,0,83.6,93.537c-.905.489-1.789,1.017-2.685,1.559-.145-.706-.3-1.41-.47-2.107a6.3,6.3,0,0,0-5.15-4.822c-2.077-.443-3.888.283-5.529,2.216a11.5,11.5,0,0,0-2.353,6.975,46.587,46.587,0,0,0,1.47,15.1,33.4,33.4,0,0,0,1.09,4.188,29.021,29.021,0,0,0,4.363-1.12,6.561,6.561,0,0,0,.7-.3l.154-.074c1.084-.529,2.2-1.075,3.263-1.721.609-.372,1.223-.739,1.837-1.107m-6.948-1.071a1.279,1.279,0,0,1-.228.088A38.468,38.468,0,0,1,71.96,96.25a6.887,6.887,0,0,1,1.147-3.223,1.97,1.97,0,0,1,1.624-.593,1.715,1.715,0,0,1,1.032.746c1.044,1.566,1.591,6.2,1.655,6.832l.376,2.3s4.784-4.675,6.355-4.5c.7.075,2.463.34,2.548,1.656.259,4.018-1.486,4.955-5.129,7.289-2.007,1.285-4.2,2.416-6.317,3.511q-.958.494-1.912.993" transform="translate(-37.263 -48.741)" fill="#d8639b"/>
    <path id="Path_150" data-name="Path 150" d="M192.041,60.408a3.241,3.241,0,0,1,1.163,4.4,3.225,3.225,0,0,1-1.168,1.187,3.231,3.231,0,0,1-3.253.005,3.242,3.242,0,0,1-1.154-4.393,3.243,3.243,0,0,1,1.163-1.187,3.108,3.108,0,0,1,1.629-.441,3.146,3.146,0,0,1,1.62.432m-.351,4.972a2.517,2.517,0,0,0,.921-.921,2.507,2.507,0,0,0-.907-3.434,2.506,2.506,0,0,0-1.282-.337,2.473,2.473,0,0,0-1.282.342,2.532,2.532,0,0,0-.916.921,2.5,2.5,0,0,0,2.18,3.771,2.5,2.5,0,0,0,1.287-.342m-.062-2.142a.986.986,0,0,1-.437.385l.674,1.025h-.788l-.494-.892h-.7v.892H189.2V61.562h1.31a1.419,1.419,0,0,1,.941.28.969.969,0,0,1,.333.784,1.167,1.167,0,0,1-.152.612m-1.748-.033h.626a.666.666,0,0,0,.456-.142.516.516,0,0,0,.161-.408.5.5,0,0,0-.161-.4.683.683,0,0,0-.456-.137h-.626Z" transform="translate(-103.637 -33.203)" fill="#2b2628"/>
  </g>
</svg>
