<svg id="logo_sensorio_round" data-name="logo sensorio round" xmlns="http://www.w3.org/2000/svg" xmlns:xlink="http://www.w3.org/1999/xlink" width="116.822" height="111.533" viewBox="0 0 116.822 111.533">
  <defs>
    <clipPath id="clip-path">
      <rect id="Rectangle_14" data-name="Rectangle 14" width="116.822" height="111.533" fill="none"/>
    </clipPath>
  </defs>
  <g id="Group_10" data-name="Group 10" clip-path="url(#clip-path)">
    <path id="Path_110" data-name="Path 110" d="M41.425,285.789a2.385,2.385,0,0,0,2.71,1.616,2.376,2.376,0,0,0,1.805-1.561,2.378,2.378,0,0,0-.457-2.341,2.417,2.417,0,0,0-.738-.574,2.607,2.607,0,0,0-.9-.27l.053-.5a3.286,3.286,0,0,1,1.1.327,2.83,2.83,0,0,1,.9.692,2.876,2.876,0,0,1,.671,1.371,2.917,2.917,0,0,1-.1,1.5,2.819,2.819,0,0,1-.843,1.247,2.724,2.724,0,0,1-1.351.643,2.966,2.966,0,0,1-2.75-1,3.02,3.02,0,0,1-.728-2.082l.512,0a2.481,2.481,0,0,0,.122.934" transform="translate(-27.563 -190.672)" fill="#2b2628"/>
    <path id="Path_111" data-name="Path 111" d="M29.215,271.345l-2.108-3.156.417-.279,1.8,2.691,1.686-1.126L29.4,267.067l.418-.279,1.608,2.407,1.774-1.184-1.857-2.779.419-.279,2.167,3.243Z" transform="translate(-18.317 -179.043)" fill="#2b2628"/>
    <path id="Path_112" data-name="Path 112" d="M16.175,249.149l-.246-.493L21,246.133l.264.53-2.737,5.28,4.3-2.136.248.5L18,252.83l-.263-.53,2.732-5.288Z" transform="translate(-10.764 -166.325)" fill="#2b2628"/>
    <path id="Path_113" data-name="Path 113" d="M9.7,237.389l-1.429-4.061.482-.169.623,1.766,4.872-1.715.185.527-4.872,1.716.622,1.767Z" transform="translate(-5.589 -157.557)" fill="#2b2628"/>
    <path id="Path_114" data-name="Path 114" d="M9.554,209.2l-1.536,1.6c.049.166.083.294.1.384l.342,1.519,1.787-.4.124.546-5.531,1.241-.462-2.064a2.475,2.475,0,0,1,.118-1.709,1.724,1.724,0,0,1,1.23-.871,1.96,1.96,0,0,1,1.222.076,1.777,1.777,0,0,1,.854.805l1.608-1.757ZM7.631,211.3A1.886,1.886,0,0,0,7,210.159a1.317,1.317,0,0,0-1.136-.194,1.259,1.259,0,0,0-.917.654,1.937,1.937,0,0,0-.075,1.3l.34,1.519,2.761-.62Z" transform="translate(-2.897 -140.942)" fill="#2b2628"/>
    <path id="Path_115" data-name="Path 115" d="M5.317,191.219a1.76,1.76,0,0,0,.367-1.356,1.742,1.742,0,0,0-.6-1.265,1.882,1.882,0,0,0-1.4-.348l-3.359.3-.05-.558,3.359-.3a2.34,2.34,0,0,1,1.776.465,2.7,2.7,0,0,1,.3,3.436,2.33,2.33,0,0,1-1.664.774l-3.36.3-.05-.557,3.36-.3a1.868,1.868,0,0,0,1.316-.592" transform="translate(-0.187 -126.823)" fill="#2b2628"/>
    <path id="Path_116" data-name="Path 116" d="M0,165.694l.042-.7,4.386-1.954L.317,160.587l.043-.7,5.664.351-.032.518L1.1,160.465l4.144,2.482-.019.308L.81,165.215l4.887.3-.031.526Z" transform="translate(0 -108.046)" fill="#2b2628"/>
    <rect id="Rectangle_12" data-name="Rectangle 12" width="0.559" height="5.667" transform="translate(1.692 44.733) rotate(-76.141)" fill="#2b2628"/>
    <path id="Path_117" data-name="Path 117" d="M9.734,113.159l.187-.519,5.334,1.917-.2.556-5.7,1.682,4.517,1.622-.189.527-5.334-1.916.2-.557,5.707-1.689Z" transform="translate(-5.639 -76.116)" fill="#2b2628"/>
    <path id="Path_118" data-name="Path 118" d="M16.538,96.919l1.941-3.843.456.23-.845,1.672,4.609,2.33-.252.5-4.611-2.329-.843,1.672Z" transform="translate(-11.176 -62.896)" fill="#2b2628"/>
    <path id="Path_119" data-name="Path 119" d="M26.714,79.379,28.79,76.2l.422.275-1.769,2.708,1.7,1.109,1.584-2.422.42.274L29.56,80.57l1.785,1.167,1.827-2.8.421.275L31.46,82.479Z" transform="translate(-18.052 -51.494)" fill="#2b2628"/>
    <path id="Path_120" data-name="Path 120" d="M45.273,61.2l.32-.377,1.581,1.343a3.106,3.106,0,0,1-.2,1.088,3.249,3.249,0,0,1-.571.979,2.962,2.962,0,0,1-2.754,1.013,2.784,2.784,0,0,1-1.363-.636,2.734,2.734,0,0,1-.842-1.237,2.9,2.9,0,0,1-.094-1.5,3.011,3.011,0,0,1,.674-1.39,3.186,3.186,0,0,1,.876-.718,3.028,3.028,0,0,1,1.051-.359l.091.5a2.454,2.454,0,0,0-.9.289,2.607,2.607,0,0,0-.741.6,2.387,2.387,0,0,0-.538,1.129,2.426,2.426,0,0,0,.091,1.226,2.289,2.289,0,0,0,.7,1.018,2.318,2.318,0,0,0,1.128.532,2.422,2.422,0,0,0,2.26-.825,2.5,2.5,0,0,0,.42-.7,2.808,2.808,0,0,0,.193-.81Z" transform="translate(-27.902 -40.142)" fill="#2b2628"/>
    <path id="Path_121" data-name="Path 121" d="M61.677,47.734l-2.148-.554c-.121.124-.216.217-.283.278L58.089,48.5l1.226,1.361-.417.375-3.792-4.211,1.574-1.416a2.46,2.46,0,0,1,1.546-.734,1.723,1.723,0,0,1,1.363.645,1.946,1.946,0,0,1,.532,1.1,1.758,1.758,0,0,1-.283,1.139l2.321.541Zm-2.768-.649a1.89,1.89,0,0,0,.681-1.11A1.317,1.317,0,0,0,59.2,44.89a1.257,1.257,0,0,0-1.02-.478,1.929,1.929,0,0,0-1.166.571l-1.157,1.042,1.895,2.1Z" transform="translate(-37.238 -29.648)" fill="#2b2628"/>
    <path id="Path_122" data-name="Path 122" d="M83.136,34.578l-1.405-.865-2.6,1.775.3,1.62-.5.339-1.089-6.12L78.332,31l5.308,3.238Zm-4.106.371,2.236-1.529-2.853-1.761Z" transform="translate(-52.607 -20.946)" fill="#2b2628"/>
    <path id="Path_123" data-name="Path 123" d="M96.888,18.7a2.376,2.376,0,0,0-1.951,3.462,2.305,2.305,0,0,0,.829.914,2.393,2.393,0,0,0,1.166.372,2.336,2.336,0,0,0,1.217-.264,2.414,2.414,0,0,0,.732-.581,2.616,2.616,0,0,0,.476-.813l.47.169a3.3,3.3,0,0,1-.578.989,2.921,2.921,0,0,1-2.375,1.035,2.906,2.906,0,0,1-1.43-.45,2.8,2.8,0,0,1-1.012-1.112,2.749,2.749,0,0,1-.3-1.466A2.995,2.995,0,0,1,96.834,18.2a2.987,2.987,0,0,1,1.111.1l-.12.5a2.5,2.5,0,0,0-.937-.1" transform="translate(-63.602 -12.292)" fill="#2b2628"/>
    <path id="Path_124" data-name="Path 124" d="M116.91,15.275a1.523,1.523,0,0,1-.935.821,1.807,1.807,0,0,1-.869.1,2.027,2.027,0,0,1-.854-.317l.117-.494a1.864,1.864,0,0,0,.725.269,1.4,1.4,0,0,0,.684-.069.954.954,0,0,0,.6-.547,1.28,1.28,0,0,0-.056-.9l-1.22-3.258-1.913.716-.179-.479,2.445-.915,1.4,3.752a1.746,1.746,0,0,1,.048,1.32" transform="translate(-76.369 -6.895)" fill="#2b2628"/>
    <rect id="Rectangle_13" data-name="Rectangle 13" width="0.56" height="5.667" transform="matrix(0.962, -0.274, 0.274, 0.962, 42.159, 2.346)" fill="#2b2628"/>
    <path id="Path_125" data-name="Path 125" d="M155.265,1.757a2.88,2.88,0,0,0-.787-.019,1.686,1.686,0,0,0-.9.347.715.715,0,0,0-.272.667.826.826,0,0,0,.264.54,1.377,1.377,0,0,0,.519.281,7.334,7.334,0,0,0,.806.18,6.639,6.639,0,0,1,.964.219,1.627,1.627,0,0,1,.656.4,1.309,1.309,0,0,1,.349.8,1.3,1.3,0,0,1-.154.828,1.619,1.619,0,0,1-.644.625,2.763,2.763,0,0,1-1.03.321,2.989,2.989,0,0,1-1.176-.089,3.12,3.12,0,0,1-1.039-.5l.2-.49a2.8,2.8,0,0,0,.951.469,2.559,2.559,0,0,0,1.006.086,1.785,1.785,0,0,0,.989-.39.819.819,0,0,0,.289-.752.86.86,0,0,0-.266-.555,1.287,1.287,0,0,0-.518-.286c-.2-.056-.472-.117-.823-.182a8.031,8.031,0,0,1-.958-.219,1.545,1.545,0,0,1-.646-.393,1.288,1.288,0,0,1-.343-.777,1.212,1.212,0,0,1,.147-.779,1.536,1.536,0,0,1,.613-.579,2.72,2.72,0,0,1,.985-.3,3.263,3.263,0,0,1,.937.021,3.22,3.22,0,0,1,.864.26l-.183.5a2.986,2.986,0,0,0-.8-.239" transform="translate(-103.179 -0.802)" fill="#2b2628"/>
    <path id="Path_126" data-name="Path 126" d="M173.357.035l3.8-.035,0,.5-3.235.031.019,2.027,2.9-.026,0,.5-2.894.027.019,2.132,3.341-.032,0,.5-3.9.037Z" transform="translate(-117.146 0)" fill="#2b2628"/>
    <path id="Path_127" data-name="Path 127" d="M197.147.94l.547.066-.669,5.628-.586-.07-2.921-5.181-.567,4.766-.555-.066.669-5.627.588.069,2.927,5.183Z" transform="translate(-130.012 -0.307)" fill="#2b2628"/>
    <path id="Path_128" data-name="Path 128" d="M218,5.975a2.851,2.851,0,0,0-.727-.3,1.69,1.69,0,0,0-.964-.006.714.714,0,0,0-.5.523.815.815,0,0,0,.05.6,1.393,1.393,0,0,0,.378.451,8.05,8.05,0,0,0,.686.461,6.756,6.756,0,0,1,.82.554,1.659,1.659,0,0,1,.462.614,1.462,1.462,0,0,1-.409,1.586,1.637,1.637,0,0,1-.827.347,2.779,2.779,0,0,1-1.077-.076,2.959,2.959,0,0,1-1.063-.511,3.1,3.1,0,0,1-.786-.842l.364-.385a2.8,2.8,0,0,0,.715.782,2.519,2.519,0,0,0,.906.446,1.772,1.772,0,0,0,1.062,0,.818.818,0,0,0,.544-.594A.869.869,0,0,0,217.6,9a1.284,1.284,0,0,0-.38-.455q-.246-.187-.7-.47a7.767,7.767,0,0,1-.814-.552,1.548,1.548,0,0,1-.459-.6,1.272,1.272,0,0,1-.037-.85,1.2,1.2,0,0,1,.421-.671,1.533,1.533,0,0,1,.78-.317,2.727,2.727,0,0,1,1.026.079,3.285,3.285,0,0,1,.868.36,3.2,3.2,0,0,1,.708.556l-.351.4A2.987,2.987,0,0,0,218,5.975" transform="translate(-144.645 -3.426)" fill="#2b2628"/>
    <path id="Path_129" data-name="Path 129" d="M239.332,12.948a2.908,2.908,0,0,1,.615,1.365,2.721,2.721,0,0,1-.164,1.487,2.759,2.759,0,0,1-.9,1.2,2.988,2.988,0,0,1-4.764-1.887,2.78,2.78,0,0,1,.166-1.5,2.722,2.722,0,0,1,.9-1.2,2.911,2.911,0,0,1,1.382-.573,3.065,3.065,0,0,1,2.767,1.1m-2.651-.583a2.386,2.386,0,0,0-1.132.476,2.276,2.276,0,0,0-.739.989,2.316,2.316,0,0,0-.143,1.235,2.4,2.4,0,0,0,.494,1.133,2.346,2.346,0,0,0,1,.74,2.3,2.3,0,0,0,1.222.14,2.409,2.409,0,0,0,1.132-.489,2.376,2.376,0,0,0,.881-2.224,2.409,2.409,0,0,0-.493-1.12,2.348,2.348,0,0,0-.989-.732,2.376,2.376,0,0,0-1.232-.148" transform="translate(-158.18 -7.99)" fill="#2b2628"/>
    <path id="Path_130" data-name="Path 130" d="M257.976,26.986l-.189-2.21c-.158-.073-.276-.132-.356-.176l-1.365-.745-.879,1.608-.492-.268,2.719-4.973,1.857,1.014a2.464,2.464,0,0,1,1.2,1.218,1.719,1.719,0,0,1-.156,1.5,1.957,1.957,0,0,1-.863.869,1.775,1.775,0,0,1-1.169.109l.258,2.369Zm-.3-2.827a1.888,1.888,0,0,0,1.272.275,1.32,1.32,0,0,0,.9-.726,1.27,1.27,0,0,0,.114-1.121,1.935,1.935,0,0,0-.925-.911l-1.367-.746L256.3,23.413Z" transform="translate(-172.11 -13.664)" fill="#2b2628"/>
    <path id="Path_131" data-name="Path 131" d="M281.522,33.487l-3.92,1.651-1.194,1.627-.451-.331,1.195-1.627.375-4.251.47.345-.26,3.59,3.312-1.349Z" transform="translate(-186.479 -20.648)" fill="#2b2628"/>
    <path id="Path_132" data-name="Path 132" d="M294.269,48.739a2.426,2.426,0,0,0-1.646-1.356,2.345,2.345,0,0,0-1.222.041,2.4,2.4,0,0,0-1.629,1.747,2.418,2.418,0,0,0,.046,1.224,2.359,2.359,0,0,0,.663,1.054,2.4,2.4,0,0,0,.794.492,2.575,2.575,0,0,0,.927.171v.5a3.275,3.275,0,0,1-1.126-.207A2.915,2.915,0,0,1,289.3,50.52a2.923,2.923,0,0,1-.062-1.5,2.818,2.818,0,0,1,.7-1.33,2.722,2.722,0,0,1,1.274-.785,2.966,2.966,0,0,1,2.842.7A3,3,0,0,1,295,49.6l-.507.058a2.488,2.488,0,0,0-.222-.916" transform="translate(-195.403 -31.622)" fill="#2b2628"/>
    <path id="Path_133" data-name="Path 133" d="M305.073,59.647l2.859,3.433-.331.275-6.1.076,2.481,2.979-.386.322-2.948-3.539.336-.28,6.1-.065-2.4-2.878Z" transform="translate(-203.164 -40.307)" fill="#2b2628"/>
    <path id="Path_134" data-name="Path 134" d="M320.677,81.034l.295.466-4.787,3.032-.316-.5,2.177-5.534-4.056,2.568-.3-.472,4.789-3.032.316.5L316.622,83.6Z" transform="translate(-211.976 -52.412)" fill="#2b2628"/>
    <path id="Path_135" data-name="Path 135" d="M330.563,99.359l1.6,3.443-.457.211-1.361-2.935-1.839.852,1.218,2.626-.457.211-1.217-2.626-1.935.9,1.405,3.03-.455.212-1.64-3.538Z" transform="translate(-219.904 -67.142)" fill="#2b2628"/>
    <path id="Path_136" data-name="Path 136" d="M334.446,122.257a1.521,1.521,0,0,1-.791-.962,1.839,1.839,0,0,1-.075-.872,2.015,2.015,0,0,1,.347-.843l.49.135a1.835,1.835,0,0,0-.295.714,1.412,1.412,0,0,0,.046.686.956.956,0,0,0,.526.623,1.272,1.272,0,0,0,.906-.027l3.3-1.108-.652-1.936.484-.163.833,2.475-3.8,1.277a1.749,1.749,0,0,1-1.32,0" transform="translate(-225.402 -80.078)" fill="#2b2628"/>
    <path id="Path_137" data-name="Path 137" d="M345.576,146.818l.1.55-5.576,1.023-.1-.55Z" transform="translate(-229.755 -99.212)" fill="#2b2628"/>
    <path id="Path_138" data-name="Path 138" d="M342.751,174.21l1.824-1.262c-.014-.172-.023-.3-.025-.4L344.519,171l-1.832.037-.011-.559,5.666-.113.042,2.115a2.471,2.471,0,0,1-.457,1.652,1.725,1.725,0,0,1-1.381.607,1.946,1.946,0,0,1-1.18-.317,1.769,1.769,0,0,1-.677-.959l-1.928,1.4Zm2.3-1.668a1.892,1.892,0,0,0,.393,1.241,1.319,1.319,0,0,0,1.076.417,1.265,1.265,0,0,0,1.029-.458,1.942,1.942,0,0,0,.332-1.256l-.033-1.556-2.828.057Z" transform="translate(-231.563 -115.121)" fill="#2b2628"/>
    <path id="Path_139" data-name="Path 139" d="M346.678,196a2.933,2.933,0,0,1-1.162.944,2.735,2.735,0,0,1-1.479.224,2.786,2.786,0,0,1-1.394-.566,2.989,2.989,0,0,1,.6-5.088,2.774,2.774,0,0,1,1.488-.222,2.724,2.724,0,0,1,1.386.564,2.9,2.9,0,0,1,.908,1.191,3.057,3.057,0,0,1-.351,2.954m-.114-2.712a2.39,2.39,0,0,0-.75-.971,2.29,2.29,0,0,0-1.145-.462,2.327,2.327,0,0,0-1.232.18,2.4,2.4,0,0,0-.968.767,2.322,2.322,0,0,0-.459,1.153,2.285,2.285,0,0,0,.177,1.218,2.4,2.4,0,0,0,.762.968,2.326,2.326,0,0,0,1.153.464,2.29,2.29,0,0,0,1.222-.182,2.4,2.4,0,0,0,.958-.764,2.353,2.353,0,0,0,.453-1.143,2.381,2.381,0,0,0-.172-1.229" transform="translate(-230.76 -129.25)" fill="#2b2628"/>
    <path id="Path_140" data-name="Path 140" d="M342.858,214.142l-1.088,4.333-.416-.1-3.657-4.88-.945,3.76-.486-.123,1.12-4.467.424.107,3.647,4.886.912-3.634Z" transform="translate(-227.232 -143.706)" fill="#2b2628"/>
    <path id="Path_141" data-name="Path 141" d="M332.214,244.338l-.23.546-4.482-3.976.225-.538,5.2.46-3.952-3.418.224-.53,5.973.443-.235.561-5.311-.489,4.06,3.455-.222.522-5.311-.489Z" transform="translate(-221.31 -160.072)" fill="#2b2628"/>
    <path id="Path_142" data-name="Path 142" d="M320.846,267.253a2.922,2.922,0,0,1-1.452.362,2.731,2.731,0,0,1-1.434-.426,2.776,2.776,0,0,1-1.024-1.105,2.988,2.988,0,0,1,2.71-4.348,2.775,2.775,0,0,1,1.442.43,2.723,2.723,0,0,1,1.014,1.1,2.893,2.893,0,0,1,.316,1.463,3.069,3.069,0,0,1-1.573,2.525m1.049-2.5a2.387,2.387,0,0,0-.266-1.2,2.284,2.284,0,0,0-.841-.906,2.322,2.322,0,0,0-1.189-.36,2.4,2.4,0,0,0-1.2.283,2.36,2.36,0,0,0-.906.849,2.3,2.3,0,0,0-.355,1.177,2.371,2.371,0,0,0,.278,1.2,2.317,2.317,0,0,0,.846.91,2.284,2.284,0,0,0,1.184.355,2.388,2.388,0,0,0,1.189-.285,2.334,2.334,0,0,0,.9-.841,2.367,2.367,0,0,0,.366-1.185" transform="translate(-213.948 -176.867)" fill="#2b2628"/>
    <path id="Path_143" data-name="Path 143" d="M306.486,280.648a1.526,1.526,0,0,1,.382-1.185,1.809,1.809,0,0,1,.694-.535,2.029,2.029,0,0,1,.9-.165l.152.485a1.858,1.858,0,0,0-.762.138,1.379,1.379,0,0,0-.551.41.953.953,0,0,0-.241.779,1.287,1.287,0,0,0,.513.748l2.715,2.175,1.276-1.594.4.319-1.633,2.037-3.125-2.505a1.751,1.751,0,0,1-.715-1.109" transform="translate(-207.1 -188.373)" fill="#2b2628"/>
    <path id="Path_144" data-name="Path 144" d="M294.183,294.056a2.024,2.024,0,0,0-1.876,1.846,1.882,1.882,0,0,0,.621,1.3l2.368,2.4-.4.392-2.368-2.4a2.34,2.34,0,0,1-.767-1.666,2.692,2.692,0,0,1,2.456-2.42,2.333,2.333,0,0,1,1.659.791l2.365,2.4-.4.392-2.368-2.4a1.863,1.863,0,0,0-1.292-.637" transform="translate(-197.158 -198.339)" fill="#2b2628"/>
    <path id="Path_145" data-name="Path 145" d="M141.632,88.18a3.446,3.446,0,0,0-3.963-.53,5.3,5.3,0,0,0-1.336.639c-3.167,2.138-7.326,3.233-9.055,3.04-.09-.01-.486.021-.517-.238-.034-.285.436-1,.436-1,.884-1.73,1.789-3.41,2.827-5.056.9-1.422,1.865-2.846,2.8-4.222,1.067-1.571,2.171-3.2,3.191-4.847a16.846,16.846,0,0,0,1.71-4.339,4.632,4.632,0,0,0-2.286-4.881c-1.094-.434-2.743-.474-4.409,1.8a12.477,12.477,0,0,0-1.136,1.8,26.734,26.734,0,0,1-4.524,7.086,16.4,16.4,0,0,0-1.935,2.563,41.351,41.351,0,0,1,3.843-9,21.119,21.119,0,0,0,2.324-5.876,3.267,3.267,0,0,0-.621-2.978,3.9,3.9,0,0,0-3.286-1.3c-2.917.229-4.405,2.28-5.4,4.071a24.218,24.218,0,0,0-1.233,2.706c-.314.773-.611,1.5-.972,2.2-.7,1.345-1.476,2.692-2.226,3.994-.513.891-1.026,1.782-1.522,2.683s-.947,1.792-1.4,2.7a7.624,7.624,0,0,1-.5-1.627c-.259-1.651-.463-3.349-.661-4.99-.207-1.71-.419-3.478-.7-5.217a21.209,21.209,0,0,0-1.512-5.553,3.374,3.374,0,0,0-6.084-.186,6.1,6.1,0,0,0-.891,3.163c.1,1.775.27,3.568.434,5.3.153,1.623.312,3.3.411,4.948a44.177,44.177,0,0,1-.043,6.225c-.2,2.46-1.5,4.51-2.877,6.68-.258.407-.517.814-.767,1.222-.4.647-.814,1-1.243,1.05a2.425,2.425,0,0,1-1.776-.928A15.241,15.241,0,0,1,94.8,86.667l-.324-.509c-2.1-3.268-4.358-5.068-7.33-5.837a5.014,5.014,0,0,0-4.47.856,3.083,3.083,0,0,0-1.108,2.707,8.308,8.308,0,0,0,1.648,3.665c.8,1.161,1.64,2.306,2.459,3.413,1.106,1.5,2.251,3.046,3.258,4.624a21.633,21.633,0,0,1,1.474,2.934,25.4,25.4,0,0,0,1.48,2.983c2.284,3.75,6.147,8.571,13.4,7.624.462,1.639.666,3.21.423,3.641-.174.233-.388.5-.627.8a21.51,21.51,0,0,0-4.85,9.3c-1.233,6.192-2.847,17.346.2,22.477,1.885,3.178,5.907,6.6,10.284,6.6h.008c2.18,0,5.287-.861,7.726-4.957,4.45-7.47,3.8-20.545,1.9-29.47-.075-.351-.184-.773-.313-1.242q-.174-.741-.4-1.417a25.231,25.231,0,0,1-1.036-4.443.955.955,0,0,1-.114.325l-.006,0a4.355,4.355,0,0,1,.883-1.707c.681-.851,1.394-1.676,2.106-2.5l.905-1.053a16.349,16.349,0,0,1,5.574-4.756c.988-.436,1.987-.853,2.985-1.271,1.937-.811,3.94-1.649,5.857-2.618a20.934,20.934,0,0,0,4.735-3.419,3.437,3.437,0,0,0,.115-5.233m-34.9,6.134a4.994,4.994,0,0,1,.833-2.341,1.428,1.428,0,0,1,1.179-.431,1.245,1.245,0,0,1,.749.541c.758,1.138,1.156,4.5,1.2,4.963l.273,1.669s3.475-3.4,4.616-3.272c.507.055,1.789.247,1.851,1.2.188,2.919-1.079,3.6-3.726,5.294-1.457.934-3.049,1.755-4.588,2.55q-.7.359-1.389.721a.917.917,0,0,1-.166.064,27.949,27.949,0,0,1-.835-10.962m32.5-3.152a5.459,5.459,0,0,1-1.88,1.676c-3.033,1.535-6.21,3.04-9.444,4.475a14.928,14.928,0,0,0-5.354,3.375c-2.081,2.3-4.139,4.693-5.9,6.754a5.771,5.771,0,0,0-1.109,1.941,2.375,2.375,0,0,0-.154.565,6.217,6.217,0,0,0,.134,3.034c.2.693.456,1.359.707,2,.052.132.1.26.151.391l.014,0c.046.161.085.3.134.473.266.926.518,1.8.634,2.347,1.783,8.35,2.458,20.463-1.51,27.123-1.33,2.234-2.988,3.366-4.927,3.366h0c-2.965,0-6.01-2.522-7.485-5.009-1.792-3.021-1.718-10.564.2-20.179a18.39,18.39,0,0,1,4.2-7.9c.263-.329.5-.622.692-.88,1.184-1.579.729-4.356.14-6.408.225-.076.414-.143.522-.188l-.017-.028.112-.054c.788-.384,1.6-.78,2.371-1.25q.664-.405,1.335-.8a46.115,46.115,0,0,0,5.105-3.371,7.067,7.067,0,0,0,1.532-9.069,3.117,3.117,0,0,0-4.232-1.206c-.658.354-1.3.739-1.95,1.132-.105-.513-.216-1.024-.342-1.53a4.574,4.574,0,0,0-3.741-3.5,3.939,3.939,0,0,0-4.016,1.61,8.352,8.352,0,0,0-1.709,5.066,33.831,33.831,0,0,0,1.068,10.966c-.2-.015-.406-.029-.61-.042a12.313,12.313,0,0,1-3.114-.465c-2.626-.9-4.649-2.848-6.562-6.328-.463-.84-.85-1.718-1.26-2.647a26.569,26.569,0,0,0-1.867-3.7c-1.054-1.644-2.263-3.2-3.431-4.705-.723-.931-1.446-1.861-2.135-2.815-.083-.114-.173-.231-.264-.35-.688-.9-.7-1.079-.451-1.41.265-.352.566-.357,1.541-.185.2.036.406.071.628.12.069.03.14.059.209.083a8.618,8.618,0,0,1,4.283,3.726,41.93,41.93,0,0,0,3.283,4.388,4.816,4.816,0,0,0,4,1.536h.01a4.309,4.309,0,0,0,3.367-2.053c.642-1.062,1.305-2.16,2.01-3.231a15.333,15.333,0,0,0,2.614-9.364c-.126-2.52-.355-5.068-.577-7.532-.168-1.861-.335-3.723-.461-5.587a5.442,5.442,0,0,1,.442-2.283.317.317,0,0,1,.24-.219c.053-.015.121,0,.2.112A6.143,6.143,0,0,1,107.6,65.58c.253,1.655.45,3.356.64,5,.181,1.554.367,3.161.6,4.742a34.021,34.021,0,0,0,1.24,5.306,5.793,5.793,0,0,0,1.72,2.366,2.04,2.04,0,0,0,1.841.62,2.079,2.079,0,0,0,1.448-1.361c.576-1.337,1.221-2.691,1.917-4.026.561-1.077,1.187-2.154,1.793-3.2a40.514,40.514,0,0,0,3.5-7.055,6.3,6.3,0,0,1,3.233-3.991.791.791,0,0,1,.669-.061.669.669,0,0,1,.247.5,5.867,5.867,0,0,1-.97,3.351L124.3,70.119c-.966,1.926-1.964,3.917-2.853,5.929s-1.654,4.116-2.392,6.144l-.352.969A2.346,2.346,0,0,0,119,85.079a11.01,11.01,0,0,0,.971,1.258,3.129,3.129,0,0,0,1.292.685c.759,0,1.9-1.491,1.9-1.491.743-.9,1.373-1.658,1.98-2.436.443-.567.869-1.149,1.3-1.73.656-.9,1.337-1.824,2.059-2.663a21.8,21.8,0,0,0,3.48-5.5,15.881,15.881,0,0,1,1.77-2.819c.153-.211.377-.511.6-.461,1.173.258.526,1.534-.306,2.957-1.049,1.8-2.206,3.584-3.325,5.312-.783,1.21-1.566,2.42-2.324,3.645-1.514,2.45-3.078,4.984-4.41,7.618a4.223,4.223,0,0,0,.32,3.545,2.938,2.938,0,0,0,3.519,1.235c2.4-.213,6.852-.962,10.3-3.581a1.671,1.671,0,0,1,.513-.2.591.591,0,0,1,.445.045c.285.163.2.578.146.67" transform="translate(-55.11 -40.413)" fill="#89c069"/>
    <path id="Path_146" data-name="Path 146" d="M158.29,165.484a46.13,46.13,0,0,0,5.105-3.371,7.067,7.067,0,0,0,1.533-9.069,3.118,3.118,0,0,0-4.232-1.207c-.658.355-1.3.739-1.95,1.133-.105-.513-.215-1.024-.341-1.53a4.574,4.574,0,0,0-3.741-3.5,3.939,3.939,0,0,0-4.016,1.61,8.35,8.35,0,0,0-1.709,5.066,33.841,33.841,0,0,0,1.068,10.966,24.269,24.269,0,0,0,.791,3.042,21.081,21.081,0,0,0,3.169-.814,4.761,4.761,0,0,0,.506-.216l.112-.054c.788-.384,1.6-.781,2.37-1.25q.664-.405,1.335-.8m-5.047-.778a.928.928,0,0,1-.166.064,27.942,27.942,0,0,1-.835-10.962,5,5,0,0,1,.833-2.341,1.431,1.431,0,0,1,1.18-.431,1.246,1.246,0,0,1,.749.542c.758,1.138,1.156,4.5,1.2,4.963l.273,1.668s3.475-3.4,4.616-3.272c.507.055,1.789.247,1.851,1.2.188,2.919-1.079,3.6-3.726,5.294-1.458.934-3.049,1.755-4.588,2.55q-.7.359-1.389.721" transform="translate(-100.595 -99.907)" fill="#d8639b"/>
  </g>
</svg>
