<svg xmlns="http://www.w3.org/2000/svg" xmlns:xlink="http://www.w3.org/1999/xlink" width="694.065" height="662.419" viewBox="0 0 694.065 662.419">
  <defs>
    <clipPath id="clip-path">
      <rect id="Rectangle_17" data-name="Rectangle 17" width="453.279" height="539.736" transform="translate(0 0)" fill="none"/>
    </clipPath>
  </defs>
  <g id="Group_14" data-name="Group 14" transform="translate(694.065 269.868) rotate(120)">
    <g id="Group_13" data-name="Group 13" transform="translate(0 0)" clip-path="url(#clip-path)">
      <path id="Path_152" data-name="Path 152" d="M212.942,255.684c-3.939-2.445-3.688-10.009.605-16.936,4.288-6.893,10.96-10.516,14.9-8.071s3.685,10.042-.6,16.936-10.963,10.519-14.905,8.071M353.653,340.4c-2.317-.063-4.028-1.893-4.875-3.906-.343-.823,1.1-1.428,1.446-.608.769,1.819,2.332,2.588,3.694,3.873a.379.379,0,0,1-.265.641m1.586-8.73a.491.491,0,0,1-.465.614c-.939-.006-1.708-.966-2.022-1.777a4.632,4.632,0,0,1-.1-2.985.648.648,0,0,1,1.249.34,3.219,3.219,0,0,0,.256,2.051c.307.608.918,1.094,1.079,1.756m2.522-1.905a.584.584,0,0,0,.555-.733c-.143-.969-1.169-1.64-1.479-2.6a8.657,8.657,0,0,1-.325-2.85.622.622,0,0,0-1.217-.164,6.271,6.271,0,0,0,.024,4.034c.376.993,1.27,2.341,2.442,2.314M120.667,186.561c.817.256.462,1.556-.352,1.285-.614-.209-1.231-.4-1.855-.569a14.671,14.671,0,0,1-1.9-.492c-.343-.146-.176-.6.092-.7,1.166-.453,2.883.116,4.013.477m6.41.024a14.7,14.7,0,0,1-3.757-.912c-.623-.331-.373-1.482.376-1.389a14.757,14.757,0,0,1,3.787,1.345c.569.245.149,1.085-.406.957m-1.914-5.361c.119-1.058,1.369-.5,1.9-.2a13.493,13.493,0,0,0,4.025,1.589c.459.092.48.877,0,.948a6.852,6.852,0,0,1-3.45-.274c-.874-.307-2.6-.912-2.472-2.066M116.68,287.95c.865.584,1.243,1.735,1.846,2.567a16.194,16.194,0,0,0,2.958,2.931c.88.719-.367,1.935-1.237,1.24a19.528,19.528,0,0,1-3.14-3.077c-.695-.883-1.64-2.123-1.3-3.31a.6.6,0,0,1,.871-.352m-7.517,5.981a.531.531,0,0,1,.495-.373c1.076-.089,1.762,1.315,2.344,2.063.847,1.088,1.717,2.147,2.657,3.155a.736.736,0,0,1-1.038,1.044c-.993-.951-1.92-1.962-2.824-2.991-.65-.742-1.971-1.828-1.634-2.9m-3.42,3.539a.387.387,0,0,0-.581.331,5.421,5.421,0,0,0,1.911,3.2c.93.984,1.92,1.9,2.916,2.824a.589.589,0,0,0,.832-.832c-.921-1-1.849-1.989-2.7-3.038a7.774,7.774,0,0,0-2.379-2.484m224.25,29.864c.069.388-.033,1.041.245,1.351.608.692-.423,1.705-1,1a2.921,2.921,0,0,1-.5-2.355.655.655,0,0,1,1.258,0m-4.7,3c.7-.394,1.13.426,1.217,1.011a4.34,4.34,0,0,0,.713,2.227.666.666,0,0,1-.942.939,4.75,4.75,0,0,1-1.19-1.741c-.271-.671-.593-1.983.2-2.436M361.142,152.97a.432.432,0,0,1,0,.459c-.435.629-1.225.227-1.708.695-.8.772-1.863-.543-.945-1.225.65-.483,2.144-.665,2.654.072m.805,3.772c.713-.516,1.944-1.148,2.785-.6a.488.488,0,0,1,.173.659c-.408.656-1.309.859-1.935,1.264a5.776,5.776,0,0,0-1.562,1.494c-.564.775-1.855.072-1.315-.766a7.4,7.4,0,0,1,1.855-2.054m.465,6.542a.785.785,0,0,0,0,1.5c1.944.423,4.288-.817,6-1.6,1.661-.748,5.069-1.884,5.638-3.852a.629.629,0,0,0-.6-.784c-1.768-.128-4.025,1.84-5.555,2.606a40.358,40.358,0,0,1-5.489,2.123m-87.221-54.4c.394.662.587,1.44.933,2.132.379.757-.754,1.425-1.133.665-.429-.862-1.032-1.849-.558-2.8a.447.447,0,0,1,.757,0m-4.932-.161a.544.544,0,0,1,.537.146c.492.561.921,1.148,1.455,1.676.569.549-.313,1.434-.865.865a6.181,6.181,0,0,1-1.512-2.01.523.523,0,0,1,.143-.531.718.718,0,0,1,.242-.146m-7.669-1.929a.518.518,0,0,1,.522,0c.674.367.689,1.342,1,1.974a6.879,6.879,0,0,0,1.849,2.087c.611.51-.194,1.547-.847,1.1a8.775,8.775,0,0,1-2.5-2.308c-.492-.76-.972-2.26-.021-2.853m-9.759-5.6c1.276,1.166,1.685,3.638,2.537,5.143a14.884,14.884,0,0,0,5.119,4.955c.316.212.349.841-.116.915-2.439.355-4.574-1.6-5.9-3.438-1.2-1.649-3.578-5.131-2.677-7.3a.631.631,0,0,1,1.041-.274M228.971,44.383c-.119.128-.23.233-.149.408a.849.849,0,0,1-.3,1.139.83.83,0,0,1-1.136-.3,2.05,2.05,0,0,1,.03-1.968,1.685,1.685,0,0,1,2.066-.766.518.518,0,0,1,.188.71,3.528,3.528,0,0,1-.7.775m2.153,7.233a3.379,3.379,0,0,0-.787,2.191.737.737,0,0,1-1.473,0c.033-1.881,1.443-4.8,3.724-4.565a.459.459,0,0,1,.322.775c-.5.629-1.246,1.008-1.786,1.6m3.074,7.32a7.963,7.963,0,0,0-1.282,2.913c-.209.915-1.6.522-1.4-.388a9.743,9.743,0,0,1,1.372-3.289c.519-.8,1.285-1.861,2.317-1.887a.517.517,0,0,1,.492.647c-.212.8-1.023,1.351-1.5,2m2.409,13.176c-.564-6.172,6.151-9.163,10.188-12.314.388-.3.057-.939-.382-.927-5.993.149-12.29,7.523-11.095,13.42a.658.658,0,0,0,1.288-.179m172.626,38.519c.063.027.507.391.152.194a.859.859,0,0,1,.143.107l.015.006a.833.833,0,0,1-.444,1.6,1.074,1.074,0,0,1-.54-1.819.556.556,0,0,1,.674-.092m.733-3.709a.678.678,0,0,1,.763-.987c.674.259,1.3.719,1.956,1.041.85.414.1,1.705-.742,1.27a4.876,4.876,0,0,1-1.977-1.324m1.246-7.475c.388-.7,1.386-.355,1.92-.11a6.527,6.527,0,0,1,1.914,1.434.692.692,0,0,1-.978.978,4.331,4.331,0,0,0-1.932-1.085c-.531-.131-1.27-.581-.924-1.217m21.175-25.26a1.647,1.647,0,0,1,1.822.4c.725.593-.343,1.7-1.041,1.038-.23-.215-.522-.176-.781-.349a.638.638,0,0,1,0-1.088m-1.747-8.459a.812.812,0,0,1,.71-.409,10.014,10.014,0,0,1,3.679.772c.993.34.578,1.914-.438,1.583a13.747,13.747,0,0,0-2.713-.659c-.754-.069-1.688-.352-1.237-1.288m3.08-7.385c.93.471.113,1.849-.811,1.392a7.989,7.989,0,0,0-2.206-.71c-.883-.158-.611-1.446.2-1.488a5.594,5.594,0,0,1,2.815.8m1.026-4.914a5.752,5.752,0,0,0-2.71-1c-.832-.077-1.643.134-2.361-.391a.556.556,0,0,1-.2-.754c1.3-1.917,4.741-.405,6.142.662.856.647.078,2.1-.871,1.482m-7.937-9.154c-.441-.131-.614-.835-.14-1.055,3.5-1.61,7.057,1.306,9.962,2.928.739.411.092,1.461-.656,1.118-1.458-.668-2.952-1.264-4.463-1.813-1.533-.552-3.152-.716-4.7-1.178M397.676,25.551a.537.537,0,0,1,.143-1.049c14.559.385,29.482,4.6,39.646,15.439a.586.586,0,0,1-.829.829c-11.118-10.236-24.92-11.882-38.961-15.218M452.615,87.47l0,0a1.115,1.115,0,0,1-1.905-.79,1.534,1.534,0,0,1,.578-1.145c1-1.1,2.731.62,1.634,1.634-.1.1-.2.209-.31.3m-23.209,38.552c3.81-5.474,18.522-25.445,19.869-29,.23-.608,1.249-.575,1.2.164-.668,11.124-13.772,20.859-20.135,29.378-.411.552-1.345.036-.939-.546M207.93,57.75a.956.956,0,0,1,0-1.911.956.956,0,0,1,0,1.911m11.909,33.469c-5.85-6.533-13.006-14.735-13.358-23.96-.027-.665,1.014-1,1.306-.355,1.744,3.9,3.059,7.916,5.075,11.715A89.208,89.208,0,0,0,220.774,90.5c.408.54-.492,1.223-.936.722M139.546,139.58a3.635,3.635,0,0,1-.9-.048.954.954,0,0,1,0-1.813,3.5,3.5,0,0,1,.9-.045.953.953,0,0,1,0,1.905m26.772.641c-2.833-.641-5.614-1.485-8.462-2.09-3.784-.8-7.084-.1-10.835.051a.678.678,0,0,1-.474-1.151c5.364-4.329,14.953-.739,20.153,2.293a.494.494,0,0,1-.382.9M2.279,256.638c-.012.033-.027.066-.042.1a1.3,1.3,0,0,1-.364.555l-.066.051a.87.87,0,0,1-.51.352,1.119,1.119,0,0,1-1.011-.259c-.6-.6-.137-1.315.292-1.825.707-.85,1.941.137,1.705,1l-.006.033m2.558-10.179c.1.707-.96,1.038-1.1.3-2.135-11.473,4.532-26.745,12.427-34.98.42-.432,1.315.012,1.07.623-4.544,11.154-14.2,21.047-12.4,34.053M118.192,478.785c-.036-.021-.057-.045-.086-.066a.915.915,0,0,1-.367-.552v0a.874.874,0,0,1-.027-.265.913.913,0,0,1,.027-.265v0a.9.9,0,0,1,.367-.546.381.381,0,0,1,.086-.069,1.542,1.542,0,0,1,.808-.227c1.431-.1,1.431,2.32,0,2.221a1.489,1.489,0,0,1-.808-.227m11.393,2.77c11.575,3.241,22.938,6.243,35,7.049a.509.509,0,0,1,0,1.017,73.212,73.212,0,0,1-35.359-7.2c-.495-.242-.146-1,.361-.868m196.276,19.267c1.038-.051,1.228,1.208.6,1.789l-.009.03.021-.018c-.018.045-.027.078-.036.1a1.21,1.21,0,0,1-1.184,1.061,1.232,1.232,0,0,1-1.172-1.541,1.793,1.793,0,0,1,1.78-1.416m5.93-44.169c6.479,11.506,4.291,26.614-1.249,37.941-.244.507-1.115.149-.912-.382a57.068,57.068,0,0,0,3.936-18.271c.25-6.565-1.89-12.448-2.958-18.793-.116-.686.8-1.178,1.184-.495M381.2,290.55c-.158.054-.143.018,0,0l.06-.021a1.728,1.728,0,0,1-.274.021,1.348,1.348,0,0,1-1.148-2,1.478,1.478,0,0,1,1.467-.674,1.322,1.322,0,0,1,.14,2.63l-.069.015c-.027,0-.042.018-.072.018a.852.852,0,0,0-.1.012m6.056,4.04c7.3,4.762,9.5,15.665,8.745,23.757a.5.5,0,0,1-1,0,57.433,57.433,0,0,0-2.466-12.269c-1.413-4.01-4.129-6.95-6.226-10.543-.337-.581.352-1.336.945-.945M320.569,380.78a.406.406,0,0,1,.6.349c.036.259.039.546.054.808.939-.787,2.3.575,1.351,1.366-.784.653-2.248.859-2.9-.113-.543-.808.179-1.983.895-2.409m4.684-6.625c1.231-.113,2.218.924,3.011,1.717a.56.56,0,0,1-.79.793c-.355-.355-.719-.695-1.1-1.026-.426-.364-.9-.671-1.3-1.064a.249.249,0,0,1,.173-.42m2.18-7.854a.45.45,0,0,1,.316-.561,3.667,3.667,0,0,1,2.7,1.082c.96.707,1.887,1.446,2.815,2.192.668.525-.215,1.673-.909,1.178-.918-.644-1.831-1.282-2.767-1.89-.844-.549-1.81-.993-2.15-2m4.109-6.589c.954,1.738,2.788,3.089,4.07,4.616q2.066,2.455,4.192,4.866c.486.546,1.249-.247.793-.79-1.512-1.819-2.731-3.849-4.21-5.7-1.139-1.431-2.448-3.2-4.27-3.742a.515.515,0,0,0-.575.748m-161.457-29.4c-.027,1.02.343,1.983.319,2.991-.009.4-.51.79-.883.5a4.694,4.694,0,0,1-1.47-3.494c-.089-1.3,2.066-1.315,2.033,0m-7.01.883a6.3,6.3,0,0,1,2.7,3.48c.081.361-.325.775-.683.522-1.076-.751-1.658-2.016-2.737-2.776-.739-.525-.045-1.744.716-1.225m-27.738-77.569c.677.316,1.058,1.139,1.47,1.729a14.576,14.576,0,0,0,1.518,1.825c.832.832-.468,2.135-1.285,1.288a15.225,15.225,0,0,1-1.646-2.016,3.592,3.592,0,0,1-.844-2.508.544.544,0,0,1,.787-.319m2.806-7.672c.617-.611,1.509.549,1.893.921.647.617-.355,1.616-.975.975-.373-.382-1.536-1.282-.918-1.9m2.9-8.3a3.922,3.922,0,0,1,2.746,1.494,22.1,22.1,0,0,1,2.549,3.1c.34.474-.411,1.041-.8.617a25.672,25.672,0,0,0-2.552-2.478c-.8-.671-1.831-1.2-2.263-2.18a.373.373,0,0,1,.316-.555m1.252-16.375c-.119-.286.307-.417.465-.2,2.988,4.285,6.079,9.735,5.3,15.153a.307.307,0,0,1-.59,0,47.941,47.941,0,0,0-1.732-7.391c-.954-2.6-2.409-5-3.447-7.561M45.972,217c-1.166-.641-1.318-2.09-1.351-3.271a.77.77,0,0,1,1.539,0,6.356,6.356,0,0,0,.259,2.827.331.331,0,0,1-.447.444m8.062-4.818a8.359,8.359,0,0,1-1.518-7.621.746.746,0,0,1,1.437.4c-.7,2.433.435,4.428.844,6.78.069.411-.429.814-.763.441m7.529-2.8c-.063.48-.889.474-.96,0-.671-4.419-1.306-11.321,2.418-14.637a.431.431,0,0,1,.674.519c-2.478,4.523-1.47,9.246-2.132,14.118m12.395-19.309a25.805,25.805,0,0,0-.358,7.362c.14,3.6,1.488,7.493,1.1,11.065a.55.55,0,0,1-1.014.274c-2.2-3.143-4.741-22.607,1.219-22.785a.469.469,0,0,1,.447.59c-.322,1.213-1.076,2.248-1.4,3.494M32.629,325.829a2.9,2.9,0,0,1,.194-1.19.249.249,0,0,1,.474,0,2.941,2.941,0,0,1,.188,1.19.428.428,0,0,1-.856,0m3.84,3.733c-.042-.453-.438-.757-.224-1.222a.2.2,0,0,1,.316-.042,2.717,2.717,0,0,1,.546,1.178.323.323,0,1,1-.638.086m7.523,8.6a15.074,15.074,0,0,1-1.333-3.178c-.271-1-.623-2.323.116-3.178a.526.526,0,0,1,.742,0,4.508,4.508,0,0,1,.757,2.338,18.016,18.016,0,0,0,1.017,3.259c.373.868-.826,1.637-1.3.76m9.908,6.8c-1.017-1.1-1.288-2.725-1.589-4.138a10.706,10.706,0,0,1-.236-5.4.432.432,0,0,1,.784-.1c.853,1.392.877,2.859,1.124,4.454s.826,3.137,1.023,4.729c.066.572-.751.844-1.106.459m83.4,113.074c.632-.069,1.2.68,1.6,1.073.623.608-.346,1.58-.954.957-.394-.408-1.145-.978-1.073-1.6a.45.45,0,0,1,.426-.432m5.719,1.142c.9.227,1.613,1.154,2.251,1.78a.7.7,0,0,1-.99.993,5.855,5.855,0,0,1-1.786-2.248.428.428,0,0,1,.525-.525m12.079,2.254c.528.241.736.889,1.02,1.357a4.8,4.8,0,0,0,1.348,1.416c.739.522.042,1.747-.716,1.222a6.982,6.982,0,0,1-1.774-1.753c-.414-.581-.865-1.38-.513-2.078a.467.467,0,0,1,.635-.164m8.208,1.139c1.717.817,2.663,2.657,3.688,4.171.4.587-.534,1.318-.993.763a20.618,20.618,0,0,1-3.295-4.332.443.443,0,0,1,.6-.6m7.186-.516c1.413.7,2.338,2.344,3.235,3.593a26.2,26.2,0,0,1,2.982,5.2c.307.73-.647,1.348-1.088.638a54.516,54.516,0,0,0-3.393-4.681c-.969-1.234-2.338-2.493-2.627-4.07a.613.613,0,0,1,.891-.683m62.67,60.706c.748.531,1.133,1.449,1.78,2.1.629.635-.367,1.631-.978.981a4.156,4.156,0,0,1-1.407-2.734.4.4,0,0,1,.605-.346m5.31,1.512c.653-.17,1.208.638,1.625,1.035.549.525-.3,1.38-.826.832-.4-.42-1.208-.972-1.038-1.628a.354.354,0,0,1,.239-.239m8.1,1.079c.6-.313,1.076.2,1.485.581a6.262,6.262,0,0,1,1.255,1.649c.459.868-.847,1.634-1.315.769a9.177,9.177,0,0,0-1.145-1.5c-.274-.325-.933-1.151-.28-1.5m42.6-12.708c.194,0,.391,0,.587-.006a.755.755,0,0,1,0,1.509l-.587-.009a.747.747,0,0,1,0-1.494m2.206-3.4c.522.069.647.459.975.805.45.474-.3,1.2-.707.71a9.342,9.342,0,0,0-.572-.778.422.422,0,0,1-.069-.522.437.437,0,0,1,.373-.215m3.333-4.237a10.59,10.59,0,0,1,1.562,1.124c.722.677-.352,1.738-1.076,1.079-.426-.394-.963-.632-1.374-1.047-.575-.587.179-1.625.889-1.157m12.311-21.876c.012.179.3.388.343.575a.577.577,0,0,1-.265.653c-.751.441-1.556-.292-1.694-1.011a.819.819,0,1,1,1.616-.218m1.714-8.888a4.591,4.591,0,0,1,1.061,1.214.871.871,0,0,1-1.187,1.178,4.5,4.5,0,0,1-1.214-1.055.946.946,0,0,1,1.339-1.336m2.353-13.534a1.285,1.285,0,0,0,.537,1.154.4.4,0,0,1,0,.683c-1.267.566-2.045-.722-2.093-1.837-.045-1,1.533-1,1.556,0m-.561-7.472c-1.139.555-2.171-.614-2.654-1.539-.394-.748.73-1.407,1.133-.665a4.109,4.109,0,0,0,1.521,1.461.437.437,0,0,1,0,.742m-6.738-11.548a5.37,5.37,0,0,0,1.219,1.1,6.664,6.664,0,0,1,.811.605,2.136,2.136,0,0,1,.385.772.4.4,0,0,1-.379.5,2.7,2.7,0,0,1-1.9-.805,3.878,3.878,0,0,1-1.3-1.494.673.673,0,0,1,1.163-.677m-4.571-8.679A17.687,17.687,0,0,1,302,434.3c.883.528,2.129,1.032,2.657,1.935a.386.386,0,0,1-.331.581,5.843,5.843,0,0,1-2.588-1.327,24.985,24.985,0,0,0-2.862-1.673c-.447-.2-.125-.972.34-.8m-10.609-9.768a11.246,11.246,0,0,1,6.95,1.151,30.548,30.548,0,0,1,8.265,5.435.343.343,0,0,1-.334.57c-2.367-.549-4.291-2.239-6.3-3.539a19.8,19.8,0,0,0-8.557-3.408c-.107-.012-.152-.188-.027-.209M258.253,319.582a1.62,1.62,0,0,1,1.714,1.461,21.038,21.038,0,0,0,3.53,10.17,33.083,33.083,0,0,0,26.849,13.411,8.141,8.141,0,0,0,3.843-1.082,1.577,1.577,0,0,1,1.908,2.508c-6.449,5.5-13.22,7.087-19.351,6.166a24.5,24.5,0,0,1-11.569-5.146,27.214,27.214,0,0,1-7.687-9.693c-2.609-5.43-3.116-11.533-.605-16.777a1.662,1.662,0,0,1,1.366-1.017m2.1,16.461h0a24.142,24.142,0,0,0,6.8,8.548,21.507,21.507,0,0,0,10.075,4.478,18.863,18.863,0,0,0,10.167-1.27,36.6,36.6,0,0,1-12.269-3.244,33.225,33.225,0,0,1-14.264-11.6,26.864,26.864,0,0,1-2.448-4.607,19.233,19.233,0,0,0,1.941,7.69m-55.765-51.191a1.584,1.584,0,0,1,2,.635,1.6,1.6,0,0,1-.569,2.191c-7.311,4.294-14.237,4.675-20.114,2.7a24.518,24.518,0,0,1-10.486-7.117,27.06,27.06,0,0,1-5.91-10.838c-1.622-5.844-1.05-11.947,2.35-16.682a1.635,1.635,0,0,1,1.5-.73,1.614,1.614,0,0,1,1.428,1.714,21.1,21.1,0,0,0,1.717,10.647,30.53,30.53,0,0,0,10.895,12.553c4.514,3.08,9.407,4.955,13.188,5.307a8.542,8.542,0,0,0,4.007-.385m-18.969-2.32h0a33.677,33.677,0,0,1-12.046-13.885,28.544,28.544,0,0,1-1.589-4.988,19.17,19.17,0,0,0,.572,7.91,23.648,23.648,0,0,0,5.215,9.6,20.94,20.94,0,0,0,9.115,6.2,19.266,19.266,0,0,0,10.3.507,36.4,36.4,0,0,1-11.563-5.337m-69.3-85.444c10.039-1.649,22.69-8.641,32.249-20.016a1.6,1.6,0,0,0-.188-2.224,1.614,1.614,0,0,0-1.685-.221,24.5,24.5,0,0,1-14.139,1.777,23.74,23.74,0,0,1-12.773-6.2,1.6,1.6,0,0,0-2.257-.033,1.565,1.565,0,0,0,0,2.224,26.949,26.949,0,0,0,14.523,7.12,28.306,28.306,0,0,0,10.072-.128c-8.36,8.2-18.241,13.25-26.31,14.583a18.7,18.7,0,0,1-8.739-.352,7.564,7.564,0,0,1-4.8-4.1c-1.273-2.794-1.145-6.929.921-12.52a1.581,1.581,0,0,0-.921-2.033,1.558,1.558,0,0,0-2.036.924c-2.412,6.446-2.478,11.4-.856,14.935a10.672,10.672,0,0,0,6.673,5.814,21.853,21.853,0,0,0,10.263.441m99.648,5.432c-3.751,1.082-7.785-.379-11.279-3.62a29.754,29.754,0,0,1-7.725-13.313,29.151,29.151,0,0,1-.537-15.379c1.2-4.607,3.843-8.009,7.594-9.088s7.785.379,11.279,3.623a31.84,31.84,0,0,1,8.292,28.692c-1.237,4.607-3.876,8.006-7.624,9.085m4-23.573h0a26.194,26.194,0,0,0-6.828-11.885c-2.675-2.481-5.629-3.65-8.232-2.925-2.606.766-4.478,3.336-5.432,6.861a28.679,28.679,0,0,0,7.371,25.582c2.669,2.481,5.656,3.653,8.229,2.889,2.606-.73,4.514-3.3,5.435-6.828a26.077,26.077,0,0,0-.543-13.695m62.023,61.037a3.216,3.216,0,0,1-2.379-3.814,3.165,3.165,0,0,1,3.781-2.379c5.593,1.27,8.671,4.988,9.565,8.99a10.836,10.836,0,0,1-.638,6.58,9.717,9.717,0,0,1-4.765,4.926c-3.718,1.777-9.118,1.491-15.665-3.02a3.168,3.168,0,1,1,3.56-5.242c4.383,3.017,7.5,3.429,9.4,2.54a3.548,3.548,0,0,0,1.658-1.75,4.323,4.323,0,0,0,.221-2.7c-.385-1.816-1.908-3.5-4.738-4.135m15.221-76.165c-18.3-1.428-38.8,5.722-54.87,23.391a3.16,3.16,0,0,0,.218,4.475,3.213,3.213,0,0,0,.349.289l86.21,60.753a3.164,3.164,0,0,0,4.413-.793,3.416,3.416,0,0,0,.349-.6c12.013-24.088,12.269-44.328,5.5-59.328a46.789,46.789,0,0,0-17.091-19.858,53.472,53.472,0,0,0-25.075-8.328m21.608,13.635a40.261,40.261,0,0,1,14.777,17.156,43.019,43.019,0,0,1,2.913,9.174c-4.693,3.828-12.532,5.087-20.74,3.822a41.823,41.823,0,0,1-12.424-3.972,34.565,34.565,0,0,1-10.388-7.88c-5.409-6.1-8.509-14.541-6.908-25.338a53.645,53.645,0,0,1,10.689-.274,47.078,47.078,0,0,1,22.082,7.311m10.9,67.936h0c5.987-12.985,8.25-24.607,7.7-34.616-6.041,3.351-14.27,4.389-22.63,3.092a48.444,48.444,0,0,1-14.267-4.577,40.912,40.912,0,0,1-12.3-9.341c-6.214-6.98-9.917-16.438-8.709-28.337a64,64,0,0,0-29.995,17.252Zm64.5-101.524C427.438,120.8,451.6,87.813,449.574,45.746l-.036-.477A26.686,26.686,0,0,0,444.3,30.62C417.51-6.278,258.119-7.551,227.462,14.668c-28.406,20.624,6.577,80.074,6.676,80.268a3.229,3.229,0,0,0,.435.564c1.166,13.14,13.286,21.253,20.03,24.789-36.414,1.094-71.645,13.352-90.343,26.727-7.645-3.408-37.768-13.56-74.021,18.516C57.1,178.824,34.862,200.235,22.1,224.26A114.14,114.14,0,0,0,8.913,270.812a104.587,104.587,0,0,0,6.738,44.575c6.989,17.86,19.064,32.89,35.46,42.073,4.162,30.153,17.031,62.757,41.689,87.129,19.855,19.571,47.279,33.773,83.917,37.017,17.824,40.323,45.726,57.068,72.51,58.085a72.015,72.015,0,0,0,38.2-9.532,74.627,74.627,0,0,0,27.8-27.648c12.931-22.714,13.727-53.061-8.325-83.375.286-7.374,5.465-10.394,12.329-14.392,9.535-5.591,21.8-12.752,30.555-33.045a25.087,25.087,0,0,0,24.288-4.958,38.657,38.657,0,0,0,10.707-15.633A56.373,56.373,0,0,0,388.5,330.74c0-14.968-5.689-30.475-18.814-40.07,3.652-11.9,18.671-67.888-6.065-114.118,8.518-2.469,26.277-10.206,29.885-32.333a3.214,3.214,0,0,0,.71-.352m-6.446-5.3h0c1.2-22.3-16.7-32.5-25.054-36.027,3.48,13.832-7.523,22.067-24.291,21.7-1.27,3.6-4.028,12.982-1.082,20.01a3.381,3.381,0,0,1,.161.549,93.873,93.873,0,0,1,10.039,9.526l.092.092a100.913,100.913,0,0,1,12.717,16.456c6.667-1.607,26.155-8.34,27.419-32.309M331.833,124.1a43.966,43.966,0,0,0-2.03,15,111.015,111.015,0,0,0-39.262-15.9Zm38.141,237.81h0a32.363,32.363,0,0,0,8.9-13.125,50.231,50.231,0,0,0,3.3-18.045c0-12.463-4.449-25.3-14.607-33.653-1.336,3.113-2.841,6.172-4.457,9.157a1.5,1.5,0,0,1-.063.6,24.64,24.64,0,0,0-.319,14.267,23.477,23.477,0,0,0,7.5,12.046,1.607,1.607,0,0,1,.253,2.224,1.584,1.584,0,0,1-2.257.253,26.989,26.989,0,0,1-8.548-13.695,28.454,28.454,0,0,1-1.017-8.071c-2.7,4.311-5.516,8.348-8.229,11.992a43.093,43.093,0,0,0-3.462,13.718,18.529,18.529,0,0,0,1.237,8.641,7.617,7.617,0,0,0,4.577,4.35c2.922.987,7.019.414,12.362-2.221a1.589,1.589,0,0,1,1.4,2.856c-6.133,3.05-11.056,3.593-14.774,2.385a10.813,10.813,0,0,1-6.449-6.068,21.458,21.458,0,0,1-1.494-10.137,38.487,38.487,0,0,1,.927-6.246c-3.429,4.2-6.3,7.388-7.973,9.189L349.958,365.3a3.031,3.031,0,0,1,.984.137c7.5,2.445,14.014.73,19.032-3.527M27.727,227.245h0a107.878,107.878,0,0,0-12.493,43.913,98.268,98.268,0,0,0,6.327,41.912c6.637,17,18.238,31.205,33.966,39.557a3.2,3.2,0,0,1,1.688,2.642c3.81,29.294,16.107,61.168,40.034,84.773,19.19,18.939,45.944,32.6,81.851,35.4a3.168,3.168,0,0,1,2.737,2.033c16.649,38.862,42.735,54.936,67.614,55.89a65.737,65.737,0,0,0,34.858-8.739A67.728,67.728,0,0,0,309.7,499.37c11.914-20.88,12.457-49.065-8.516-77.31a3.3,3.3,0,0,1-.638-1.971c-.158-11.664,6.515-15.6,15.475-20.815,8.9-5.209,20.338-11.882,28.313-30.982l-13.059-22.776c-24.372-.605-38.764,14.011-53.159,28.623-1.652,1.655-3.274,3.307-4.955,4.955a3.173,3.173,0,0,1-4.484,0c-.092-.092-.155-.185-.25-.28-20.367-25.039-41.626-41.945-63.777-50.27-21.924-8.259-44.864-8.1-68.789.856a3.2,3.2,0,0,1-4.1-1.872,3.277,3.277,0,0,1,.191-2.636,57.252,57.252,0,0,1,16.169-19.479,77.338,77.338,0,0,1,8.232-5.531,86.224,86.224,0,0,0-10.134,1.875,79.5,79.5,0,0,0-24.056,10.516,3.16,3.16,0,0,1-3.813-5.018c17.511-16.81,28.248-32.923,33.111-48.394a63.314,63.314,0,0,0-2-44.328,3.333,3.333,0,0,1-.227-.951c-.728-9.025,8.614-14.649,17.86-18.558a54.483,54.483,0,0,0-19.064.382c-8.769,1.971-16.587,7.245-22.717,17.854a3.425,3.425,0,0,1-1.178,1.145c-7.311,4.449-16.175,4.07-23.927.48A33.5,33.5,0,0,1,88.7,206.147a30.409,30.409,0,0,1-6.67-13.217,27.843,27.843,0,0,1,2.129-17.857c-26.978,12.773-45.437,31.456-56.43,52.172M162.866,153.4h0c-2.364-1.288-30.848-15.6-67.319,15.934a3.04,3.04,0,0,1-.462.719c-6.6,7.433-8.259,15.027-6.858,21.572A24.436,24.436,0,0,0,93.5,202.05a27.843,27.843,0,0,0,9.374,7.081c5.722,2.639,12.105,3.083,17.38.194,7.09-11.855,16.145-17.8,26.408-20.117,10.167-2.317,21.387-.951,32.917,1.714a3.166,3.166,0,0,1,.382,6.071c-2.54.924-1.747.635-1.938.7-8.835,3.143-22.5,8.038-22.463,15a69.33,69.33,0,0,1,1.968,48.043c-3.879,12.3-11.154,24.881-22.18,37.783a83.32,83.32,0,0,1,9.344-2.922,94.131,94.131,0,0,1,26.5-2.606,3.165,3.165,0,0,1,1.3,6.1,85.818,85.818,0,0,0-20.466,11.345,52.985,52.985,0,0,0-10.069,10.233c22.463-6.643,44.071-5.913,64.948,1.938,22.4,8.45,43.785,25.069,64.248,49.569l2.415-2.478c15.311-15.528,30.627-31.08,57.468-30.535,2.9-3.029,22.768-24.258,31.73-47.08a3.074,3.074,0,0,1,.185-1.187c.1-.31.966-2.856,2.1-7.105a17.752,17.752,0,0,1-2.612,1.923,31.627,31.627,0,0,1-29.867.191c-4.1-2.445-6.643-5.88-6.673-9.789s2.481-7.4,6.548-9.881a31.749,31.749,0,0,1,29.867-.158,14.39,14.39,0,0,1,5.54,5.456c4.413-22.824,7.618-61.773-11.291-94.618a3.151,3.151,0,0,1-1.112-1.875,94.917,94.917,0,0,0-12.421-16.265c-.066-.069-.1-.131-.164-.194-20.144-22.177-48.836-31.012-77.781-31.966-39.626-1.3-79.5,12.171-98.6,26.626a3.212,3.212,0,0,1-3.623.161M365.844,275.86c0,2.737-1.938,5.242-5.051,7.15a28.519,28.519,0,0,1-26.6.158c-3.181-1.872-5.119-4.386-5.149-7.084,0-2.7,1.938-5.245,5.054-7.15a28.416,28.416,0,0,1,26.6-.131c3.146,1.846,5.113,4.359,5.146,7.057m-104.985-159.6h0c20.3.438,112.684,14.741,93.42-17.419-4.353-7.212-14.076-15.376-31.587-27.705a68.435,68.435,0,0,0-13.823-7.627,56.836,56.836,0,0,0-37.049-2.224c-10.96,3.146-20.081,9.5-25.609,17.35a33.334,33.334,0,0,0-3.655,6.64c-7.785,19.288,14.649,29.455,18.3,30.985m182.388-70.2h0l-.03-.51a20.278,20.278,0,0,0-4.067-11.181C414.77.619,258.96-.4,231.177,19.818,212.6,33.3,228.234,69.67,235.945,84.9c.221-.665.459-1.33.733-2.007a39.278,39.278,0,0,1,4.353-7.913c6.324-9,16.682-16.274,29.077-19.8a62.855,62.855,0,0,1,41.113,2.448,74.92,74.92,0,0,1,15.126,8.289c17.666,12.5,27.8,21,32.869,28.88a3.1,3.1,0,0,1,1.067.1c.125.03,33.725,9.413,33.868,41.248,30.654-22.037,50.983-50.974,49.1-90.089M285.264,311.2c-3.972-2.445-3.685-10.042.569-16.935,4.288-6.929,10.963-10.549,14.9-8.1s3.688,10.042-.6,16.93c-4.258,6.929-10.934,10.555-14.869,8.107" transform="translate(-0.001 -0.002)" fill="#281a15" fill-rule="evenodd"/>
      <path id="Path_153" data-name="Path 153" d="M198.07,167.737c-4.258,6.891-4.541,14.488-.569,16.933,3.936,2.451,10.609-1.175,14.869-8.1,4.291-6.89,4.544-14.488.6-16.933s-10.615,1.175-14.9,8.1M275,165.554c-8.963,22.824-28.826,44.053-31.727,47.08-26.84-.543-42.157,15.009-57.471,30.538l-2.415,2.478c-20.463-24.5-41.847-41.119-64.248-49.569-20.874-7.851-42.485-8.581-64.948-1.941,7.508-10.149,18.724-16.852,30.538-21.575a3.168,3.168,0,0,0-1.3-6.1,94.373,94.373,0,0,0-26.5,2.606,84.092,84.092,0,0,0-9.341,2.922c11.026-12.9,18.3-25.481,22.18-37.78a69.356,69.356,0,0,0-1.968-48.046c-.036-6.959,13.629-11.852,22.463-15,.191-.063-.605.224,1.938-.7a3.173,3.173,0,0,0-.382-6.071c-11.533-2.669-22.75-4.034-32.92-1.717C48.632,65.005,39.577,70.948,32.486,82.8c-5.274,2.889-11.658,2.448-17.38-.194C8.031,79.35,2.145,72.85.461,65.1c-1.4-6.545.256-14.139,6.861-21.572a3.219,3.219,0,0,0,.462-.722C44.255,11.271,72.735,25.585,75.1,26.876a3.217,3.217,0,0,0,3.62-.161C97.819,12.258,137.7-1.21,177.324.087c28.945.957,57.637,9.789,77.781,31.969.066.06.1.125.161.191a94.879,94.879,0,0,1,12.421,16.265,3.17,3.17,0,0,0,1.115,1.875c18.909,32.845,15.7,71.794,11.288,94.621a14.37,14.37,0,0,0-5.54-5.456c-8.328-4.935-21.6-4.854-29.867.155-8.724,5.292-8.784,14.359.128,19.67,9.052,5.4,24.619,4.887,32.476-2.114-1.133,4.252-2,6.8-2.1,7.108a3.125,3.125,0,0,0-.185,1.184m-149.823-36.4c3.942,2.451,10.612-1.172,14.9-8.071s4.544-14.488.605-16.933-10.615,1.175-14.905,8.071c-4.291,6.926-4.541,14.488-.6,16.933M28.551,70.566C38.59,68.914,51.241,61.922,60.8,50.547a1.579,1.579,0,0,0-1.872-2.442A24.508,24.508,0,0,1,44.785,49.88a23.7,23.7,0,0,1-12.77-6.2,1.574,1.574,0,0,0-2.257,2.194c5.93,5.862,15.516,8.739,24.592,6.989-8.357,8.2-18.238,13.253-26.31,14.583-5.14.838-11.339.4-13.534-4.446-1.273-2.8-1.148-6.929.921-12.52a1.58,1.58,0,0,0-2.958-1.112c-2.415,6.449-2.478,11.408-.859,14.935,2.9,6.372,10.266,7.359,16.939,6.258M242.23,200.811a.657.657,0,0,0-1.261,0,2.936,2.936,0,0,0,.5,2.355c.578.7,1.61-.316,1-1-.28-.313-.176-.966-.245-1.351m-3.486,4.01c-.086-.581-.519-1.4-1.216-1.011-.8.456-.477,1.765-.2,2.439,1.3,3.149,2.827,1.649,2.129.8a4.356,4.356,0,0,1-.71-2.227m-66.541-10.3a1.616,1.616,0,0,0-1.714-1.458,1.651,1.651,0,0,0-1.366,1.017c-2.513,5.245-2,11.345.6,16.777,3.566,7.546,10.814,13.575,19.258,14.836,6.13.924,12.9-.665,19.351-6.163a1.581,1.581,0,0,0-1.911-2.511,8.128,8.128,0,0,1-3.84,1.082,33.083,33.083,0,0,1-26.852-13.411,21.055,21.055,0,0,1-3.527-10.17m-53.952-33.361a1.588,1.588,0,0,0-1.428-2.83,8.541,8.541,0,0,1-4.007.385c-3.781-.352-8.674-2.227-13.188-5.307-7.743-5.289-13.468-13.283-12.612-23.2a1.592,1.592,0,0,0-2.925-.984c-5.921,8.548-3.059,20.03,3.557,27.517,7.758,8.769,19.27,11.044,30.6,4.416m-1.336-88.78c3.494,3.241,7.529,4.7,11.282,3.62s6.387-4.478,7.624-9.085c2.472-9.267-1.273-22.159-8.295-28.692-7.46-6.932-16.184-4.607-18.874,5.465-2.5,9.389,1.219,22.144,8.262,28.692m67.205,52.369c6.548,4.508,11.944,4.794,15.665,3.017,8.471-4.025,7.657-17.836-4.165-20.5a3.168,3.168,0,0,0-3.778,2.379,3.217,3.217,0,0,0,2.379,3.816c2.83.635,4.353,2.317,4.735,4.132.894,3.954-3.032,7.582-11.279,1.905a3.169,3.169,0,1,0-3.557,5.245M154.789,65.16,241.348,126.2a3.2,3.2,0,0,0,4.765-1.4c12.013-24.088,12.269-44.328,5.5-59.325-7.657-16.867-23.942-26.73-42.166-28.185-18.3-1.431-38.8,5.722-54.873,23.388a3.163,3.163,0,0,0,.218,4.475M32.549,61.32c.814.271,1.172-1.026.355-1.282-4.651-1.482-4.526.039-4.106.224Zm3.005-2.171a14.745,14.745,0,0,0,3.76.909c.555.128.975-.713.4-.957a14.808,14.808,0,0,0-3.784-1.345c-.751-.089-1,1.058-.379,1.392m4.317-2.385a6.853,6.853,0,0,0,3.45.277c.48-.075.459-.856,0-.951A13.414,13.414,0,0,1,39.3,54.5c-.528-.3-1.777-.862-1.9.2-.128,1.151,1.6,1.756,2.475,2.063" transform="translate(87.765 126.524)" fill="#e5b496" fill-rule="evenodd"/>
      <path id="Path_154" data-name="Path 154" d="M.949,9.191A21.959,21.959,0,0,1,10.407.652c4.2-1.8,5.352.4,7.132,3.238a1.589,1.589,0,0,0-1.464,2.663,27.8,27.8,0,0,0,20.349,7.475c.17.614,4.613-1.279,4.413-.552-.185.674-4.988,3.963-5.462,4.7-7.034,5.477-14.6,8.888-21.017,9.947-5.14.838-11.339.4-13.534-4.446-1.273-2.8-1.148-6.929.921-12.52a1.508,1.508,0,0,0-.8-1.968m17.916,12.8c.814.271,1.172-1.026.355-1.282-4.651-1.482-4.526.039-4.106.224Zm3.005-2.171a14.745,14.745,0,0,0,3.76.909c.555.128.975-.713.4-.957a14.809,14.809,0,0,0-3.784-1.345c-.751-.089-1,1.058-.379,1.392m4.317-2.385a6.852,6.852,0,0,0,3.45.277c.48-.075.459-.856,0-.951a13.413,13.413,0,0,1-4.025-1.589c-.528-.3-1.777-.862-1.9.2-.128,1.151,1.6,1.756,2.475,2.063" transform="translate(101.448 165.85)" fill="#d88b73" fill-rule="evenodd"/>
      <path id="Path_155" data-name="Path 155" d="M189.619,153.475c22.15,8.325,43.406,25.23,63.774,50.267a3.153,3.153,0,0,0,4.738.283c16.324-16.169,31.041-34.256,58.115-33.582L329.3,193.223c-15.457,37-43.955,27.49-43.788,51.8a3.289,3.289,0,0,0,.638,1.968c20.97,28.248,20.43,56.433,8.516,77.313a67.706,67.706,0,0,1-25.391,25.254,65.7,65.7,0,0,1-34.855,8.739c-24.879-.951-50.968-17.028-67.617-55.89a3.169,3.169,0,0,0-2.734-2.033c-35.908-2.8-62.661-16.458-81.851-35.4C58.294,241.364,46,209.494,42.185,180.2a3.2,3.2,0,0,0-1.685-2.642C24.769,169.2,13.171,155,6.531,138-4.149,110.707-1.478,78.786,12.7,52.172,23.69,31.456,42.152,12.773,69.13,0A27.845,27.845,0,0,0,67,17.857c2.108,9.717,9.338,17.9,18.176,21.96,7.749,3.59,16.614,3.969,23.927-.48a3.417,3.417,0,0,0,1.175-1.145C116.412,27.58,124.227,22.308,133,20.335a54.5,54.5,0,0,1,19.067-.379c-9.249,3.906-18.59,9.532-17.86,18.555a3.189,3.189,0,0,0,.224.951,63.305,63.305,0,0,1,2,44.331c-4.86,15.469-15.6,31.581-33.108,48.392a3.163,3.163,0,0,0,3.813,5.021A79.78,79.78,0,0,1,141.32,124.81c-10.409,6.068-18.65,13.8-24.4,25.01a3.19,3.19,0,0,0,3.912,4.511c23.924-8.96,46.865-9.118,68.789-.856M99.631,123.7c-.939-1.008-1.813-2.066-2.657-3.152-.581-.748-1.267-2.156-2.347-2.066a.53.53,0,0,0-.492.373c-.34,1.073.981,2.156,1.634,2.9.9,1.032,1.831,2.042,2.821,2.991a.737.737,0,0,0,1.041-1.044M93.1,124.885a7.753,7.753,0,0,0-2.382-2.484.388.388,0,0,0-.581.328,5.426,5.426,0,0,0,1.914,3.2c.93.987,1.92,1.9,2.913,2.827a.59.59,0,0,0,.832-.835c-.921-1-1.846-1.989-2.7-3.035m62.277,33.343c.024-1-.346-1.971-.316-2.988.033-1.318-2.126-1.3-2.033,0a4.685,4.685,0,0,0,1.467,3.491c.373.286.874-.1.883-.5m-4.624,1.372a6.291,6.291,0,0,0-2.7-3.48c-.763-.516-1.458.7-.719,1.228,1.082.757,1.664,2.022,2.74,2.773.358.253.763-.158.68-.522m-28.74-76.2c.82.844,2.117-.456,1.285-1.291-1.4-1.4-2.185-3.181-2.988-3.551-1.139-.534-1.485,1.55,1.7,4.842m2.022-10.621c.62.641,1.622-.358.978-.975-.385-.373-1.279-1.53-1.893-.918s.546,1.512.915,1.893m3.933-7.463a26.315,26.315,0,0,1,2.549,2.478c.388.423,1.136-.14.8-.617-1.017-1.425-3.33-4.7-5.3-4.595a.372.372,0,0,0-.316.555c.432.981,1.461,1.512,2.263,2.18m5.072-4.153c.775-5.421-2.314-10.871-5.3-15.153-.155-.218-.581-.086-.465.2,1.041,2.567,2.5,4.961,3.447,7.561a47.292,47.292,0,0,1,1.732,7.394c.057.289.549.3.59,0M284.187,257.945c-.462-.176-.787.593-.337.8a26.168,26.168,0,0,1,2.862,1.673,5.782,5.782,0,0,0,2.588,1.327.387.387,0,0,0,.331-.581c-.68-1.169-4.106-2.719-5.444-3.214m-3.655-8.62a11.25,11.25,0,0,0-6.95-1.151c-.128.021-.083.2.027.212,6.789.656,10.773,6,14.854,6.947a.346.346,0,0,0,.334-.572,30.592,30.592,0,0,0-8.265-5.435M103.5,115.448c-.6-.832-.978-1.983-1.843-2.567-.954-.653-2.594,1.795,3.563,6.735.871.7,2.12-.522,1.24-1.24a16.193,16.193,0,0,1-2.961-2.928m202.046,90.259c-.716.429-1.437,1.6-.9,2.409.653.972,2.12.769,2.9.113.945-.79-.408-2.153-1.351-1.366-.012-.209.045-1.58-.653-1.157m4.508-6.2,2.394,2.09a.559.559,0,0,0,.79-.79c-.793-.8-1.777-1.831-3.008-1.717a.248.248,0,0,0-.176.417m2.672-8.834a.458.458,0,0,0-.319.564c.343,1.008,1.306,1.449,2.15,2,.936.608,1.852,1.246,2.77,1.89.695.495,1.577-.653.909-1.181-.927-.745-1.855-1.485-2.815-2.189a3.691,3.691,0,0,0-2.7-1.085m4.365-6.774a.515.515,0,0,0-.575.748c.957,1.738,2.791,3.086,4.07,4.616q2.071,2.455,4.192,4.866c.489.543,1.252-.247.793-.793-1.512-1.816-2.728-3.849-4.207-5.695-1.142-1.434-2.448-3.2-4.273-3.742M30.944,41.933a.33.33,0,0,0,.444-.447,6.4,6.4,0,0,1-.259-2.827.77.77,0,0,0-1.539,0c.033,1.181.185,2.633,1.354,3.274m8.062-4.821c.331.373.829-.027.76-.441-.405-2.349-1.539-4.344-.841-6.777a.746.746,0,0,0-1.437-.4,8.353,8.353,0,0,0,1.518,7.618m6.566-2.8c.072.474.9.48.96,0,.662-4.872-.343-9.595,2.135-14.115a.43.43,0,0,0-.674-.519c-3.724,3.313-3.089,10.218-2.421,14.634m13-11.947A25.919,25.919,0,0,1,58.93,15c.361-1.4,2.212-4.118.951-4.085-5.963.182-3.423,19.643-1.219,22.788a.55.55,0,0,0,1.014-.277c.385-3.569-.963-7.469-1.106-11.065m-40.112,128.4c0-1.834-.856-1.834-.856,0a.428.428,0,0,0,.856,0M22.08,154.4c-.078-.552-.644-1.6-.862-1.136s.182.769.224,1.225a.324.324,0,1,0,.638-.089m16.876,10.3c-.247-1.6-.271-3.062-1.124-4.455a.435.435,0,0,0-.787.1,10.752,10.752,0,0,0,.236,5.406c.3,1.413.575,3.038,1.589,4.138.358.382,1.175.113,1.109-.462-.2-1.592-.778-3.134-1.023-4.729m-9.708-5.632a4.5,4.5,0,0,0-.757-2.338c-.725-.76-2.439.993.471,6.354.474.877,1.673.107,1.3-.76a18.14,18.14,0,0,1-1.014-3.256m94.627,124.971c-.4-.394-.966-1.145-1.6-1.076a.448.448,0,0,0-.426.432c-.072.623.68,1.19,1.073,1.6.605.623,1.574-.346.951-.954m6.372,1.849c-.638-.629-1.351-1.556-2.251-1.783a.433.433,0,0,0-.528.525,5.892,5.892,0,0,0,1.786,2.251.7.7,0,0,0,.993-.993m12.192,3.247c-1.7-1.2-1.5-2.379-2.364-2.776-1.106-.51-1.291,1.983,1.652,4,.757.525,1.455-.7.713-1.222m9.532,2.534c-1.029-1.512-1.971-3.354-3.688-4.168a.442.442,0,0,0-.6.6,20.542,20.542,0,0,0,3.295,4.332c.456.558,1.389-.173.993-.763m6.729-1.094c-.9-1.249-1.819-2.9-3.235-3.593a.613.613,0,0,0-.889.686c.286,1.577,1.655,2.836,2.624,4.07a54.473,54.473,0,0,1,3.393,4.678c.444.71,1.4.092,1.091-.638a26.364,26.364,0,0,0-2.985-5.2M219.918,349.8c-.647-.65-1.032-1.571-1.783-2.1-.555-.394-1.345.808.805,3.083.611.647,1.607-.349.978-.981m5.155.447c-.417-.4-.972-1.2-1.625-1.038a.355.355,0,0,0-.239.239c-.17.656.638,1.211,1.035,1.628.525.552,1.377-.3.829-.829m9.21,2.275c-.373-.707-1.78-2.737-2.74-2.23-.99.522.838,1.905,1.425,3,.465.865,1.771.1,1.315-.766m40.446-14.944c-.2,0-.394.006-.59.006a.747.747,0,0,0,0,1.494l.59.009a.755.755,0,0,0,0-1.509m2.594-2.591c-.331-.346-.453-.736-.978-.808a.432.432,0,0,0-.3.736c.227.224.367.531.572.778.409.492,1.157-.236.707-.707m3.921-3.921a11.222,11.222,0,0,0-1.562-1.124c-.713-.468-1.464.572-.889,1.157.409.417.945.656,1.375,1.05.725.656,1.795-.4,1.076-1.082m10.746-23a.818.818,0,1,0-1.613.221c.137.719.942,1.449,1.691,1.011.695-.409-.066-1.07-.078-1.231m1.714-8.888a.946.946,0,0,0-1.339,1.336,4.573,4.573,0,0,0,1.216,1.058.871.871,0,0,0,1.184-1.181,4.538,4.538,0,0,0-1.061-1.214m2.353-13.531c-.021-1-1.6-1-1.556,0,.048,1.112.826,2.4,2.1,1.834a.393.393,0,0,0,0-.68,1.287,1.287,0,0,1-.54-1.154m-3.211-9.013c.483.924,1.512,2.1,2.651,1.539a.434.434,0,0,0,0-.742,4.139,4.139,0,0,1-1.518-1.458c-.4-.742-1.527-.086-1.133.662m-4.085-10.009a.674.674,0,0,0-1.163.68c.388.915,1.995,2.358,3.2,2.3.745-.039.212-1.049-.006-1.27a12.18,12.18,0,0,1-2.028-1.705" transform="translate(15.029 175.071)" fill="#55251e" fill-rule="evenodd"/>
      <path id="Path_156" data-name="Path 156" d="M16,55.482c-5.045-1.691-6.121-7.791-5.814-12.994a43.026,43.026,0,0,1,3.465-13.715c2.71-3.644,5.531-7.681,8.226-11.995-.155,8.456,3.691,17.037,9.568,21.769a1.593,1.593,0,0,0,2-2.478C26.506,30.538,23.087,19.3,26.265,9.756a1.448,1.448,0,0,0,.063-.6C27.947,6.175,29.452,3.113,30.788,0,40.946,8.357,45.395,21.193,45.395,33.656c0,11.166-3.819,24.127-12.2,31.17-5.018,4.255-11.53,5.972-19.032,3.527a3.017,3.017,0,0,0-.981-.14L0,45.24c1.667-1.8,4.541-4.991,7.97-9.189A38.486,38.486,0,0,0,7.043,42.3C6.625,49.018,8.435,56.323,14.989,58.5c3.718,1.208,8.641.665,14.771-2.385a1.59,1.59,0,0,0-1.4-2.856C23.024,55.9,18.927,56.469,16,55.482M16.87,43.32a.38.38,0,0,0,.268-.641c-1.366-1.285-2.928-2.057-3.7-3.873-.349-.82-1.786-.215-1.443.608.844,2.013,2.555,3.843,4.872,3.906m-.9-9.9c.8,2.051,2.722,2.144,2.49,1.166-.265-1.079-1.726-1.61-1.339-3.808.146-.808-1.026-1.163-1.249-.343a4.672,4.672,0,0,0,.1,2.985m2.567-3.053c.376.993,1.273,2.341,2.442,2.311a.583.583,0,0,0,.558-.731c-.247-1.634-1.9-1.214-1.8-5.45a.622.622,0,0,0-1.216-.167,6.26,6.26,0,0,0,.021,4.037" transform="translate(336.781 297.084)" fill="#e5b496" fill-rule="evenodd"/>
      <path id="Path_157" data-name="Path 157" d="M25.389,24.211C9.915,27.52-1.63,12.138.189,0,1.954,8.077,7.246,14.4,13.824,18.874a36.379,36.379,0,0,0,11.566,5.337" transform="translate(171.793 263.658)" fill="#55251e" fill-rule="evenodd"/>
      <path id="Path_158" data-name="Path 158" d="M28.981,19.446c-10.993,4.5-22.4-1.9-27.04-11.756A19.232,19.232,0,0,1,0,0,26.838,26.838,0,0,0,2.448,4.6C8.1,13.128,19.291,18.781,28.981,19.446" transform="translate(258.41 328.356)" fill="#55251e" fill-rule="evenodd"/>
      <path id="Path_159" data-name="Path 159" d="M80.2,73.78,0,17.252A64,64,0,0,1,29.995,0C28.227,17.416,37.064,30.639,51,37.682c11.169,5.641,26.423,7.3,36.9,1.485.552,10.006-1.711,21.632-7.7,34.613" transform="translate(249.513 171.609)" fill="#281a15" fill-rule="evenodd"/>
      <path id="Path_160" data-name="Path 160" d="M30.138,37.6A41.824,41.824,0,0,1,17.713,33.63C5.477,27.464-1.876,15.9.417.412,12-1,23.617,1.208,33.188,7.448a40.27,40.27,0,0,1,17.69,26.331c-4.693,3.828-12.532,5.087-20.74,3.822" transform="translate(285.626 170.005)" fill="#c6302a" fill-rule="evenodd"/>
      <path id="Path_161" data-name="Path 161" d="M24.321,68.338A100.544,100.544,0,0,0,11.512,51.787,94.093,94.093,0,0,0,1.476,42.264a3.757,3.757,0,0,0-.164-.552c-2.946-7.025-.188-16.4,1.082-20.01,16.769.364,27.771-7.868,24.291-21.7,8.357,3.527,26.25,13.724,25.054,36.027C50.475,60,30.991,66.731,24.321,68.338m.79-17.445a.432.432,0,0,0,0-.459c-.51-.736-2-.555-2.654-.072-.918.683.143,2,.948,1.228.48-.471,1.27-.069,1.705-.7m3.763,3.375c.388-.632-.892-1.556-2.958-.06a7.39,7.39,0,0,0-1.855,2.051c-.54.838.751,1.544,1.315.766,1.5-2.066,2.865-1.735,3.5-2.758m3,4.356a40.36,40.36,0,0,1-5.489,2.123.785.785,0,0,0,0,1.5c1.944.423,4.288-.817,6-1.592,1.661-.748,5.072-1.887,5.638-3.852a.63.63,0,0,0-.6-.787c-1.768-.128-4.025,1.84-5.555,2.606" transform="translate(336.03 102.535)" fill="#ecc228" fill-rule="evenodd"/>
      <path id="Path_162" data-name="Path 162" d="M113.354,39.666c19.264,32.16-73.118,17.857-93.42,17.419-3.655-1.53-26.089-11.7-18.3-30.985C6.257,14.629,17.88,5.842,30.894,2.109A56.836,56.836,0,0,1,67.944,4.334a68.435,68.435,0,0,1,13.823,7.627C99.278,24.29,109,32.453,113.354,39.666M35.2,51.843c-.343-.692-.537-1.47-.93-2.132a.447.447,0,0,0-.757,0c-.474.948.128,1.935.558,2.8.379.76,1.509.092,1.13-.665m-3.87-.471c-1-.981-1.4-2.01-1.992-1.822-1.24.406.76,2.3,1.127,2.686.552.569,1.434-.316.865-.865M23.19,49.594c-.113-.236-.617-2.537-1.524-1.974-.951.593-.471,2.093.021,2.853a8.776,8.776,0,0,0,2.5,2.308c.653.447,1.458-.587.847-1.1a6.879,6.879,0,0,1-1.849-2.087m-8.745-2.43c-.853-1.506-1.261-3.977-2.54-5.143-.883-.808-3.005,1.166,1.64,7.576,1.33,1.843,3.465,3.793,5.9,3.438.465-.075.432-.7.116-.915a14.859,14.859,0,0,1-5.119-4.955" transform="translate(240.924 59.172)" fill="#ecc228" fill-rule="evenodd"/>
      <path id="Path_163" data-name="Path 163" d="M0,0,41.292.895a44.033,44.033,0,0,0-2.033,15A110.978,110.978,0,0,0,0,0" transform="translate(290.54 123.206)" fill="#d88b73" fill-rule="evenodd"/>
      <path id="Path_164" data-name="Path 164" d="M136.783,88.368c-5.069-7.88-15.2-16.378-32.869-28.88A74.936,74.936,0,0,0,88.785,51.2a62.855,62.855,0,0,0-41.113-2.448C32.23,53.161,18.288,64.08,13.509,78.469,5.8,63.239-9.837,26.869,8.744,13.387,36.527-6.829,192.334-5.812,216.714,27.94a20.247,20.247,0,0,1,4.1,11.691c1.887,39.116-18.441,68.052-49.1,90.089-.14-31.835-33.743-41.218-33.865-41.248a3.108,3.108,0,0,0-1.067-.1m67.453-51.579a.582.582,0,0,0,.14,1.056c1.548.462,3.167.626,4.7,1.178,1.512.549,3.005,1.145,4.463,1.813.745.343,1.4-.707.653-1.118-2.9-1.625-6.458-4.538-9.959-2.928m9.965-2.451a.588.588,0,0,0,.832-.829c-10.164-10.835-25.087-15.054-39.646-15.439a.537.537,0,0,0-.143,1.05c14.04,3.336,27.839,4.982,38.958,15.218M6.389,38.361c-.083-.176.027-.28.149-.408a3.516,3.516,0,0,0,.7-.775.517.517,0,0,0-.185-.71,1.839,1.839,0,0,0-2.1,2.734.833.833,0,0,0,1.437-.841M7.9,47.377a3.393,3.393,0,0,1,.784-2.191c.54-.59,1.291-.969,1.786-1.6a.458.458,0,0,0-.319-.775C7.871,42.574,6.46,45.5,6.43,47.377a.737.737,0,0,0,1.473,0m6.27,18.3c-.564-6.172,6.148-9.162,10.188-12.314.385-.3.054-.939-.382-.927-5.993.149-12.293,7.523-11.1,13.42.149.722,1.36.564,1.291-.179M10.479,55.418a7.941,7.941,0,0,1,1.282-2.913c.477-.653,1.285-1.2,1.5-2a.518.518,0,0,0-.492-.647c-1.864.042-3.372,3.658-3.691,5.176-.194.909,1.193,1.3,1.4.388m176.472,48.976c.352.2-.089-.167-.152-.194-1.079-.474-1.479,1.685-.134,1.911a.832.832,0,0,0,.441-1.6Zm1.342-4.89a.676.676,0,0,0-.76.987,4.876,4.876,0,0,0,1.977,1.324c.844.435,1.592-.856.742-1.27-.656-.322-1.285-.781-1.959-1.041m4.32-5.164c-.775-.8-3.14-2.6-3.837-1.324-.346.635.394,1.085.927,1.217a4.321,4.321,0,0,1,1.929,1.085.693.693,0,0,0,.981-.978m19.16-26.184a1.641,1.641,0,0,0-1.819-.4.638.638,0,0,0,0,1.088c.259.173.549.134.781.349.695.659,1.762-.444,1.038-1.038m.82-8.495c-.751-.259-3.9-1.4-4.389-.364-.447.936.486,1.219,1.237,1.288a13.646,13.646,0,0,1,2.713.659c1.017.331,1.434-1.243.438-1.583m-4.326-7.066a7.956,7.956,0,0,1,2.206.71c.924.456,1.741-.924.811-1.392-4.094-2.066-3.971.51-3.017.683m-1.029-6.986c1.184.856,2.5-.313,5.075,1.389.945.62,1.726-.835.868-1.482-1.4-1.067-4.845-2.579-6.142-.662a.559.559,0,0,0,.2.754" transform="translate(222.435 6.432)" fill="#65ad79" fill-rule="evenodd"/>
      <path id="Path_165" data-name="Path 165" d="M14.338,3.14a26.2,26.2,0,0,1,6.831,11.885,26.1,26.1,0,0,1,.54,13.694c-2,7.588-7.907,9.3-13.662,3.936C1.848,26.882-1.524,15.26.673,7.075,2.721-.551,8.553-2.248,14.338,3.14" transform="translate(198.796 163.926)" fill="#d88b73" fill-rule="evenodd"/>
      <path id="Path_166" data-name="Path 166" d="M5.041,3.359c7.3-4.437,19.243-4.475,26.6-.131,3.146,1.846,5.113,4.359,5.146,7.057,0,2.737-1.938,5.242-5.051,7.15-7.251,4.44-19.282,4.49-26.6.155-6.876-4.07-6.789-10.164-.1-14.231" transform="translate(329.06 265.576)" fill="#d88b73" fill-rule="evenodd"/>
      <path id="Path_167" data-name="Path 167" d="M21.355,21.81a19.836,19.836,0,0,1-1.279,15.021,1.481,1.481,0,0,0-1.852-.349c-5.34,2.636-9.437,3.208-12.362,2.221C.817,37.014-.259,30.913.048,25.71A43.026,43.026,0,0,1,3.513,11.995C6.223,8.351,9.044,4.314,11.739,0c-.155,8.456,3.691,17.037,9.568,21.769l.048.042M6.73,26.542A.38.38,0,0,0,7,25.9c-1.366-1.285-2.928-2.057-3.7-3.873-.349-.82-1.786-.215-1.443.608C2.7,24.649,4.413,26.48,6.73,26.542m-.9-9.9c.8,2.051,2.722,2.144,2.49,1.166C8.054,16.733,6.593,16.2,6.98,14c.146-.808-1.026-1.163-1.249-.343a4.672,4.672,0,0,0,.1,2.985M8.4,13.593c.376.993,1.273,2.341,2.442,2.311a.583.583,0,0,0,.558-.731c-.247-1.634-1.9-1.213-1.8-5.45a.622.622,0,0,0-1.217-.167A6.26,6.26,0,0,0,8.4,13.593" transform="translate(346.922 313.862)" fill="#d88b73" fill-rule="evenodd"/>
      <path id="Path_168" data-name="Path 168" d="M34.25,54.194s27.323-3.366,62.635,18.915S136.4,108.42,136.4,108.42a111.967,111.967,0,0,1,14.649-10.615,26.613,26.613,0,0,0,9.007-4.887,60.635,60.635,0,0,1,15.439-5.1q2.728-.461,5.11-.835c-18,4.261-30.192,16.634-42.381,29l-2.415,2.478c-20.463-24.5-41.85-41.119-64.248-49.569C50.684,61.042,29.077,60.312,6.61,66.952,14.121,56.8,25.335,50.1,37.148,45.377a3.168,3.168,0,0,0-1.3-6.1,94.384,94.384,0,0,0-26.5,2.606A83.483,83.483,0,0,0,0,44.808C11.026,31.9,18.3,19.324,22.18,7.025Q23.289,3.5,24.032,0c1.228,13.006.558,20.713-4.073,27.294L11.971,38.639s22.279-3.36,34.888-1.676l12.612,1.676Z" transform="translate(135.344 253.711)" fill="#d88b73" fill-rule="evenodd"/>
      <path id="Path_169" data-name="Path 169" d="M3,38.655a3.965,3.965,0,0,0,1.923,7.693c14.04-3.512,26.966-12.657,36.689-21.315C34.134,41.992,31.9,48.712,31.3,66.513c0,2.191,1.443,1.953,3.638,1.953s4.642,3.6,4.642,1.41c0-26.575,7.523-40.088,19.935-63.869a3.963,3.963,0,0,0-6.545-4.448C52.91,1.648,29.915,31.929,3,38.655" transform="translate(337.299 36.905)" fill="#261f1c" fill-rule="evenodd"/>
      <path id="Path_170" data-name="Path 170" d="M0,19.849C12.123,15.653,23.191,7.636,31.763,0c-6.732,15.269-9.216,22.24-10.081,36.468a50.787,50.787,0,0,0-8.548-3.5,3.1,3.1,0,0,0-1.067-.1C9.479,28.835,5.567,24.649,0,19.849" transform="translate(347.151 61.937)" fill="#ecc228" fill-rule="evenodd"/>
      <path id="Path_171" data-name="Path 171" d="M179.621,195.865C110.343,157.527,47.8,166.943,47.8,166.943L59.23,148.785,35.69,160.894a265.777,265.777,0,0,0,18.739-35.94.746.746,0,0,0,.617-1.249l-.069-.072c.93-2.257,1.828-4.553,2.666-6.867a20.826,20.826,0,0,0,2.988,2.85c.871.7,2.12-.522,1.24-1.24a16.192,16.192,0,0,1-2.961-2.928,9.143,9.143,0,0,1-.5-.823c3.4-9.774,5.725-19.744,5.528-28.391-.352-15.6-19.759-45.765-49.96-64.116A24.722,24.722,0,0,1,14.344,15c.361-1.4,2.212-4.118.951-4.085-2.889.092-3.781,4.7-3.682,9.8A113.29,113.29,0,0,0,0,14.875,135.687,135.687,0,0,1,24.545,0a27.845,27.845,0,0,0-2.129,17.857c2.108,9.717,9.338,17.9,18.176,21.96,7.749,3.59,16.614,3.969,23.927-.48a3.417,3.417,0,0,0,1.175-1.145C71.827,27.58,79.642,22.308,88.411,20.335a54.505,54.505,0,0,1,19.067-.379c-9.249,3.906-18.59,9.532-17.86,18.555a3.189,3.189,0,0,0,.224.951,63.305,63.305,0,0,1,2,44.331c-4.86,15.469-15.6,31.581-33.108,48.391a3.163,3.163,0,0,0,3.813,5.021A79.781,79.781,0,0,1,96.735,124.81c-10.409,6.068-18.65,13.8-24.4,25.01a3.19,3.19,0,0,0,3.912,4.511c23.924-8.96,46.865-9.118,68.789-.856,22.15,8.325,43.406,25.23,63.774,50.267a3.153,3.153,0,0,0,4.738.283c16.324-16.169,31.041-34.256,58.115-33.582l13.059,22.779c-15.457,37-43.955,27.49-43.788,51.8a3.288,3.288,0,0,0,.638,1.968c20.97,28.248,20.43,56.433,8.516,77.313a67.195,67.195,0,0,1-18.7,20.916c10.149-45.013,4.3-118.328-51.761-149.352M109.9,158.732c.373.286.874-.1.883-.5.024-1-.346-1.971-.316-2.988.033-1.318-2.126-1.3-2.033,0a4.685,4.685,0,0,0,1.467,3.491m-3.742.868a6.291,6.291,0,0,0-2.7-3.48c-.763-.516-1.458.7-.719,1.228,1.082.757,1.664,2.022,2.74,2.773.358.253.763-.158.68-.522M77.423,83.4c.82.844,2.117-.456,1.285-1.291-1.4-1.4-2.186-3.181-2.988-3.551-1.139-.534-1.485,1.55,1.7,4.842m2.022-10.621c.62.641,1.622-.358.978-.975-.385-.373-1.279-1.53-1.893-.918s.546,1.512.915,1.893m3.933-7.463a26.316,26.316,0,0,1,2.549,2.478c.388.423,1.136-.14.8-.617-1.017-1.425-3.33-4.7-5.3-4.595a.372.372,0,0,0-.316.555c.432.981,1.461,1.512,2.263,2.18m5.072-4.153c.775-5.421-2.314-10.871-5.3-15.153-.155-.218-.581-.086-.465.2,1.041,2.567,2.5,4.961,3.447,7.561a47.291,47.291,0,0,1,1.732,7.394c.057.289.549.3.59,0M239.6,257.945c-.462-.176-.787.593-.337.8a26.167,26.167,0,0,1,2.862,1.673,5.782,5.782,0,0,0,2.588,1.327.387.387,0,0,0,.331-.581c-.68-1.169-4.106-2.719-5.444-3.214m-3.655-8.62a11.25,11.25,0,0,0-6.95-1.151c-.128.021-.083.2.027.212,6.789.656,10.773,6,14.854,6.947a.346.346,0,0,0,.334-.572,30.594,30.594,0,0,0-8.265-5.435m25.01-43.618c-.716.429-1.437,1.6-.9,2.409.653.972,2.12.769,2.9.113.945-.79-.408-2.153-1.351-1.366-.012-.209.045-1.58-.653-1.157m4.508-6.2,2.394,2.09a.559.559,0,0,0,.79-.79c-.793-.8-1.777-1.831-3.008-1.717a.248.248,0,0,0-.176.417m2.672-8.835a.458.458,0,0,0-.319.564c.343,1.008,1.306,1.449,2.15,2,.936.608,1.852,1.246,2.77,1.89.695.495,1.577-.653.909-1.181-.927-.745-1.855-1.485-2.815-2.189a3.691,3.691,0,0,0-2.7-1.085m4.365-6.774a.515.515,0,0,0-.575.748c.957,1.738,2.791,3.086,4.07,4.616q2.071,2.455,4.192,4.866c.489.543,1.252-.247.793-.793-1.512-1.816-2.728-3.849-4.207-5.695-1.142-1.434-2.448-3.2-4.273-3.742M236.659,331.063a11.223,11.223,0,0,0-1.562-1.124c-.713-.468-1.464.572-.889,1.157.408.417.945.656,1.375,1.05.725.656,1.795-.4,1.076-1.082m10.746-23a.818.818,0,1,0-1.613.221c.137.719.942,1.449,1.691,1.011.695-.408-.066-1.07-.078-1.231m1.714-8.888a.946.946,0,0,0-1.339,1.336A4.572,4.572,0,0,0,249,301.569a.871.871,0,0,0,1.184-1.181,4.539,4.539,0,0,0-1.061-1.214m2.353-13.531c-.021-1-1.6-1-1.556,0,.048,1.112.826,2.4,2.1,1.834a.393.393,0,0,0,0-.68,1.287,1.287,0,0,1-.54-1.154m-3.211-9.013c.483.924,1.512,2.1,2.651,1.538a.434.434,0,0,0,0-.742,4.139,4.139,0,0,1-1.518-1.458c-.4-.742-1.527-.086-1.133.662m-4.085-10.009a.674.674,0,0,0-1.163.68c.388.915,1.995,2.358,3.2,2.3.745-.039.212-1.049-.006-1.27a12.176,12.176,0,0,1-2.028-1.705" transform="translate(59.614 175.071)" fill="#431615" fill-rule="evenodd"/>
      <path id="Path_172" data-name="Path 172" d="M72.42,10.546c67.972,23.063,117.326,112.94,120.388,167.829-.182-.006-.361-.009-.543-.018-24.879-.951-50.965-17.025-67.614-55.89a3.166,3.166,0,0,0-2.737-2.03q-2.755-.215-5.444-.516c-12.544-33.245-38.021-63.52-68.9-82.793A144.667,144.667,0,0,0,3.482,18.569,162.68,162.68,0,0,1,.03.262C.021.173.012.089,0,.006c23.465-.149,48.708,2.5,72.42,10.54m44.125,100.1c-.9-1.249-1.819-2.9-3.235-3.6a.612.612,0,0,0-.889.686c.286,1.577,1.655,2.836,2.624,4.07a54.511,54.511,0,0,1,3.393,4.681.631.631,0,0,0,1.088-.638,26.121,26.121,0,0,0-2.982-5.2m61.215,59.212c-.647-.65-1.032-1.568-1.78-2.1-.558-.4-1.348.805.8,3.08.614.65,1.607-.346.978-.981m5.155.447c-.417-.4-.972-1.2-1.625-1.035a.349.349,0,0,0-.239.239c-.17.653.638,1.208,1.038,1.628.522.549,1.375-.307.826-.832m9.21,2.275c-.37-.7-1.78-2.737-2.74-2.23-.99.525.841,1.908,1.428,3,.465.865,1.771.1,1.312-.769" transform="translate(57.184 355.008)" fill="#724534" fill-rule="evenodd"/>
      <path id="Path_173" data-name="Path 173" d="M80.2,73.78,0,17.255A64.017,64.017,0,0,1,29.992,0C28.227,17.422,37.064,30.645,51,37.688c11.166,5.641,26.423,7.29,36.9,1.482.552,10.009-1.714,21.632-7.7,34.61" transform="translate(254.558 164.88)" fill="#281a15" fill-rule="evenodd"/>
      <path id="Path_174" data-name="Path 174" d="M83.482,54.274q-1.4,3.891-3.28,7.973L0,5.719A71.6,71.6,0,0,1,6.473,0Z" transform="translate(249.513 183.142)" fill="#fff" fill-rule="evenodd"/>
    </g>
  </g>
</svg>
