<svg xmlns="http://www.w3.org/2000/svg" xmlns:xlink="http://www.w3.org/1999/xlink" width="46.922" height="37.714" viewBox="0 0 46.922 37.714">
  <defs>
    <clipPath id="clip-path">
      <rect id="Rectangle_19" data-name="Rectangle 19" width="46.922" height="37.714" fill="none"/>
    </clipPath>
  </defs>
  <g id="Group_18" data-name="Group 18" clip-path="url(#clip-path)">
    <path id="Path_177" data-name="Path 177" d="M43.843,27.247c-1.3,15.491-20.615,3.618-25.941.038l-.016,0a10.146,10.146,0,0,0-4.824,9.138,1.285,1.285,0,1,1-2.57,0,12.749,12.749,0,0,1,5.253-10.805C10.627,20.916-4.52,5.573,9.9.707,23.292-3.8,21.55,14.376,20.151,22.535c7.555-3.306,24.876-9.409,23.692,4.712M15.066,33.769a.432.432,0,0,0,.364-.118.413.413,0,1,0-.676-.357.371.371,0,0,1,0,.1.351.351,0,0,0,.313.377m.121-1.246a.177.177,0,0,0,.284.1c.427-.318.529-1.016.743-1.478a3.074,3.074,0,0,1,1.048-1.458.277.277,0,0,0-.234-.5,2.654,2.654,0,0,0-1.274,1.423c-.251.513-.748,1.323-.568,1.913m19.276-.792a.126.126,0,0,0,.193-.007c.227-.317-.047-.777-.131-1.106-.07-.274-.5-.2-.435.078.05.206.122.406.177.612a.8.8,0,0,0,.2.423m-1.836-.467c.41-.073.07-.837,0-1.055-.089-.284-.546-.213-.463.082a6.616,6.616,0,0,1,.171.72c.023.129.144.278.289.252m-2.189-.87a.117.117,0,0,0,.16-.027c.22-.3.046-.757-.057-1.078-.069-.212-.42-.1-.37.118.073.33,0,.742.267.987m-1.708-.507a.138.138,0,0,0,.19.018c.2-.144.18-.417.189-.64a7.45,7.45,0,0,0,0-.754c-.015-.239-.428-.224-.425.017a6.781,6.781,0,0,1-.034.785c-.021.2-.067.414.084.575m-1.459-.757a.1.1,0,0,0,.16.015.894.894,0,0,0,.082-.712c-.029-.206-.34-.149-.314.056s-.041.456.072.642M26.2,28.452a.082.082,0,0,0,.141.013.661.661,0,0,0,.086-.263c.032-.166-.263-.194-.263-.024a.63.63,0,0,0,.036.274M24.8,27.8a.21.21,0,0,0,.418.039l.019-.207a.21.21,0,0,0-.418-.04Zm-.482-.255a.186.186,0,0,0,.143-.119.845.845,0,0,0,.019-.348c-.007-.1-.143-.091-.178-.017a.967.967,0,0,1-.172.188.189.189,0,0,0-.018.189l.016.039a.133.133,0,0,0,.139.074l.051-.006M9.226,11.7a.355.355,0,0,0,.5-.137.29.29,0,1,0-.532-.12s-.018.123-.021.148a.118.118,0,0,0,.051.109m-.878-1.6c.3.044.45-.312.554-.54.12-.263-.3-.425-.42-.16-.078.18-.262.354-.255.552a.138.138,0,0,0,.12.148M8.28,7.875c-.228.118-.589.193-.631.484a.119.119,0,0,0,.106.127c.273.023.484-.278.643-.468.062-.073-.036-.186-.118-.143M8.266,6.444c.274-.341.657-.563.925-.9a.151.151,0,0,0-.148-.235,1.991,1.991,0,0,0-1.092.777c-.24.283-.639.674-.587,1.075a.115.115,0,0,0,.136.095c.369-.1.541-.532.765-.811M39.615,16.75a.936.936,0,1,0-.845-1.019.943.943,0,0,0,.845,1.019m7.155,5.992c.011-.012.027-.021.033-.041a4.487,4.487,0,0,0-.979-3.863,7.231,7.231,0,0,0-1.635-1.523c-.649-.461-1.027-1.106-1.626-1.588a.656.656,0,0,0-.809.028l-.127.112a.439.439,0,0,0-.114.509c.176.471.492.5.913.7A11.443,11.443,0,0,1,44.4,18.353a5.227,5.227,0,0,1,2.146,4.288.122.122,0,0,0,.025.082.783.783,0,0,0-.069.158c-.082.251.342.29.308.027a.792.792,0,0,0-.039-.166M4.307,13.428a1.016,1.016,0,1,0-1.1.916,1.024,1.024,0,0,0,1.1-.916M2.314,10.951c.213-1.431-.78-2.77-.849-4.231-.063-1.334.655-2.739.355-4.006a.235.235,0,0,0-.376-.138c-2.175,1.5-1.68,6.983.067,8.622a.46.46,0,0,0,.8-.247m8.4-7.792h0c-9.9,3.331.571,14.7,5.728,19.6a10.777,10.777,0,0,0-.149-1.129c-.275-1.409-.672-2.821-1.084-4.2a60.314,60.314,0,0,0-2.406-7.4.215.215,0,0,1,.359-.226c1.895,1.814,2.58,4.3,3.3,6.735.33,1.119.959,2.495,1.424,3.9C19.047,12.857,19.76.108,10.718,3.16m12.168,21h0c.945.056,1.875.189,2.67.273a49.147,49.147,0,0,1,8.033,1.905.08.08,0,0,1-.015.153,51.03,51.03,0,0,1-7.362-.314c-1.356-.109-2.694-.241-4.057-.251-.566,0-1.044.053-1.505.087,5.876,3.784,19.746,11.549,20.632,1.013.792-9.451-11.289-5.8-18.4-2.866" transform="translate(0 0)" fill="#281a15" fill-rule="evenodd"/>
    <path id="Path_178" data-name="Path 178" d="M9.557,2.687c9.042-3.053,8.329,9.7,7.171,17.282-.465-1.4-1.094-2.777-1.424-3.9-.719-2.439-1.4-4.921-3.3-6.735a.215.215,0,0,0-.359.226,60.363,60.363,0,0,1,2.406,7.4c.412,1.374.809,2.787,1.084,4.2a10.777,10.777,0,0,1,.149,1.129C10.128,17.385-.34,6.018,9.557,2.687m-.99,8.405a.291.291,0,1,0-.532-.121s-.018.124-.021.148a.121.121,0,0,0,.051.11.355.355,0,0,0,.5-.137m-1.38-1.46c.3.045.45-.312.554-.54.12-.263-.3-.423-.418-.159-.079.178-.263.353-.256.552a.137.137,0,0,0,.12.147m.05-2.087C7.3,7.472,7.2,7.361,7.119,7.4c-.228.118-.589.193-.631.483a.12.12,0,0,0,.106.129c.273.022.484-.279.643-.469m-.9-.762c.369-.1.541-.532.765-.811.274-.341.657-.564.925-.9a.151.151,0,0,0-.148-.234,1.978,1.978,0,0,0-1.09.777c-.241.283-.64.673-.588,1.075a.116.116,0,0,0,.136.095" transform="translate(1.161 0.473)" fill="#65ad79" fill-rule="evenodd"/>
    <path id="Path_179" data-name="Path 179" d="M19.262,20.48c7.107-2.929,19.189-6.585,18.4,2.866-.887,10.536-14.755,2.771-20.632-1.013.461-.034.94-.092,1.505-.087,1.363.01,2.7.142,4.057.251a51.031,51.031,0,0,0,7.362.314.08.08,0,0,0,.016-.153,49.317,49.317,0,0,0-8.034-1.905c-.793-.084-1.723-.217-2.67-.273M30.9,26.942c-.07-.274-.5-.2-.435.078.051.206.124.406.177.612a.793.793,0,0,0,.2.423.124.124,0,0,0,.192-.007c.227-.315-.047-.777-.131-1.106m-1.9.646c.41-.073.07-.837,0-1.055-.087-.284-.545-.213-.462.082a7.314,7.314,0,0,1,.171.72c.022.129.143.278.289.252m-2.03-.9c.22-.3.047-.757-.057-1.077-.068-.213-.42-.1-.37.116.074.33,0,.742.267.987a.117.117,0,0,0,.16-.027M25.3,26.23c.2-.144.18-.416.19-.64.01-.252.008-.5-.006-.754s-.427-.224-.423.018a7.091,7.091,0,0,1-.035.785c-.021.2-.065.412.084.574a.138.138,0,0,0,.19.018m-1.489-.76a.893.893,0,0,0,.084-.712c-.029-.2-.341-.149-.315.056s-.04.456.072.642a.1.1,0,0,0,.16.015m-1.09-.68a.648.648,0,0,0,.085-.262c.032-.167-.263-.2-.263-.025a.63.63,0,0,0,.036.274.083.083,0,0,0,.142.013m-1.1-.831a.21.21,0,0,0-.418-.039l-.019.207a.21.21,0,0,0,.418.039Zm-.919-.086a.184.184,0,0,0,.144-.119.889.889,0,0,0,.019-.348c-.008-.1-.143-.09-.18-.016a.958.958,0,0,1-.172.187.189.189,0,0,0-.017.189c0,.015.011.027.015.039a.133.133,0,0,0,.139.074l.051-.006" transform="translate(3.624 3.675)" fill="#65ad79" fill-rule="evenodd"/>
  </g>
</svg>
