<svg id="lodka" xmlns="http://www.w3.org/2000/svg" xmlns:xlink="http://www.w3.org/1999/xlink" width="238.419" height="108.728" viewBox="0 0 238.419 108.728">
  <defs>
    <clipPath id="clip-path">
      <rect id="Rectangle_23" data-name="Rectangle 23" width="238.419" height="108.728" fill="none"/>
    </clipPath>
  </defs>
  <g id="Group_20" data-name="Group 20" transform="translate(0 0)" clip-path="url(#clip-path)">
    <path id="Path_180" data-name="Path 180" d="M225.987,89.952a33.867,33.867,0,0,0-35.741-.268,30.624,30.624,0,0,0-10.411,10.858,19.739,19.739,0,0,0-4.945-6.895L213.6,47.228a1.967,1.967,0,0,0,.457-1.305,2.008,2.008,0,0,0-2.033-1.986l-51.184.589L118.7.609l-.013,0c-.027-.029-.06-.054-.091-.083l-.08-.08c-.022-.018-.042-.025-.067-.042a1.7,1.7,0,0,0-.181-.12c-.054-.031-.107-.062-.161-.087a1.1,1.1,0,0,0-.179-.071,1.662,1.662,0,0,0-.2-.067c-.051-.011-.1-.022-.152-.029A2.44,2.44,0,0,0,117.315,0l-.054,0c-.031,0-.056.007-.083.007a1.6,1.6,0,0,0-.232.02,1.484,1.484,0,0,0-.208.042c-.051.013-.1.025-.147.042a1.556,1.556,0,0,0-.237.1c-.036.018-.071.036-.107.056a1.461,1.461,0,0,0-.225.149.79.79,0,0,0-.094.078,1.672,1.672,0,0,0-.19.187c-.018.02-.04.033-.056.054L79.973,44.218a1.962,1.962,0,0,0-.442,1.247l-57.611.667a2.032,2.032,0,0,0-1.412.5,2.01,2.01,0,0,0-.185,2.852l40.53,46.385a2.017,2.017,0,0,0,1.508.683l.982,0a25.742,25.742,0,0,0-1.566,2.731A28.974,28.974,0,0,0,46.8,86.205,37.756,37.756,0,0,0,29.7,83.724a35.027,35.027,0,0,0-15.793,5.063c-5.607,3.584-9.6,8.9-10.429,15.724a2.017,2.017,0,1,0,4.005.482c.669-5.5,3.958-9.847,8.593-12.808a30.723,30.723,0,0,1,13.946-4.454,33.774,33.774,0,0,1,15.271,2.207,24.743,24.743,0,0,1,14.713,15.356,2.013,2.013,0,0,0,3.849-.125A22.26,22.26,0,0,1,75.9,90.8a31.393,31.393,0,0,1,11.3-3.03,36.6,36.6,0,0,1,12.221,1.109c8.345,2.234,15.981,7.493,20.091,15.791a2.025,2.025,0,0,0,2.7.919,2.082,2.082,0,0,0,.835-.776c5.237-8.751,15.311-13.506,25.413-14.5a39.335,39.335,0,0,1,11.021.449,28.674,28.674,0,0,1,9.423,3.45c4.639,2.771,7.868,6.989,8.41,12.553a2.014,2.014,0,0,0,2.193,1.792,1.992,1.992,0,0,0,1.7-1.321,26.916,26.916,0,0,1,11.174-14.138,29.806,29.806,0,0,1,31.419.237,26.378,26.378,0,0,1,10.69,14.019,2.016,2.016,0,1,0,3.827-1.272,30.329,30.329,0,0,0-12.328-16.126M1,95.952a.733.733,0,0,0-.98.8c.016.062.029.123.04.185a.611.611,0,0,0,.977.375c.051-.04.1-.074.156-.109A.734.734,0,0,0,1,95.952M12.958,83.1c.286,0,.3.471.018.5-2.539.225-5.179,1.975-7.049,3.6-1.948,1.7-3.09,3.726-4.726,5.639A.36.36,0,0,1,.556,92.6c.234-2.633,3.2-5.208,5.17-6.685A11.763,11.763,0,0,1,12.958,83.1M193.311,40.427a.722.722,0,0,1,.515-1.348.722.722,0,0,1-.515,1.348M173.3,40.345c1.4-1.573,4.03-1.7,5.989-1.656a28.8,28.8,0,0,1,8.193,1.049.37.37,0,0,1-.074.705c-4.561.489-9.314-1.95-13.638.489a.391.391,0,0,1-.471-.587m43.721,40.891c.085.031.172.06.254.087a.656.656,0,0,1-.469,1.225l-.248-.1a.612.612,0,0,1-.382-.415.631.631,0,0,1,.009-.419.665.665,0,0,1,.835-.373m-17.288.33c3.073-1.415,7.823-2.372,11.054-.986.257.109.252.536-.056.565-3.633.361-7.254-.451-10.8.848a.234.234,0,0,1-.194-.426m22.307,17.389a.445.445,0,0,1-.319.83c-.493-.192-.986-.382-1.482-.573-.274-.1-.817-.328-.665-.725.172-.444.817-.156,1.107-.047.453.17.906.344,1.359.515m2.1,4.057c.341.025.283.54-.049.522a6.171,6.171,0,0,1-1.428-.228,2.2,2.2,0,0,1-1.147-.544.159.159,0,0,1,.1-.252,2.454,2.454,0,0,1,1.089.252,6.255,6.255,0,0,0,1.437.25m4.26,3.615c.435-.02.562.614.114.683q-1.195.177-2.392.359a3.383,3.383,0,0,1-2,.009.32.32,0,0,1-.083-.54,3.233,3.233,0,0,1,1.932-.395c.808-.038,1.62-.074,2.43-.116m-63.026-10.05a.424.424,0,0,1-.3.792c-.6-.225-1.212-.388-1.807-.594a.2.2,0,0,1-.089-.3c.435-.725,1.638-.114,2.2.1m2.582,2.1c.411.125.174.756-.239.623-.225-.071-.484.033-.719-.011-.185-.033-.446-.183-.357-.419s.413-.2.607-.223a1.8,1.8,0,0,1,.707.031m2.568,4.788a4.054,4.054,0,0,0-1.223-.21c-.328-.013-.8.06-1.064-.165a.222.222,0,0,1-.049-.3c.261-.312.806-.272,1.183-.257a5.022,5.022,0,0,1,1.421.241c.455.154.185.857-.268.694m2.923,2.983a.418.418,0,0,1-.295.781,8.6,8.6,0,0,0-2.649-.489,15.493,15.493,0,0,1-2.53.08.321.321,0,0,1-.165-.565c1.511-1.381,4-.482,5.639.192M75.988,94.7a.278.278,0,0,1-.176-.382c.007-.029.02-.058.027-.085l.009-.009c.031-.083.065-.167.1-.252a.3.3,0,0,1,.56.216c-.031.083-.06.167-.091.25l0,.013a.54.54,0,0,1-.036.08.281.281,0,0,1-.388.167m-3.688,5.34c-.6.3-1.04-.721-.415-.935a4.955,4.955,0,0,1,1.752-.232.267.267,0,0,1,.19.424,1.69,1.69,0,0,1-.754.455,5.823,5.823,0,0,0-.772.288m1.323,3.494a.333.333,0,0,1,.016.607,8.587,8.587,0,0,1-2.713.234,8.787,8.787,0,0,0-2.553.58.494.494,0,0,1-.4-.9,8.848,8.848,0,0,1,2.785-.723,5.381,5.381,0,0,1,2.869.2M16.238,95.6a.48.48,0,0,1-.1-.654c.332-.507.93-.324,1.265.058a.239.239,0,0,1-.147.384,2.906,2.906,0,0,1-.315.018.472.472,0,0,1-.705.194m-2.111,6.063c-.435.384-1-.324-.562-.7a2.524,2.524,0,0,1,2.6-.386.253.253,0,0,1,.011.462c-.676.272-1.466.116-2.046.625m1.466,3.046a.3.3,0,0,1-.058.578,9.61,9.61,0,0,1-1.948.129c-.62.042-1.236.118-1.852.194-.424.054-.669-.611-.225-.752,1.174-.364,2.934-.754,4.083-.149m68.83-75.7a.62.62,0,0,1,.823.317,1.133,1.133,0,0,1-.056.756c-.259.808-1.578.3-1.229-.469a1.133,1.133,0,0,1,.462-.6M96.05,15.12c.228-.232.6.141.4.386C95.022,17.3,93.589,19.1,92.232,20.95A63.206,63.206,0,0,1,88.218,26.6a.358.358,0,0,1-.62-.337c1.3-4.269,5.371-8.06,8.452-11.141M136.8,34.376a.144.144,0,0,1-.118-.263c.132-.069.266-.136.4-.208.2-.1.35.237.143.312-.143.056-.281.107-.422.158m-.027,1.252c-.2.047-.634.15-.687-.167-.116-.7,1.6-.616,1.975-.634.353-.02.46.507.091.56-.462.067-.924.129-1.379.241m.7,2.9a.263.263,0,0,1-.067-.446,3.18,3.18,0,0,1,1.939-.448,12.863,12.863,0,0,1,2.073.069.351.351,0,0,1-.069.7,10.466,10.466,0,0,0-2.363.045,3.444,3.444,0,0,1-1.513.083m.12,3.4c-.221-.025-.308-.375-.071-.455a14.672,14.672,0,0,1,8.147-.466c.39.1.232.77-.161.687-2.709-.556-5.239.533-7.915.234M176.864,75.99c.364.377-.286.908-.643.513a2.356,2.356,0,0,0-.649-.527,2.269,2.269,0,0,1-.513-.428.2.2,0,0,1,.138-.364,1.581,1.581,0,0,1,.9.179,3.364,3.364,0,0,1,.763.627m-1.644,3.7a.421.421,0,0,1-.3.788,4.388,4.388,0,0,1-1.754-.982c-.35-.361.225-.955.614-.636a5.351,5.351,0,0,0,1.439.83m-2.6,4.3c.178.156.027.527-.214.395a24.843,24.843,0,0,0-2.271-1.009c-.527-.214-1.3-.277-1.624-.77a.325.325,0,0,1,.051-.446c.547-.448,1.4-.074,1.95.225a11.339,11.339,0,0,1,2.109,1.6m-4.474,1.038a.187.187,0,0,1-.223.3c-2.932-1.868-6.208-2.479-9.59-2.921a.262.262,0,0,1-.018-.518c3.635-.984,7.122.828,9.831,3.137M46.135,60.552a.284.284,0,0,1-.2.509,15.6,15.6,0,0,0-2.479-.091c-.656.062-.821-.959-.167-1.009a4.173,4.173,0,0,1,2.843.591M45.2,57.472a.285.285,0,0,1,.011.522,4.719,4.719,0,0,1-1.669.21c-.761.022-1.528.1-2.292.076-.368-.013-.348-.54-.02-.618a17.465,17.465,0,0,1,2.283-.328,3.274,3.274,0,0,1,1.687.138m5.873-3.186c.324.069.395.569.02.62-3.994.513-8.272.067-12.3.085-.377,0-.393-.623-.02-.663,3.914-.428,8.428-.864,12.3-.042m104.243-9.7h0l-36.355.419.252-38.035ZM115.195,7.658h0l-.25,37.4-30.752.357Zm55.774,83.095h0a32.709,32.709,0,0,0-10.737-3.941,43.189,43.189,0,0,0-12.176-.5,42.094,42.094,0,0,0-17.964,5.926l-8.448,6.433-6.879-6.364A37.218,37.218,0,0,0,100.446,85a40.616,40.616,0,0,0-13.571-1.238,35.462,35.462,0,0,0-12.763,3.436,28.254,28.254,0,0,0-7.475,5.313l-3.363.011-37.058-42.4,133.726-1.555h.013L207.721,48,171.694,91.2c-.239-.154-.484-.306-.725-.451" transform="translate(-0.001 0)" fill="#281a15" fill-rule="evenodd"/>
    <path id="Path_181" data-name="Path 181" d="M11.749,23.625l37.058,42.4,3.365-.011a28.243,28.243,0,0,1,7.473-5.313A35.473,35.473,0,0,1,72.41,57.269a40.6,40.6,0,0,1,13.569,1.238A37.2,37.2,0,0,1,100.3,65.819l15.327-.069a42.1,42.1,0,0,1,17.967-5.926,43.192,43.192,0,0,1,12.176.5A32.746,32.746,0,0,1,156.5,64.264c.243.145.486.3.727.451l36.025-43.2-47.764.558h-.016ZM158.7,53.009c-.35-.361.223-.955.611-.636a5.33,5.33,0,0,0,1.441.83.422.422,0,0,1-.3.788,4.421,4.421,0,0,1-1.752-.982M154.1,55.676c.547-.448,1.4-.074,1.95.225a11.44,11.44,0,0,1,2.111,1.6c.179.158.022.529-.216.4a24.252,24.252,0,0,0-2.271-1.009c-.527-.216-1.3-.277-1.622-.772a.324.324,0,0,1,.049-.444m-10.228.245a.261.261,0,0,1-.016-.515c3.633-.984,7.122.828,9.831,3.135a.189.189,0,0,1-.225.3c-2.93-1.868-6.205-2.479-9.59-2.923m16.724-6.864a.2.2,0,0,1,.138-.361,1.6,1.6,0,0,1,.9.176,3.385,3.385,0,0,1,.763.629c.364.377-.286.908-.643.513a2.316,2.316,0,0,0-.649-.527,2.269,2.269,0,0,1-.513-.431M28.828,33.474a4.156,4.156,0,0,1,2.84.589.285.285,0,0,1-.194.511,15.6,15.6,0,0,0-2.479-.1c-.658.062-.821-.959-.167-1m1.908-2.49a.285.285,0,0,1,.013.522,4.725,4.725,0,0,1-1.671.21c-.761.022-1.526.1-2.289.076-.368-.013-.348-.54-.022-.618a17.127,17.127,0,0,1,2.285-.328,3.244,3.244,0,0,1,1.685.138M36.608,27.8c.324.067.395.569.022.618-3.994.515-8.272.069-12.3.085-.382,0-.395-.62-.022-.66,3.914-.428,8.432-.864,12.3-.042" transform="translate(14.467 26.488)" fill="#d98d12" fill-rule="evenodd"/>
    <path id="Path_182" data-name="Path 182" d="M53.566,3.126l-.25,38.035,36.355-.422Zm17.587,27.4a.145.145,0,0,1-.12-.263c.134-.069.266-.136.4-.208.2-.1.348.237.141.315-.141.051-.281.1-.419.156m-.716,1.084c-.114-.7,1.6-.616,1.975-.634.353-.018.46.507.091.558-.462.069-.924.132-1.379.243-.2.047-.634.15-.687-.167m1.386,3.07a.265.265,0,0,1-.069-.448,3.194,3.194,0,0,1,1.939-.446,12.6,12.6,0,0,1,2.073.069.351.351,0,0,1-.069.7,10.466,10.466,0,0,0-2.363.045,3.436,3.436,0,0,1-1.511.083m.047,2.943a14.674,14.674,0,0,1,8.147-.466c.39.1.232.77-.161.687-2.709-.556-5.241.533-7.915.234-.219-.025-.306-.375-.071-.455" transform="translate(65.649 3.849)" fill="#e5b359" fill-rule="evenodd"/>
    <path id="Path_183" data-name="Path 183" d="M68.484,40.833l.25-37.4-31,37.756Z" transform="translate(46.46 4.225)" fill="#e5b359" fill-rule="evenodd"/>
    <path id="Path_184" data-name="Path 184" d="M151.724,21.818,125.25,53.569c-.241-.156-.444-.469-.732-.451-18.56,1.138-46.258,3.01-100.5,1.839L33.7,66.029l3.363-.011a28.254,28.254,0,0,1,7.475-5.313A35.462,35.462,0,0,1,57.3,57.269a40.6,40.6,0,0,1,13.569,1.238,37.187,37.187,0,0,1,14.318,7.312l6.982,6.571,8.347-6.64a42.128,42.128,0,0,1,17.964-5.929,43.271,43.271,0,0,1,12.176.5,32.759,32.759,0,0,1,10.737,3.941c.241.145.486.3.725.451l36.027-43.2ZM147.286,49.5c.364.375-.286.908-.645.513a2.285,2.285,0,0,0-.649-.527,2.257,2.257,0,0,1-.511-.431.2.2,0,0,1,.136-.361,1.6,1.6,0,0,1,.906.176,3.374,3.374,0,0,1,.763.629M144.2,52.373a5.351,5.351,0,0,0,1.439.83.422.422,0,0,1-.3.788,4.421,4.421,0,0,1-1.752-.982c-.35-.361.225-.955.614-.636m-1.158,5.13c.178.158.025.529-.216.4a24.21,24.21,0,0,0-2.269-1.009c-.527-.216-1.3-.277-1.624-.772a.322.322,0,0,1,.051-.444c.547-.448,1.4-.074,1.95.225a11.425,11.425,0,0,1,2.109,1.6m-14.305-2.1c3.635-.984,7.122.828,9.831,3.135a.188.188,0,0,1-.223.3c-2.932-1.868-6.208-2.479-9.59-2.923a.261.261,0,0,1-.018-.515" transform="translate(29.578 26.488)" fill="#cf7c19" fill-rule="evenodd"/>
  </g>
</svg>
